  0
SECTION
  2
HEADER
  9
$ANGBASE
  50
0.0
  9
$ANGDIR
  70
1
  9
$MEASUREMENT
  70
1
  0
ENDSEC
  0
SECTION
  2
TABLES
  0
TABLE
  2
LTYPE
  70
4
  0
LTYPE
  5
40F
  2
CONTINUOUS
  70
0
  3
Solid line
  72
65
  73
0
  40
0.0
  0
LTYPE
  5
410
  2
DASHDOT
 70
0
  3
Dash Dot ____ _ ____ _
 72
65
 73
4
 40
2.0
 49
1.25
 49
-0.25
 49
0.25
 49
-0.25
  0
LTYPE
  5
411
  2
DASHED
 70
0
  3
Dashed __ __ __ __ __
 72
65
 73
2
 40
0.75
 49
0.5
 49
-0.25
  0
LTYPE
  5
43B
  2
DOTTED
 70
0
  3
Dotted .  .  .  .
 72
65
 73
2
 40
0.2
 49
0.0
 49
-0.2
  0
ENDTAB
  0
TABLE
  2
STYLE
  70
4
  0
STYLE
  2
KICAD
  70
0
  40
0
  41
1
  42
1
  50
0
  71
0
  3
isocp.shx
  0
STYLE
  2
KICADB
  70
0
  40
0
  41
1
  42
1
  50
0
  71
0
  3
isocp.shx
  0
STYLE
  2
KICADI
  70
0
  40
0
  41
1
  42
1
  50
15
  71
0
  3
isocp.shx
  0
STYLE
  2
KICADBI
  70
0
  40
0
  41
1
  42
1
  50
15
  71
0
  3
isocp.shx
  0
ENDTAB
  0
TABLE
  2
LAYER
  70
1
  0
LAYER
  2
BLACK
  70
0
  62
7
  6
CONTINUOUS
  0
ENDTAB
  0
ENDSEC
  0
SECTION
  2
ENTITIES
0
LINE
8
BLACK
6
CONTINUOUS
10
206
20
-83
11
206
21
-82
0
LINE
8
BLACK
6
CONTINUOUS
10
39
20
-26.5
11
42.5
21
-26.5
0
ARC
8
BLACK
10
179.5
20
-84.495
40
1.00499
50
-90
51
-5.71133
0
ARC
8
BLACK
10
193
20
-73.5
40
2
50
-180
51
-90
0
LINE
8
BLACK
6
CONTINUOUS
10
192
20
-19.995
11
204
21
-20
0
LINE
8
BLACK
6
CONTINUOUS
10
62
20
-44
11
70
21
-44
0
LINE
8
BLACK
6
CONTINUOUS
10
189.5
20
-83.495
11
190.5
21
-83.495
0
ARC
8
BLACK
10
178.5
20
-21
40
1
50
90
51
180
0
ARC
8
BLACK
10
37
20
-23
40
1
50
-0
51
90
0
ARC
8
BLACK
10
189.5
20
-23
40
1
50
90
51
180
0
LINE
8
BLACK
6
CONTINUOUS
10
109
20
-83.495
11
110
21
-83.495
0
LINE
8
BLACK
6
CONTINUOUS
10
36
20
-83.495
11
37
21
-83.495
0
LINE
8
BLACK
6
CONTINUOUS
10
184
20
-26.5
11
187.5
21
-26.5
0
LINE
8
BLACK
6
CONTINUOUS
10
108.5
20
-84.595
11
108.5
21
-83.995
0
LINE
8
BLACK
6
CONTINUOUS
10
35.5
20
-84.595
11
35.5
21
-83.995
0
ARC
8
BLACK
10
36
20
-83.995
40
0.5
50
-270
51
-179.999
0
ARC
8
BLACK
10
22
20
-54.5
40
2
50
90
51
180
0
ARC
8
BLACK
10
204
20
-83.5
40
2
50
-90
51
-0
0
LINE
8
BLACK
6
CONTINUOUS
10
200.5
20
-84.5
11
200.5
21
-81
0
ARC
8
BLACK
10
190.5
20
-21.5
40
0.5
50
-90
51
-0
0
LINE
8
BLACK
6
CONTINUOUS
10
46
20
-20.9
11
46
21
-21.5
0
ARC
8
BLACK
10
109
20
-83.995
40
0.5
50
-270
51
-179.999
0
ARC
8
BLACK
10
44.5
20
-23
40
1
50
90
51
180
0
LINE
8
BLACK
6
CONTINUOUS
10
178.5
20
-20
11
179.5
21
-20
0
LINE
8
BLACK
6
CONTINUOUS
10
35.5
20
-21.5
11
35.5
21
-21
0
CIRCLE
8
BLACK
10
126
20
-77.5
40
2
0
LINE
8
BLACK
6
CONTINUOUS
10
22
20
-20
11
34.5
21
-20
0
LINE
8
BLACK
6
CONTINUOUS
10
187.5
20
-78.995
11
184
21
-78.995
0
LINE
8
BLACK
6
CONTINUOUS
10
47
20
-19.995
11
96
21
-20
0
ARC
8
BLACK
10
73
20
-83.5
40
2
50
-180
51
-90
0
ARC
8
BLACK
10
35
20
-43
40
2
50
-180
51
-90
0
LINE
8
BLACK
6
CONTINUOUS
10
188.5
20
-82.495
11
188.5
21
-79.995
0
ARC
8
BLACK
10
34.5
20
-84.495
40
1.00499
50
-90
51
-5.71133
0
ARC
8
BLACK
10
70
20
-44.5
40
0.5
50
-0
51
90
0
ARC
8
BLACK
10
42.5
20
-25.5
40
1
50
-90
51
-0
0
ARC
8
BLACK
10
96
20
-21
40
1
50
-0
51
90
0
ARC
8
BLACK
10
117.5
20
-82.495
40
1.00001
50
-179.999
51
-90
0
ARC
8
BLACK
10
182
20
-23
40
1
50
-0
51
90
0
ARC
8
BLACK
10
112
20
-79.995
40
1
50
-270
51
-179.999
0
ARC
8
BLACK
10
205
20
-82
40
1
50
-0
51
90
0
ARC
8
BLACK
10
115.5
20
-79.995
40
0.999987
50
-0.000687549
51
90
0
ARC
8
BLACK
10
184
20
-79.995
40
1
50
-270
51
-179.999
0
ARC
8
BLACK
10
204
20
-22
40
2
50
-0
51
90
0
LINE
8
BLACK
6
CONTINUOUS
10
180.5
20
-21.5
11
180.5
21
-21
0
LINE
8
BLACK
6
CONTINUOUS
10
180.5
20
-84.595
11
180.5
21
-83.995
0
LINE
8
BLACK
6
CONTINUOUS
10
181
20
-83.495
11
182
21
-83.495
0
LINE
8
BLACK
6
CONTINUOUS
10
177.5
20
-23.5
11
177.5
21
-21
0
ARC
8
BLACK
10
205
20
-23.5
40
1
50
-90
51
-0
0
ARC
8
BLACK
10
171.5
20
-76.5
40
4
50
-90
51
90
0
ARC
8
BLACK
10
50
20
-50.5
40
2
50
-90
51
-0
0
LINE
8
BLACK
6
CONTINUOUS
10
171.5
20
-72.5
11
163.5
21
-72.5
0
ARC
8
BLACK
10
39
20
-25.5
40
1
50
-180
51
-90
0
ARC
8
BLACK
10
36
20
-51.9975
40
4.50301
50
-167.136
51
-12.8637
0
LINE
8
BLACK
6
CONTINUOUS
10
206
20
-22
11
206
21
-23.5
0
LINE
8
BLACK
6
CONTINUOUS
10
70.5
20
-44.5
11
70.5
21
-56.5
0
LINE
8
BLACK
6
CONTINUOUS
10
61.5
20
-56.5
11
61.5
21
-44.5
0
LINE
8
BLACK
6
CONTINUOUS
10
22
20
-52.5
11
31.1064
21
-52.5
0
ARC
8
BLACK
10
192
20
-21
40
1.00499
50
90
51
174.289
0
ARC
8
BLACK
10
34.5
20
-21
40
1
50
-0
51
90
0
LINE
8
BLACK
6
CONTINUOUS
10
191
20
-83.995
11
191
21
-84.495
0
LINE
8
BLACK
6
CONTINUOUS
10
107.5
20
-85.5
11
73
21
-85.5
0
CIRCLE
8
BLACK
10
139
20
-76.5
40
4
0
LINE
8
BLACK
6
CONTINUOUS
10
204.646
20
-80.8516
11
199.45
21
-75.6464
0
LINE
8
BLACK
6
CONTINUOUS
10
71
20
-83.5
11
71
21
-77.5
0
ARC
8
BLACK
10
40
20
-77.5
40
2
50
90
51
180
0
LINE
8
BLACK
6
CONTINUOUS
10
179.5
20
-85.5
11
120
21
-85.495
0
LINE
8
BLACK
6
CONTINUOUS
10
50.1
20
-45
11
35
21
-45
0
ARC
8
BLACK
10
189.5
20
-82.495
40
1.00001
50
-179.999
51
-90
0
LINE
8
BLACK
6
CONTINUOUS
10
119
20
-83.995
11
119
21
-84.495
0
LINE
8
BLACK
6
CONTINUOUS
10
70
20
-57
11
62
21
-57
0
CIRCLE
8
BLACK
10
203.7
20
-83.7
40
1.35
0
ARC
8
BLACK
10
187.5
20
-79.995
40
0.999987
50
-0.000687549
51
90
0
ARC
8
BLACK
10
201.5
20
-84.5
40
1
50
-180
51
-90
0
ARC
8
BLACK
10
22
20
-83.5
40
2
50
-180
51
-90
0
ARC
8
BLACK
10
118.5
20
-83.995
40
0.499986
50
-0.00148969
51
90
0
ARC
8
BLACK
10
181
20
-21.5
40
0.5
50
-180
51
-90
0
LINE
8
BLACK
6
CONTINUOUS
10
20
20
-83.5
11
20
21
-54.5
0
LINE
8
BLACK
6
CONTINUOUS
10
115.5
20
-78.995
11
112
21
-78.995
0
LINE
8
BLACK
6
CONTINUOUS
10
182
20
-22
11
181
21
-22
0
LINE
8
BLACK
6
CONTINUOUS
10
183
20
-23
11
183
21
-25.5
0
ARC
8
BLACK
10
192
20
-84.495
40
1.00001
50
-179.999
51
-90
0
LINE
8
BLACK
6
CONTINUOUS
10
191
20
-26.5
11
191
21
-73.5
0
LINE
8
BLACK
6
CONTINUOUS
10
45.5
20
-22
11
44.5
21
-22
0
LINE
8
BLACK
6
CONTINUOUS
10
193
20
-75.5
11
199.096
21
-75.5
0
LINE
8
BLACK
6
CONTINUOUS
10
20
20
-28.5
11
20
21
-22
0
LINE
8
BLACK
6
CONTINUOUS
10
52
20
-50.5
11
52.0025
21
-47
0
ARC
8
BLACK
10
37
20
-82.495
40
1
50
-90
51
-0.000744845
0
ARC
8
BLACK
10
182
20
-82.495
40
1
50
-90
51
-0.000744845
0
LINE
8
BLACK
6
CONTINUOUS
10
38
20
-23
11
38
21
-25.5
0
ARC
8
BLACK
10
70
20
-56.5
40
0.5
50
-90
51
-0
0
LINE
8
BLACK
6
CONTINUOUS
10
43.5
20
-23
11
43.5
21
-25.5
0
LINE
8
BLACK
6
CONTINUOUS
10
40.9
20
-52.5
11
50
21
-52.5
0
ARC
8
BLACK
10
184
20
-25.5
40
1
50
-180
51
-90
0
CIRCLE
8
BLACK
10
153
20
-54
40
4.5
0
ARC
8
BLACK
10
36
20
-21.5
40
0.5
50
-180
51
-90
0
LINE
8
BLACK
6
CONTINUOUS
10
163.5
20
-80.5
11
171.5
21
-80.5
0
ARC
8
BLACK
10
45.5
20
-21.5
40
0.5
50
-90
51
-0
0
LINE
8
BLACK
6
CONTINUOUS
10
191
20
-20.9
11
191
21
-21.5
0
ARC
8
BLACK
10
110
20
-82.495
40
1
50
-90
51
-0.000744845
0
LINE
8
BLACK
6
CONTINUOUS
10
183
20
-82.495
11
183
21
-79.995
0
LINE
8
BLACK
6
CONTINUOUS
10
192.5
20
-81
11
192.5
21
-85
0
CIRCLE
8
BLACK
10
22.3
20
-83.7
40
1.35
0
LINE
8
BLACK
6
CONTINUOUS
10
34.5
20
-85.5
11
22
21
-85.5
0
ARC
8
BLACK
10
163.5
20
-76.5
40
4
50
-270
51
-90
0
ARC
8
BLACK
10
187.5
20
-25.5
40
1
50
-90
51
-0
0
ARC
8
BLACK
10
120
20
-84.495
40
1.00001
50
-179.999
51
-90
0
LINE
8
BLACK
6
CONTINUOUS
10
117.5
20
-83.495
11
118.5
21
-83.495
0
CIRCLE
8
BLACK
10
88
20
-77.5
40
2
0
LINE
8
BLACK
6
CONTINUOUS
10
204
20
-85.5
11
201.5
21
-85.5
0
ARC
8
BLACK
10
196.5
20
-81
40
4
50
-0
51
180
0
ARC
8
BLACK
10
179.5
20
-21
40
1
50
-0
51
90
0
LINE
8
BLACK
6
CONTINUOUS
10
190.5
20
-22
11
189.5
21
-22
0
ARC
8
BLACK
10
205
20
-80.5
40
0.5
50
-135.158
51
-90
0
ARC
8
BLACK
10
190.5
20
-83.995
40
0.499986
50
-0.00148969
51
90
0
LINE
8
BLACK
6
CONTINUOUS
10
31
20
-30.5
11
22
21
-30.5
0
ARC
8
BLACK
10
199.1
20
-76
40
0.500012
50
45.2893
51
90.4071
0
LINE
8
BLACK
6
CONTINUOUS
10
38
20
-77.5
11
38
21
-82.495
0
LINE
8
BLACK
6
CONTINUOUS
10
37
20
-22
11
36
21
-22
0
LINE
8
BLACK
6
CONTINUOUS
10
111
20
-82.495
11
111
21
-79.995
0
LINE
8
BLACK
6
CONTINUOUS
10
205
20
-24.5
11
193
21
-24.5
0
ARC
8
BLACK
10
69
20
-77.5
40
2
50
-0
51
90
0
ARC
8
BLACK
10
98
20
-23.5
40
1
50
-180
51
-90
0
LINE
8
BLACK
6
CONTINUOUS
10
116.5
20
-82.495
11
116.5
21
-79.995
0
CIRCLE
8
BLACK
10
22.3
20
-21.8
40
1.35
0
ARC
8
BLACK
10
22
20
-28.5
40
2
50
-180
51
-90
0
ARC
8
BLACK
10
40.9
20
-53
40
0.51
50
90
51
180
0
LINE
8
BLACK
6
CONTINUOUS
10
97
20
-21
11
97
21
-23.5
0
ARC
8
BLACK
10
31
20
-32.5
40
2
50
-0
51
90
0
ARC
8
BLACK
10
47
20
-21
40
1.00499
50
90
51
174.289
0
ARC
8
BLACK
10
181
20
-83.995
40
0.5
50
-270
51
-179.999
0
ARC
8
BLACK
10
192
20
-85
40
0.5
50
-90
51
-0
0
LINE
8
BLACK
6
CONTINUOUS
10
33
20
-43
11
33
21
-32.5
0
CIRCLE
8
BLACK
10
91.5
20
-60.5
40
4.5
0
ARC
8
BLACK
10
22
20
-22
40
2
50
90
51
180
0
ARC
8
BLACK
10
193
20
-26.5
40
2
50
90
51
180
0
ARC
8
BLACK
10
62
20
-56.5
40
0.5
50
-180
51
-90
0
LINE
8
BLACK
6
CONTINUOUS
10
69
20
-75.5
11
40
21
-75.5
0
ARC
8
BLACK
10
62
20
-44.5
40
0.5
50
90
51
180
0
LINE
8
BLACK
6
CONTINUOUS
10
98
20
-24.5
11
176.5
21
-24.5
0
ARC
8
BLACK
10
50
20
-47
40
2.0025
50
-1.13687e-14
51
87.1376
0
ARC
8
BLACK
10
107.5
20
-84.495
40
1.00499
50
-90
51
-5.71133
0
ARC
8
BLACK
10
31.1
20
-53
40
0.500041
50
1.13687e-14
51
89.2613
0
CIRCLE
8
BLACK
10
203.7
20
-21.8
40
1.35
0
LINE
8
BLACK
6
CONTINUOUS
10
206
20
-83
11
206
21
-83.5
0
LINE
8
BLACK
6
CONTINUOUS
10
188.5
20
-23
11
188.5
21
-25.5
0
ARC
8
BLACK
10
176.5
20
-23.5
40
1
50
-90
51
-0
  0
ENDSEC
  0
EOF
