  0
SECTION
  2
HEADER
  9
$ANGBASE
  50
0.0
  9
$ANGDIR
  70
1
  9
$MEASUREMENT
  70
1
  0
ENDSEC
  0
SECTION
  2
TABLES
  0
TABLE
  2
LTYPE
  70
4
  0
LTYPE
  5
40F
  2
CONTINUOUS
  70
0
  3
Solid line
  72
65
  73
0
  40
0.0
  0
LTYPE
  5
410
  2
DASHDOT
 70
0
  3
Dash Dot ____ _ ____ _
 72
65
 73
4
 40
2.0
 49
1.25
 49
-0.25
 49
0.25
 49
-0.25
  0
LTYPE
  5
411
  2
DASHED
 70
0
  3
Dashed __ __ __ __ __
 72
65
 73
2
 40
0.75
 49
0.5
 49
-0.25
  0
LTYPE
  5
43B
  2
DOTTED
 70
0
  3
Dotted .  .  .  .
 72
65
 73
2
 40
0.2
 49
0.0
 49
-0.2
  0
ENDTAB
  0
TABLE
  2
STYLE
  70
4
  0
STYLE
  2
KICAD
  70
0
  40
0
  41
1
  42
1
  50
0
  71
0
  3
isocp.shx
  0
STYLE
  2
KICADB
  70
0
  40
0
  41
1
  42
1
  50
0
  71
0
  3
isocp.shx
  0
STYLE
  2
KICADI
  70
0
  40
0
  41
1
  42
1
  50
15
  71
0
  3
isocp.shx
  0
STYLE
  2
KICADBI
  70
0
  40
0
  41
1
  42
1
  50
15
  71
0
  3
isocp.shx
  0
ENDTAB
  0
TABLE
  2
LAYER
  70
1
  0
LAYER
  2
BLACK
  70
0
  62
7
  6
CONTINUOUS
  0
ENDTAB
  0
ENDSEC
  0
SECTION
  2
ENTITIES
0
LINE
8
BLACK
6
CONTINUOUS
10
192.991
20
-24.5464
11
192.745
21
-24.5625
0
LINE
8
BLACK
6
CONTINUOUS
10
192.745
20
-24.5625
11
192.494
21
-24.6124
0
LINE
8
BLACK
6
CONTINUOUS
10
192.494
20
-24.6124
11
192.252
21
-24.6946
0
LINE
8
BLACK
6
CONTINUOUS
10
192.252
20
-24.6946
11
192.023
21
-24.8076
0
LINE
8
BLACK
6
CONTINUOUS
10
192.023
20
-24.8076
11
191.81
21
-24.9496
0
LINE
8
BLACK
6
CONTINUOUS
10
191.81
20
-24.9496
11
191.618
21
-25.1182
0
LINE
8
BLACK
6
CONTINUOUS
10
191.618
20
-25.1182
11
191.45
21
-25.3104
0
LINE
8
BLACK
6
CONTINUOUS
10
191.45
20
-25.3104
11
191.308
21
-25.5229
0
LINE
8
BLACK
6
CONTINUOUS
10
191.308
20
-25.5229
11
191.195
21
-25.7522
0
LINE
8
BLACK
6
CONTINUOUS
10
191.195
20
-25.7522
11
191.112
21
-25.9942
0
LINE
8
BLACK
6
CONTINUOUS
10
191.112
20
-25.9942
11
191.063
21
-26.2449
0
LINE
8
BLACK
6
CONTINUOUS
10
191.063
20
-26.2449
11
191.046
21
-26.4913
0
LINE
8
BLACK
6
CONTINUOUS
10
191.046
20
-26.4913
11
191.05
21
-26.5
0
LINE
8
BLACK
6
CONTINUOUS
10
191.05
20
-26.5
11
191.05
21
-73.5
0
LINE
8
BLACK
6
CONTINUOUS
10
191.05
20
-73.5
11
191.046
21
-73.5087
0
LINE
8
BLACK
6
CONTINUOUS
10
191.046
20
-73.5087
11
191.063
21
-73.7551
0
LINE
8
BLACK
6
CONTINUOUS
10
191.063
20
-73.7551
11
191.112
21
-74.0058
0
LINE
8
BLACK
6
CONTINUOUS
10
191.112
20
-74.0058
11
191.195
21
-74.2478
0
LINE
8
BLACK
6
CONTINUOUS
10
191.195
20
-74.2478
11
191.308
21
-74.4771
0
LINE
8
BLACK
6
CONTINUOUS
10
191.308
20
-74.4771
11
191.45
21
-74.6896
0
LINE
8
BLACK
6
CONTINUOUS
10
191.45
20
-74.6896
11
191.618
21
-74.8818
0
LINE
8
BLACK
6
CONTINUOUS
10
191.618
20
-74.8818
11
191.81
21
-75.0504
0
LINE
8
BLACK
6
CONTINUOUS
10
191.81
20
-75.0504
11
192.023
21
-75.1924
0
LINE
8
BLACK
6
CONTINUOUS
10
192.023
20
-75.1924
11
192.252
21
-75.3054
0
LINE
8
BLACK
6
CONTINUOUS
10
192.252
20
-75.3054
11
192.494
21
-75.3876
0
LINE
8
BLACK
6
CONTINUOUS
10
192.494
20
-75.3876
11
192.745
21
-75.4375
0
LINE
8
BLACK
6
CONTINUOUS
10
192.745
20
-75.4375
11
192.991
21
-75.4536
0
LINE
8
BLACK
6
CONTINUOUS
10
192.991
20
-75.4536
11
193
21
-75.45
0
LINE
8
BLACK
6
CONTINUOUS
10
193
20
-75.45
11
199.096
21
-75.45
0
LINE
8
BLACK
6
CONTINUOUS
10
199.096
20
-75.45
11
199.097
21
-75.45
0
LINE
8
BLACK
6
CONTINUOUS
10
199.097
20
-75.45
11
199.204
21
-75.4599
0
LINE
8
BLACK
6
CONTINUOUS
10
199.204
20
-75.4599
11
199.307
21
-75.4906
0
LINE
8
BLACK
6
CONTINUOUS
10
199.307
20
-75.4906
11
199.403
21
-75.541
0
LINE
8
BLACK
6
CONTINUOUS
10
199.403
20
-75.541
11
199.487
21
-75.6091
0
LINE
8
BLACK
6
CONTINUOUS
10
199.487
20
-75.6091
11
199.49
21
-75.6153
0
LINE
8
BLACK
6
CONTINUOUS
10
199.49
20
-75.6153
11
204.682
21
-80.8163
0
LINE
8
BLACK
6
CONTINUOUS
10
204.682
20
-80.8163
11
204.685
21
-80.8232
0
LINE
8
BLACK
6
CONTINUOUS
10
204.685
20
-80.8232
11
204.748
21
-80.8755
0
LINE
8
BLACK
6
CONTINUOUS
10
204.748
20
-80.8755
11
204.826
21
-80.9175
0
LINE
8
BLACK
6
CONTINUOUS
10
204.826
20
-80.9175
11
204.911
21
-80.9434
0
LINE
8
BLACK
6
CONTINUOUS
10
204.911
20
-80.9434
11
204.996
21
-80.9518
0
LINE
8
BLACK
6
CONTINUOUS
10
204.996
20
-80.9518
11
205
21
-80.95
0
LINE
8
BLACK
6
CONTINUOUS
10
205
20
-80.95
11
205.182
21
-80.966
0
LINE
8
BLACK
6
CONTINUOUS
10
205.182
20
-80.966
11
205.359
21
-81.0133
0
LINE
8
BLACK
6
CONTINUOUS
10
205.359
20
-81.0133
11
205.525
21
-81.0907
0
LINE
8
BLACK
6
CONTINUOUS
10
205.525
20
-81.0907
11
205.675
21
-81.1957
0
LINE
8
BLACK
6
CONTINUOUS
10
205.675
20
-81.1957
11
205.804
21
-81.3251
0
LINE
8
BLACK
6
CONTINUOUS
10
205.804
20
-81.3251
11
205.909
21
-81.475
0
LINE
8
BLACK
6
CONTINUOUS
10
205.909
20
-81.475
11
205.987
21
-81.6409
0
LINE
8
BLACK
6
CONTINUOUS
10
205.987
20
-81.6409
11
206.034
21
-81.8177
0
LINE
8
BLACK
6
CONTINUOUS
10
206.034
20
-81.8177
11
206.05
21
-82
0
LINE
8
BLACK
6
CONTINUOUS
10
206.05
20
-82
11
206.035
21
-82.0354
0
LINE
8
BLACK
6
CONTINUOUS
10
206.035
20
-82.0354
11
206
21
-82.05
0
LINE
8
BLACK
6
CONTINUOUS
10
206
20
-82.05
11
205.965
21
-82.0354
0
LINE
8
BLACK
6
CONTINUOUS
10
205.965
20
-82.0354
11
205.95
21
-82
0
LINE
8
BLACK
6
CONTINUOUS
10
205.95
20
-82
11
205.953
21
-81.9928
0
LINE
8
BLACK
6
CONTINUOUS
10
205.953
20
-81.9928
11
205.939
21
-81.8344
0
LINE
8
BLACK
6
CONTINUOUS
10
205.939
20
-81.8344
11
205.896
21
-81.6738
0
LINE
8
BLACK
6
CONTINUOUS
10
205.896
20
-81.6738
11
205.826
21
-81.5232
0
LINE
8
BLACK
6
CONTINUOUS
10
205.826
20
-81.5232
11
205.731
21
-81.387
0
LINE
8
BLACK
6
CONTINUOUS
10
205.731
20
-81.387
11
205.613
21
-81.2695
0
LINE
8
BLACK
6
CONTINUOUS
10
205.613
20
-81.2695
11
205.477
21
-81.1741
0
LINE
8
BLACK
6
CONTINUOUS
10
205.477
20
-81.1741
11
205.326
21
-81.1039
0
LINE
8
BLACK
6
CONTINUOUS
10
205.326
20
-81.1039
11
205.166
21
-81.0609
0
LINE
8
BLACK
6
CONTINUOUS
10
205.166
20
-81.0609
11
205.007
21
-81.047
0
LINE
8
BLACK
6
CONTINUOUS
10
205.007
20
-81.047
11
205
21
-81.05
0
LINE
8
BLACK
6
CONTINUOUS
10
205
20
-81.05
11
204.892
21
-81.0394
0
LINE
8
BLACK
6
CONTINUOUS
10
204.892
20
-81.0394
11
204.789
21
-81.0078
0
LINE
8
BLACK
6
CONTINUOUS
10
204.789
20
-81.0078
11
204.693
21
-80.9567
0
LINE
8
BLACK
6
CONTINUOUS
10
204.693
20
-80.9567
11
204.61
21
-80.8878
0
LINE
8
BLACK
6
CONTINUOUS
10
204.61
20
-80.8878
11
204.609
21
-80.8845
0
LINE
8
BLACK
6
CONTINUOUS
10
204.609
20
-80.8845
11
199.415
21
-75.6818
0
LINE
8
BLACK
6
CONTINUOUS
10
199.415
20
-75.6818
11
199.411
21
-75.6728
0
LINE
8
BLACK
6
CONTINUOUS
10
199.411
20
-75.6728
11
199.349
21
-75.6226
0
LINE
8
BLACK
6
CONTINUOUS
10
199.349
20
-75.6226
11
199.271
21
-75.5812
0
LINE
8
BLACK
6
CONTINUOUS
10
199.271
20
-75.5812
11
199.185
21
-75.5559
0
LINE
8
BLACK
6
CONTINUOUS
10
199.185
20
-75.5559
11
199.101
21
-75.5482
0
LINE
8
BLACK
6
CONTINUOUS
10
199.101
20
-75.5482
11
199.097
21
-75.55
0
LINE
8
BLACK
6
CONTINUOUS
10
199.097
20
-75.55
11
199.097
21
-75.5499
0
LINE
8
BLACK
6
CONTINUOUS
10
199.097
20
-75.5499
11
199.096
21
-75.55
0
LINE
8
BLACK
6
CONTINUOUS
10
199.096
20
-75.55
11
193
21
-75.55
0
LINE
8
BLACK
6
CONTINUOUS
10
193
20
-75.55
11
192.732
21
-75.5325
0
LINE
8
BLACK
6
CONTINUOUS
10
192.732
20
-75.5325
11
192.469
21
-75.4801
0
LINE
8
BLACK
6
CONTINUOUS
10
192.469
20
-75.4801
11
192.215
21
-75.394
0
LINE
8
BLACK
6
CONTINUOUS
10
192.215
20
-75.394
11
191.975
21
-75.2754
0
LINE
8
BLACK
6
CONTINUOUS
10
191.975
20
-75.2754
11
191.752
21
-75.1264
0
LINE
8
BLACK
6
CONTINUOUS
10
191.752
20
-75.1264
11
191.55
21
-74.9496
0
LINE
8
BLACK
6
CONTINUOUS
10
191.55
20
-74.9496
11
191.374
21
-74.748
0
LINE
8
BLACK
6
CONTINUOUS
10
191.374
20
-74.748
11
191.225
21
-74.525
0
LINE
8
BLACK
6
CONTINUOUS
10
191.225
20
-74.525
11
191.106
21
-74.2845
0
LINE
8
BLACK
6
CONTINUOUS
10
191.106
20
-74.2845
11
191.02
21
-74.0306
0
LINE
8
BLACK
6
CONTINUOUS
10
191.02
20
-74.0306
11
190.968
21
-73.7676
0
LINE
8
BLACK
6
CONTINUOUS
10
190.968
20
-73.7676
11
190.95
21
-73.5
0
LINE
8
BLACK
6
CONTINUOUS
10
190.95
20
-73.5
11
190.95
21
-26.5
0
LINE
8
BLACK
6
CONTINUOUS
10
190.95
20
-26.5
11
190.968
21
-26.2324
0
LINE
8
BLACK
6
CONTINUOUS
10
190.968
20
-26.2324
11
191.02
21
-25.9694
0
LINE
8
BLACK
6
CONTINUOUS
10
191.02
20
-25.9694
11
191.106
21
-25.7155
0
LINE
8
BLACK
6
CONTINUOUS
10
191.106
20
-25.7155
11
191.225
21
-25.475
0
LINE
8
BLACK
6
CONTINUOUS
10
191.225
20
-25.475
11
191.374
21
-25.252
0
LINE
8
BLACK
6
CONTINUOUS
10
191.374
20
-25.252
11
191.55
21
-25.0504
0
LINE
8
BLACK
6
CONTINUOUS
10
191.55
20
-25.0504
11
191.752
21
-24.8736
0
LINE
8
BLACK
6
CONTINUOUS
10
191.752
20
-24.8736
11
191.975
21
-24.7246
0
LINE
8
BLACK
6
CONTINUOUS
10
191.975
20
-24.7246
11
192.215
21
-24.606
0
LINE
8
BLACK
6
CONTINUOUS
10
192.215
20
-24.606
11
192.469
21
-24.5199
0
LINE
8
BLACK
6
CONTINUOUS
10
192.469
20
-24.5199
11
192.732
21
-24.4675
0
LINE
8
BLACK
6
CONTINUOUS
10
192.732
20
-24.4675
11
193
21
-24.45
0
LINE
8
BLACK
6
CONTINUOUS
10
193
20
-24.45
11
205
21
-24.45
0
LINE
8
BLACK
6
CONTINUOUS
10
205
20
-24.45
11
205.007
21
-24.453
0
LINE
8
BLACK
6
CONTINUOUS
10
205.007
20
-24.453
11
205.166
21
-24.4391
0
LINE
8
BLACK
6
CONTINUOUS
10
205.166
20
-24.4391
11
205.326
21
-24.3961
0
LINE
8
BLACK
6
CONTINUOUS
10
205.326
20
-24.3961
11
205.477
21
-24.3259
0
LINE
8
BLACK
6
CONTINUOUS
10
205.477
20
-24.3259
11
205.613
21
-24.2305
0
LINE
8
BLACK
6
CONTINUOUS
10
205.613
20
-24.2305
11
205.731
21
-24.113
0
LINE
8
BLACK
6
CONTINUOUS
10
205.731
20
-24.113
11
205.826
21
-23.9768
0
LINE
8
BLACK
6
CONTINUOUS
10
205.826
20
-23.9768
11
205.896
21
-23.8262
0
LINE
8
BLACK
6
CONTINUOUS
10
205.896
20
-23.8262
11
205.939
21
-23.6656
0
LINE
8
BLACK
6
CONTINUOUS
10
205.939
20
-23.6656
11
205.953
21
-23.5072
0
LINE
8
BLACK
6
CONTINUOUS
10
205.953
20
-23.5072
11
205.95
21
-23.5
0
LINE
8
BLACK
6
CONTINUOUS
10
205.95
20
-23.5
11
205.95
21
-22
0
LINE
8
BLACK
6
CONTINUOUS
10
205.95
20
-22
11
205.952
21
-21.9955
0
LINE
8
BLACK
6
CONTINUOUS
10
205.952
20
-21.9955
11
205.954
21
-21.9913
0
LINE
8
BLACK
6
CONTINUOUS
10
205.954
20
-21.9913
11
205.937
21
-21.7449
0
LINE
8
BLACK
6
CONTINUOUS
10
205.937
20
-21.7449
11
205.888
21
-21.4942
0
LINE
8
BLACK
6
CONTINUOUS
10
205.888
20
-21.4942
11
205.805
21
-21.2522
0
LINE
8
BLACK
6
CONTINUOUS
10
205.805
20
-21.2522
11
205.692
21
-21.0229
0
LINE
8
BLACK
6
CONTINUOUS
10
205.692
20
-21.0229
11
205.55
21
-20.8104
0
LINE
8
BLACK
6
CONTINUOUS
10
205.55
20
-20.8104
11
205.382
21
-20.6182
0
LINE
8
BLACK
6
CONTINUOUS
10
205.382
20
-20.6182
11
205.19
21
-20.4496
0
LINE
8
BLACK
6
CONTINUOUS
10
205.19
20
-20.4496
11
204.977
21
-20.3076
0
LINE
8
BLACK
6
CONTINUOUS
10
204.977
20
-20.3076
11
204.748
21
-20.1946
0
LINE
8
BLACK
6
CONTINUOUS
10
204.748
20
-20.1946
11
204.506
21
-20.1124
0
LINE
8
BLACK
6
CONTINUOUS
10
204.506
20
-20.1124
11
204.255
21
-20.0625
0
LINE
8
BLACK
6
CONTINUOUS
10
204.255
20
-20.0625
11
204.009
21
-20.0464
0
LINE
8
BLACK
6
CONTINUOUS
10
204.009
20
-20.0464
11
204
21
-20.05
0
LINE
8
BLACK
6
CONTINUOUS
10
204
20
-20.05
11
204
21
-20.05
0
LINE
8
BLACK
6
CONTINUOUS
10
204
20
-20.05
11
204
21
-20.05
0
LINE
8
BLACK
6
CONTINUOUS
10
204
20
-20.05
11
192
21
-20.045
0
LINE
8
BLACK
6
CONTINUOUS
10
192
20
-20.045
11
191.992
21
-20.0417
0
LINE
8
BLACK
6
CONTINUOUS
10
191.992
20
-20.0417
11
191.825
21
-20.0571
0
LINE
8
BLACK
6
CONTINUOUS
10
191.825
20
-20.0571
11
191.655
21
-20.1051
0
LINE
8
BLACK
6
CONTINUOUS
10
191.655
20
-20.1051
11
191.497
21
-20.1832
0
LINE
8
BLACK
6
CONTINUOUS
10
191.497
20
-20.1832
11
191.356
21
-20.2889
0
LINE
8
BLACK
6
CONTINUOUS
10
191.356
20
-20.2889
11
191.237
21
-20.4186
0
LINE
8
BLACK
6
CONTINUOUS
10
191.237
20
-20.4186
11
191.144
21
-20.5678
0
LINE
8
BLACK
6
CONTINUOUS
10
191.144
20
-20.5678
11
191.079
21
-20.7317
0
LINE
8
BLACK
6
CONTINUOUS
10
191.079
20
-20.7317
11
191.048
21
-20.8944
0
LINE
8
BLACK
6
CONTINUOUS
10
191.048
20
-20.8944
11
191.05
21
-20.9
0
LINE
8
BLACK
6
CONTINUOUS
10
191.05
20
-20.9
11
191.05
21
-21.5
0
LINE
8
BLACK
6
CONTINUOUS
10
191.05
20
-21.5
11
191.036
21
-21.6224
0
LINE
8
BLACK
6
CONTINUOUS
10
191.036
20
-21.6224
11
190.996
21
-21.7386
0
LINE
8
BLACK
6
CONTINUOUS
10
190.996
20
-21.7386
11
190.93
21
-21.8429
0
LINE
8
BLACK
6
CONTINUOUS
10
190.93
20
-21.8429
11
190.843
21
-21.93
0
LINE
8
BLACK
6
CONTINUOUS
10
190.843
20
-21.93
11
190.739
21
-21.9955
0
LINE
8
BLACK
6
CONTINUOUS
10
190.739
20
-21.9955
11
190.622
21
-22.0362
0
LINE
8
BLACK
6
CONTINUOUS
10
190.622
20
-22.0362
11
190.5
21
-22.05
0
LINE
8
BLACK
6
CONTINUOUS
10
190.5
20
-22.05
11
189.5
21
-22.05
0
LINE
8
BLACK
6
CONTINUOUS
10
189.5
20
-22.05
11
189.493
21
-22.047
0
LINE
8
BLACK
6
CONTINUOUS
10
189.493
20
-22.047
11
189.334
21
-22.0609
0
LINE
8
BLACK
6
CONTINUOUS
10
189.334
20
-22.0609
11
189.174
21
-22.1039
0
LINE
8
BLACK
6
CONTINUOUS
10
189.174
20
-22.1039
11
189.023
21
-22.1741
0
LINE
8
BLACK
6
CONTINUOUS
10
189.023
20
-22.1741
11
188.887
21
-22.2695
0
LINE
8
BLACK
6
CONTINUOUS
10
188.887
20
-22.2695
11
188.769
21
-22.387
0
LINE
8
BLACK
6
CONTINUOUS
10
188.769
20
-22.387
11
188.674
21
-22.5232
0
LINE
8
BLACK
6
CONTINUOUS
10
188.674
20
-22.5232
11
188.604
21
-22.6738
0
LINE
8
BLACK
6
CONTINUOUS
10
188.604
20
-22.6738
11
188.561
21
-22.8344
0
LINE
8
BLACK
6
CONTINUOUS
10
188.561
20
-22.8344
11
188.547
21
-22.9928
0
LINE
8
BLACK
6
CONTINUOUS
10
188.547
20
-22.9928
11
188.55
21
-23
0
LINE
8
BLACK
6
CONTINUOUS
10
188.55
20
-23
11
188.55
21
-25.5
0
LINE
8
BLACK
6
CONTINUOUS
10
188.55
20
-25.5
11
188.534
21
-25.6823
0
LINE
8
BLACK
6
CONTINUOUS
10
188.534
20
-25.6823
11
188.487
21
-25.8591
0
LINE
8
BLACK
6
CONTINUOUS
10
188.487
20
-25.8591
11
188.409
21
-26.025
0
LINE
8
BLACK
6
CONTINUOUS
10
188.409
20
-26.025
11
188.304
21
-26.1749
0
LINE
8
BLACK
6
CONTINUOUS
10
188.304
20
-26.1749
11
188.175
21
-26.3043
0
LINE
8
BLACK
6
CONTINUOUS
10
188.175
20
-26.3043
11
188.025
21
-26.4093
0
LINE
8
BLACK
6
CONTINUOUS
10
188.025
20
-26.4093
11
187.859
21
-26.4867
0
LINE
8
BLACK
6
CONTINUOUS
10
187.859
20
-26.4867
11
187.682
21
-26.534
0
LINE
8
BLACK
6
CONTINUOUS
10
187.682
20
-26.534
11
187.5
21
-26.55
0
LINE
8
BLACK
6
CONTINUOUS
10
187.5
20
-26.55
11
184
21
-26.55
0
LINE
8
BLACK
6
CONTINUOUS
10
184
20
-26.55
11
183.818
21
-26.534
0
LINE
8
BLACK
6
CONTINUOUS
10
183.818
20
-26.534
11
183.641
21
-26.4867
0
LINE
8
BLACK
6
CONTINUOUS
10
183.641
20
-26.4867
11
183.475
21
-26.4093
0
LINE
8
BLACK
6
CONTINUOUS
10
183.475
20
-26.4093
11
183.325
21
-26.3043
0
LINE
8
BLACK
6
CONTINUOUS
10
183.325
20
-26.3043
11
183.196
21
-26.1749
0
LINE
8
BLACK
6
CONTINUOUS
10
183.196
20
-26.1749
11
183.091
21
-26.025
0
LINE
8
BLACK
6
CONTINUOUS
10
183.091
20
-26.025
11
183.013
21
-25.8591
0
LINE
8
BLACK
6
CONTINUOUS
10
183.013
20
-25.8591
11
182.966
21
-25.6823
0
LINE
8
BLACK
6
CONTINUOUS
10
182.966
20
-25.6823
11
182.95
21
-25.5
0
LINE
8
BLACK
6
CONTINUOUS
10
182.95
20
-25.5
11
182.95
21
-23
0
LINE
8
BLACK
6
CONTINUOUS
10
182.95
20
-23
11
182.953
21
-22.9928
0
LINE
8
BLACK
6
CONTINUOUS
10
182.953
20
-22.9928
11
182.939
21
-22.8344
0
LINE
8
BLACK
6
CONTINUOUS
10
182.939
20
-22.8344
11
182.896
21
-22.6738
0
LINE
8
BLACK
6
CONTINUOUS
10
182.896
20
-22.6738
11
182.826
21
-22.5232
0
LINE
8
BLACK
6
CONTINUOUS
10
182.826
20
-22.5232
11
182.731
21
-22.387
0
LINE
8
BLACK
6
CONTINUOUS
10
182.731
20
-22.387
11
182.613
21
-22.2695
0
LINE
8
BLACK
6
CONTINUOUS
10
182.613
20
-22.2695
11
182.477
21
-22.1741
0
LINE
8
BLACK
6
CONTINUOUS
10
182.477
20
-22.1741
11
182.326
21
-22.1039
0
LINE
8
BLACK
6
CONTINUOUS
10
182.326
20
-22.1039
11
182.166
21
-22.0609
0
LINE
8
BLACK
6
CONTINUOUS
10
182.166
20
-22.0609
11
182.007
21
-22.047
0
LINE
8
BLACK
6
CONTINUOUS
10
182.007
20
-22.047
11
182
21
-22.05
0
LINE
8
BLACK
6
CONTINUOUS
10
182
20
-22.05
11
181
21
-22.05
0
LINE
8
BLACK
6
CONTINUOUS
10
181
20
-22.05
11
180.878
21
-22.0362
0
LINE
8
BLACK
6
CONTINUOUS
10
180.878
20
-22.0362
11
180.761
21
-21.9955
0
LINE
8
BLACK
6
CONTINUOUS
10
180.761
20
-21.9955
11
180.657
21
-21.93
0
LINE
8
BLACK
6
CONTINUOUS
10
180.657
20
-21.93
11
180.57
21
-21.8429
0
LINE
8
BLACK
6
CONTINUOUS
10
180.57
20
-21.8429
11
180.504
21
-21.7386
0
LINE
8
BLACK
6
CONTINUOUS
10
180.504
20
-21.7386
11
180.464
21
-21.6224
0
LINE
8
BLACK
6
CONTINUOUS
10
180.464
20
-21.6224
11
180.45
21
-21.5
0
LINE
8
BLACK
6
CONTINUOUS
10
180.45
20
-21.5
11
180.45
21
-21
0
LINE
8
BLACK
6
CONTINUOUS
10
180.45
20
-21
11
180.453
21
-20.9928
0
LINE
8
BLACK
6
CONTINUOUS
10
180.453
20
-20.9928
11
180.439
21
-20.8344
0
LINE
8
BLACK
6
CONTINUOUS
10
180.439
20
-20.8344
11
180.396
21
-20.6738
0
LINE
8
BLACK
6
CONTINUOUS
10
180.396
20
-20.6738
11
180.326
21
-20.5232
0
LINE
8
BLACK
6
CONTINUOUS
10
180.326
20
-20.5232
11
180.231
21
-20.387
0
LINE
8
BLACK
6
CONTINUOUS
10
180.231
20
-20.387
11
180.113
21
-20.2695
0
LINE
8
BLACK
6
CONTINUOUS
10
180.113
20
-20.2695
11
179.977
21
-20.1741
0
LINE
8
BLACK
6
CONTINUOUS
10
179.977
20
-20.1741
11
179.826
21
-20.1039
0
LINE
8
BLACK
6
CONTINUOUS
10
179.826
20
-20.1039
11
179.666
21
-20.0609
0
LINE
8
BLACK
6
CONTINUOUS
10
179.666
20
-20.0609
11
179.507
21
-20.047
0
LINE
8
BLACK
6
CONTINUOUS
10
179.507
20
-20.047
11
179.5
21
-20.05
0
LINE
8
BLACK
6
CONTINUOUS
10
179.5
20
-20.05
11
178.5
21
-20.05
0
LINE
8
BLACK
6
CONTINUOUS
10
178.5
20
-20.05
11
178.493
21
-20.047
0
LINE
8
BLACK
6
CONTINUOUS
10
178.493
20
-20.047
11
178.334
21
-20.0609
0
LINE
8
BLACK
6
CONTINUOUS
10
178.334
20
-20.0609
11
178.174
21
-20.1039
0
LINE
8
BLACK
6
CONTINUOUS
10
178.174
20
-20.1039
11
178.023
21
-20.1741
0
LINE
8
BLACK
6
CONTINUOUS
10
178.023
20
-20.1741
11
177.887
21
-20.2695
0
LINE
8
BLACK
6
CONTINUOUS
10
177.887
20
-20.2695
11
177.769
21
-20.387
0
LINE
8
BLACK
6
CONTINUOUS
10
177.769
20
-20.387
11
177.674
21
-20.5232
0
LINE
8
BLACK
6
CONTINUOUS
10
177.674
20
-20.5232
11
177.604
21
-20.6738
0
LINE
8
BLACK
6
CONTINUOUS
10
177.604
20
-20.6738
11
177.561
21
-20.8344
0
LINE
8
BLACK
6
CONTINUOUS
10
177.561
20
-20.8344
11
177.547
21
-20.9928
0
LINE
8
BLACK
6
CONTINUOUS
10
177.547
20
-20.9928
11
177.55
21
-21
0
LINE
8
BLACK
6
CONTINUOUS
10
177.55
20
-21
11
177.55
21
-23.5
0
LINE
8
BLACK
6
CONTINUOUS
10
177.55
20
-23.5
11
177.534
21
-23.6823
0
LINE
8
BLACK
6
CONTINUOUS
10
177.534
20
-23.6823
11
177.487
21
-23.8591
0
LINE
8
BLACK
6
CONTINUOUS
10
177.487
20
-23.8591
11
177.409
21
-24.025
0
LINE
8
BLACK
6
CONTINUOUS
10
177.409
20
-24.025
11
177.304
21
-24.1749
0
LINE
8
BLACK
6
CONTINUOUS
10
177.304
20
-24.1749
11
177.175
21
-24.3043
0
LINE
8
BLACK
6
CONTINUOUS
10
177.175
20
-24.3043
11
177.025
21
-24.4093
0
LINE
8
BLACK
6
CONTINUOUS
10
177.025
20
-24.4093
11
176.859
21
-24.4867
0
LINE
8
BLACK
6
CONTINUOUS
10
176.859
20
-24.4867
11
176.682
21
-24.534
0
LINE
8
BLACK
6
CONTINUOUS
10
176.682
20
-24.534
11
176.5
21
-24.55
0
LINE
8
BLACK
6
CONTINUOUS
10
176.5
20
-24.55
11
98
21
-24.55
0
LINE
8
BLACK
6
CONTINUOUS
10
98
20
-24.55
11
97.8177
21
-24.534
0
LINE
8
BLACK
6
CONTINUOUS
10
97.8177
20
-24.534
11
97.6409
21
-24.4867
0
LINE
8
BLACK
6
CONTINUOUS
10
97.6409
20
-24.4867
11
97.475
21
-24.4093
0
LINE
8
BLACK
6
CONTINUOUS
10
97.475
20
-24.4093
11
97.3251
21
-24.3043
0
LINE
8
BLACK
6
CONTINUOUS
10
97.3251
20
-24.3043
11
97.1957
21
-24.1749
0
LINE
8
BLACK
6
CONTINUOUS
10
97.1957
20
-24.1749
11
97.0907
21
-24.025
0
LINE
8
BLACK
6
CONTINUOUS
10
97.0907
20
-24.025
11
97.0133
21
-23.8591
0
LINE
8
BLACK
6
CONTINUOUS
10
97.0133
20
-23.8591
11
96.966
21
-23.6823
0
LINE
8
BLACK
6
CONTINUOUS
10
96.966
20
-23.6823
11
96.95
21
-23.5
0
LINE
8
BLACK
6
CONTINUOUS
10
96.95
20
-23.5
11
96.95
21
-21
0
LINE
8
BLACK
6
CONTINUOUS
10
96.95
20
-21
11
96.953
21
-20.9928
0
LINE
8
BLACK
6
CONTINUOUS
10
96.953
20
-20.9928
11
96.9391
21
-20.8344
0
LINE
8
BLACK
6
CONTINUOUS
10
96.9391
20
-20.8344
11
96.8961
21
-20.6738
0
LINE
8
BLACK
6
CONTINUOUS
10
96.8961
20
-20.6738
11
96.8259
21
-20.5232
0
LINE
8
BLACK
6
CONTINUOUS
10
96.8259
20
-20.5232
11
96.7305
21
-20.387
0
LINE
8
BLACK
6
CONTINUOUS
10
96.7305
20
-20.387
11
96.613
21
-20.2695
0
LINE
8
BLACK
6
CONTINUOUS
10
96.613
20
-20.2695
11
96.4768
21
-20.1741
0
LINE
8
BLACK
6
CONTINUOUS
10
96.4768
20
-20.1741
11
96.3262
21
-20.1039
0
LINE
8
BLACK
6
CONTINUOUS
10
96.3262
20
-20.1039
11
96.1656
21
-20.0609
0
LINE
8
BLACK
6
CONTINUOUS
10
96.1656
20
-20.0609
11
96.0072
21
-20.047
0
LINE
8
BLACK
6
CONTINUOUS
10
96.0072
20
-20.047
11
96
21
-20.05
0
LINE
8
BLACK
6
CONTINUOUS
10
96
20
-20.05
11
96
21
-20.05
0
LINE
8
BLACK
6
CONTINUOUS
10
96
20
-20.05
11
96
21
-20.05
0
LINE
8
BLACK
6
CONTINUOUS
10
96
20
-20.05
11
47
21
-20.045
0
LINE
8
BLACK
6
CONTINUOUS
10
47
20
-20.045
11
46.9919
21
-20.0417
0
LINE
8
BLACK
6
CONTINUOUS
10
46.9919
20
-20.0417
11
46.8246
21
-20.0571
0
LINE
8
BLACK
6
CONTINUOUS
10
46.8246
20
-20.0571
11
46.6552
21
-20.1051
0
LINE
8
BLACK
6
CONTINUOUS
10
46.6552
20
-20.1051
11
46.4973
21
-20.1832
0
LINE
8
BLACK
6
CONTINUOUS
10
46.4973
20
-20.1832
11
46.3565
21
-20.2889
0
LINE
8
BLACK
6
CONTINUOUS
10
46.3565
20
-20.2889
11
46.2373
21
-20.4186
0
LINE
8
BLACK
6
CONTINUOUS
10
46.2373
20
-20.4186
11
46.1438
21
-20.5678
0
LINE
8
BLACK
6
CONTINUOUS
10
46.1438
20
-20.5678
11
46.0792
21
-20.7317
0
LINE
8
BLACK
6
CONTINUOUS
10
46.0792
20
-20.7317
11
46.0477
21
-20.8944
0
LINE
8
BLACK
6
CONTINUOUS
10
46.0477
20
-20.8944
11
46.05
21
-20.9
0
LINE
8
BLACK
6
CONTINUOUS
10
46.05
20
-20.9
11
46.05
21
-21.5
0
LINE
8
BLACK
6
CONTINUOUS
10
46.05
20
-21.5
11
46.0362
21
-21.6224
0
LINE
8
BLACK
6
CONTINUOUS
10
46.0362
20
-21.6224
11
45.9955
21
-21.7386
0
LINE
8
BLACK
6
CONTINUOUS
10
45.9955
20
-21.7386
11
45.93
21
-21.8429
0
LINE
8
BLACK
6
CONTINUOUS
10
45.93
20
-21.8429
11
45.8429
21
-21.93
0
LINE
8
BLACK
6
CONTINUOUS
10
45.8429
20
-21.93
11
45.7386
21
-21.9955
0
LINE
8
BLACK
6
CONTINUOUS
10
45.7386
20
-21.9955
11
45.6224
21
-22.0362
0
LINE
8
BLACK
6
CONTINUOUS
10
45.6224
20
-22.0362
11
45.5
21
-22.05
0
LINE
8
BLACK
6
CONTINUOUS
10
45.5
20
-22.05
11
44.5
21
-22.05
0
LINE
8
BLACK
6
CONTINUOUS
10
44.5
20
-22.05
11
44.4928
21
-22.047
0
LINE
8
BLACK
6
CONTINUOUS
10
44.4928
20
-22.047
11
44.3344
21
-22.0609
0
LINE
8
BLACK
6
CONTINUOUS
10
44.3344
20
-22.0609
11
44.1738
21
-22.1039
0
LINE
8
BLACK
6
CONTINUOUS
10
44.1738
20
-22.1039
11
44.0232
21
-22.1741
0
LINE
8
BLACK
6
CONTINUOUS
10
44.0232
20
-22.1741
11
43.887
21
-22.2695
0
LINE
8
BLACK
6
CONTINUOUS
10
43.887
20
-22.2695
11
43.7695
21
-22.387
0
LINE
8
BLACK
6
CONTINUOUS
10
43.7695
20
-22.387
11
43.6741
21
-22.5232
0
LINE
8
BLACK
6
CONTINUOUS
10
43.6741
20
-22.5232
11
43.6039
21
-22.6738
0
LINE
8
BLACK
6
CONTINUOUS
10
43.6039
20
-22.6738
11
43.5609
21
-22.8344
0
LINE
8
BLACK
6
CONTINUOUS
10
43.5609
20
-22.8344
11
43.547
21
-22.9928
0
LINE
8
BLACK
6
CONTINUOUS
10
43.547
20
-22.9928
11
43.55
21
-23
0
LINE
8
BLACK
6
CONTINUOUS
10
43.55
20
-23
11
43.55
21
-25.5
0
LINE
8
BLACK
6
CONTINUOUS
10
43.55
20
-25.5
11
43.534
21
-25.6823
0
LINE
8
BLACK
6
CONTINUOUS
10
43.534
20
-25.6823
11
43.4867
21
-25.8591
0
LINE
8
BLACK
6
CONTINUOUS
10
43.4867
20
-25.8591
11
43.4093
21
-26.025
0
LINE
8
BLACK
6
CONTINUOUS
10
43.4093
20
-26.025
11
43.3043
21
-26.1749
0
LINE
8
BLACK
6
CONTINUOUS
10
43.3043
20
-26.1749
11
43.1749
21
-26.3043
0
LINE
8
BLACK
6
CONTINUOUS
10
43.1749
20
-26.3043
11
43.025
21
-26.4093
0
LINE
8
BLACK
6
CONTINUOUS
10
43.025
20
-26.4093
11
42.8591
21
-26.4867
0
LINE
8
BLACK
6
CONTINUOUS
10
42.8591
20
-26.4867
11
42.6823
21
-26.534
0
LINE
8
BLACK
6
CONTINUOUS
10
42.6823
20
-26.534
11
42.5
21
-26.55
0
LINE
8
BLACK
6
CONTINUOUS
10
42.5
20
-26.55
11
39
21
-26.55
0
LINE
8
BLACK
6
CONTINUOUS
10
39
20
-26.55
11
38.8177
21
-26.534
0
LINE
8
BLACK
6
CONTINUOUS
10
38.8177
20
-26.534
11
38.6409
21
-26.4867
0
LINE
8
BLACK
6
CONTINUOUS
10
38.6409
20
-26.4867
11
38.475
21
-26.4093
0
LINE
8
BLACK
6
CONTINUOUS
10
38.475
20
-26.4093
11
38.3251
21
-26.3043
0
LINE
8
BLACK
6
CONTINUOUS
10
38.3251
20
-26.3043
11
38.1957
21
-26.1749
0
LINE
8
BLACK
6
CONTINUOUS
10
38.1957
20
-26.1749
11
38.0907
21
-26.025
0
LINE
8
BLACK
6
CONTINUOUS
10
38.0907
20
-26.025
11
38.0133
21
-25.8591
0
LINE
8
BLACK
6
CONTINUOUS
10
38.0133
20
-25.8591
11
37.966
21
-25.6823
0
LINE
8
BLACK
6
CONTINUOUS
10
37.966
20
-25.6823
11
37.95
21
-25.5
0
LINE
8
BLACK
6
CONTINUOUS
10
37.95
20
-25.5
11
37.95
21
-23
0
LINE
8
BLACK
6
CONTINUOUS
10
37.95
20
-23
11
37.953
21
-22.9928
0
LINE
8
BLACK
6
CONTINUOUS
10
37.953
20
-22.9928
11
37.9391
21
-22.8344
0
LINE
8
BLACK
6
CONTINUOUS
10
37.9391
20
-22.8344
11
37.8961
21
-22.6738
0
LINE
8
BLACK
6
CONTINUOUS
10
37.8961
20
-22.6738
11
37.8259
21
-22.5232
0
LINE
8
BLACK
6
CONTINUOUS
10
37.8259
20
-22.5232
11
37.7305
21
-22.387
0
LINE
8
BLACK
6
CONTINUOUS
10
37.7305
20
-22.387
11
37.613
21
-22.2695
0
LINE
8
BLACK
6
CONTINUOUS
10
37.613
20
-22.2695
11
37.4768
21
-22.1741
0
LINE
8
BLACK
6
CONTINUOUS
10
37.4768
20
-22.1741
11
37.3262
21
-22.1039
0
LINE
8
BLACK
6
CONTINUOUS
10
37.3262
20
-22.1039
11
37.1656
21
-22.0609
0
LINE
8
BLACK
6
CONTINUOUS
10
37.1656
20
-22.0609
11
37.0072
21
-22.047
0
LINE
8
BLACK
6
CONTINUOUS
10
37.0072
20
-22.047
11
37
21
-22.05
0
LINE
8
BLACK
6
CONTINUOUS
10
37
20
-22.05
11
36
21
-22.05
0
LINE
8
BLACK
6
CONTINUOUS
10
36
20
-22.05
11
35.8776
21
-22.0362
0
LINE
8
BLACK
6
CONTINUOUS
10
35.8776
20
-22.0362
11
35.7614
21
-21.9955
0
LINE
8
BLACK
6
CONTINUOUS
10
35.7614
20
-21.9955
11
35.6571
21
-21.93
0
LINE
8
BLACK
6
CONTINUOUS
10
35.6571
20
-21.93
11
35.57
21
-21.8429
0
LINE
8
BLACK
6
CONTINUOUS
10
35.57
20
-21.8429
11
35.5045
21
-21.7386
0
LINE
8
BLACK
6
CONTINUOUS
10
35.5045
20
-21.7386
11
35.4638
21
-21.6224
0
LINE
8
BLACK
6
CONTINUOUS
10
35.4638
20
-21.6224
11
35.45
21
-21.5
0
LINE
8
BLACK
6
CONTINUOUS
10
35.45
20
-21.5
11
35.45
21
-21
0
LINE
8
BLACK
6
CONTINUOUS
10
35.45
20
-21
11
35.453
21
-20.9928
0
LINE
8
BLACK
6
CONTINUOUS
10
35.453
20
-20.9928
11
35.4391
21
-20.8344
0
LINE
8
BLACK
6
CONTINUOUS
10
35.4391
20
-20.8344
11
35.3961
21
-20.6738
0
LINE
8
BLACK
6
CONTINUOUS
10
35.3961
20
-20.6738
11
35.3259
21
-20.5232
0
LINE
8
BLACK
6
CONTINUOUS
10
35.3259
20
-20.5232
11
35.2305
21
-20.387
0
LINE
8
BLACK
6
CONTINUOUS
10
35.2305
20
-20.387
11
35.113
21
-20.2695
0
LINE
8
BLACK
6
CONTINUOUS
10
35.113
20
-20.2695
11
34.9768
21
-20.1741
0
LINE
8
BLACK
6
CONTINUOUS
10
34.9768
20
-20.1741
11
34.8262
21
-20.1039
0
LINE
8
BLACK
6
CONTINUOUS
10
34.8262
20
-20.1039
11
34.6656
21
-20.0609
0
LINE
8
BLACK
6
CONTINUOUS
10
34.6656
20
-20.0609
11
34.5072
21
-20.047
0
LINE
8
BLACK
6
CONTINUOUS
10
34.5072
20
-20.047
11
34.5
21
-20.05
0
LINE
8
BLACK
6
CONTINUOUS
10
34.5
20
-20.05
11
22
21
-20.05
0
LINE
8
BLACK
6
CONTINUOUS
10
22
20
-20.05
11
21.9913
21
-20.0464
0
LINE
8
BLACK
6
CONTINUOUS
10
21.9913
20
-20.0464
11
21.7449
21
-20.0625
0
LINE
8
BLACK
6
CONTINUOUS
10
21.7449
20
-20.0625
11
21.4942
21
-20.1124
0
LINE
8
BLACK
6
CONTINUOUS
10
21.4942
20
-20.1124
11
21.2522
21
-20.1946
0
LINE
8
BLACK
6
CONTINUOUS
10
21.2522
20
-20.1946
11
21.0229
21
-20.3076
0
LINE
8
BLACK
6
CONTINUOUS
10
21.0229
20
-20.3076
11
20.8104
21
-20.4496
0
LINE
8
BLACK
6
CONTINUOUS
10
20.8104
20
-20.4496
11
20.6182
21
-20.6182
0
LINE
8
BLACK
6
CONTINUOUS
10
20.6182
20
-20.6182
11
20.4496
21
-20.8104
0
LINE
8
BLACK
6
CONTINUOUS
10
20.4496
20
-20.8104
11
20.3076
21
-21.0229
0
LINE
8
BLACK
6
CONTINUOUS
10
20.3076
20
-21.0229
11
20.1946
21
-21.2522
0
LINE
8
BLACK
6
CONTINUOUS
10
20.1946
20
-21.2522
11
20.1124
21
-21.4942
0
LINE
8
BLACK
6
CONTINUOUS
10
20.1124
20
-21.4942
11
20.0625
21
-21.7449
0
LINE
8
BLACK
6
CONTINUOUS
10
20.0625
20
-21.7449
11
20.0464
21
-21.9913
0
LINE
8
BLACK
6
CONTINUOUS
10
20.0464
20
-21.9913
11
20.0481
21
-21.9955
0
LINE
8
BLACK
6
CONTINUOUS
10
20.0481
20
-21.9955
11
20.05
21
-22
0
LINE
8
BLACK
6
CONTINUOUS
10
20.05
20
-22
11
20.05
21
-28.5
0
LINE
8
BLACK
6
CONTINUOUS
10
20.05
20
-28.5
11
20.0464
21
-28.5087
0
LINE
8
BLACK
6
CONTINUOUS
10
20.0464
20
-28.5087
11
20.0625
21
-28.7551
0
LINE
8
BLACK
6
CONTINUOUS
10
20.0625
20
-28.7551
11
20.1124
21
-29.0058
0
LINE
8
BLACK
6
CONTINUOUS
10
20.1124
20
-29.0058
11
20.1946
21
-29.2478
0
LINE
8
BLACK
6
CONTINUOUS
10
20.1946
20
-29.2478
11
20.3076
21
-29.4771
0
LINE
8
BLACK
6
CONTINUOUS
10
20.3076
20
-29.4771
11
20.4496
21
-29.6896
0
LINE
8
BLACK
6
CONTINUOUS
10
20.4496
20
-29.6896
11
20.6182
21
-29.8818
0
LINE
8
BLACK
6
CONTINUOUS
10
20.6182
20
-29.8818
11
20.8104
21
-30.0504
0
LINE
8
BLACK
6
CONTINUOUS
10
20.8104
20
-30.0504
11
21.0229
21
-30.1924
0
LINE
8
BLACK
6
CONTINUOUS
10
21.0229
20
-30.1924
11
21.2522
21
-30.3054
0
LINE
8
BLACK
6
CONTINUOUS
10
21.2522
20
-30.3054
11
21.4942
21
-30.3876
0
LINE
8
BLACK
6
CONTINUOUS
10
21.4942
20
-30.3876
11
21.7449
21
-30.4375
0
LINE
8
BLACK
6
CONTINUOUS
10
21.7449
20
-30.4375
11
21.9913
21
-30.4536
0
LINE
8
BLACK
6
CONTINUOUS
10
21.9913
20
-30.4536
11
22
21
-30.45
0
LINE
8
BLACK
6
CONTINUOUS
10
22
20
-30.45
11
31
21
-30.45
0
LINE
8
BLACK
6
CONTINUOUS
10
31
20
-30.45
11
31.2676
21
-30.4675
0
LINE
8
BLACK
6
CONTINUOUS
10
31.2676
20
-30.4675
11
31.5306
21
-30.5199
0
LINE
8
BLACK
6
CONTINUOUS
10
31.5306
20
-30.5199
11
31.7845
21
-30.606
0
LINE
8
BLACK
6
CONTINUOUS
10
31.7845
20
-30.606
11
32.025
21
-30.7246
0
LINE
8
BLACK
6
CONTINUOUS
10
32.025
20
-30.7246
11
32.248
21
-30.8736
0
LINE
8
BLACK
6
CONTINUOUS
10
32.248
20
-30.8736
11
32.4496
21
-31.0504
0
LINE
8
BLACK
6
CONTINUOUS
10
32.4496
20
-31.0504
11
32.6264
21
-31.252
0
LINE
8
BLACK
6
CONTINUOUS
10
32.6264
20
-31.252
11
32.7754
21
-31.475
0
LINE
8
BLACK
6
CONTINUOUS
10
32.7754
20
-31.475
11
32.894
21
-31.7155
0
LINE
8
BLACK
6
CONTINUOUS
10
32.894
20
-31.7155
11
32.9801
21
-31.9694
0
LINE
8
BLACK
6
CONTINUOUS
10
32.9801
20
-31.9694
11
33.0325
21
-32.2324
0
LINE
8
BLACK
6
CONTINUOUS
10
33.0325
20
-32.2324
11
33.05
21
-32.5
0
LINE
8
BLACK
6
CONTINUOUS
10
33.05
20
-32.5
11
33.05
21
-43
0
LINE
8
BLACK
6
CONTINUOUS
10
33.05
20
-43
11
33.0464
21
-43.0087
0
LINE
8
BLACK
6
CONTINUOUS
10
33.0464
20
-43.0087
11
33.0625
21
-43.2551
0
LINE
8
BLACK
6
CONTINUOUS
10
33.0625
20
-43.2551
11
33.1124
21
-43.5058
0
LINE
8
BLACK
6
CONTINUOUS
10
33.1124
20
-43.5058
11
33.1946
21
-43.7478
0
LINE
8
BLACK
6
CONTINUOUS
10
33.1946
20
-43.7478
11
33.3076
21
-43.9771
0
LINE
8
BLACK
6
CONTINUOUS
10
33.3076
20
-43.9771
11
33.4496
21
-44.1896
0
LINE
8
BLACK
6
CONTINUOUS
10
33.4496
20
-44.1896
11
33.6182
21
-44.3818
0
LINE
8
BLACK
6
CONTINUOUS
10
33.6182
20
-44.3818
11
33.8104
21
-44.5504
0
LINE
8
BLACK
6
CONTINUOUS
10
33.8104
20
-44.5504
11
34.0229
21
-44.6924
0
LINE
8
BLACK
6
CONTINUOUS
10
34.0229
20
-44.6924
11
34.2522
21
-44.8054
0
LINE
8
BLACK
6
CONTINUOUS
10
34.2522
20
-44.8054
11
34.4942
21
-44.8876
0
LINE
8
BLACK
6
CONTINUOUS
10
34.4942
20
-44.8876
11
34.7449
21
-44.9375
0
LINE
8
BLACK
6
CONTINUOUS
10
34.7449
20
-44.9375
11
34.9913
21
-44.9536
0
LINE
8
BLACK
6
CONTINUOUS
10
34.9913
20
-44.9536
11
35
21
-44.95
0
LINE
8
BLACK
6
CONTINUOUS
10
35
20
-44.95
11
50.1
21
-44.95
0
LINE
8
BLACK
6
CONTINUOUS
10
50.1
20
-44.95
11
50.1012
21
-44.9505
0
LINE
8
BLACK
6
CONTINUOUS
10
50.1012
20
-44.9505
11
50.1025
21
-44.9501
0
LINE
8
BLACK
6
CONTINUOUS
10
50.1025
20
-44.9501
11
50.1025
21
-44.9501
0
LINE
8
BLACK
6
CONTINUOUS
10
50.1025
20
-44.9501
11
50.3608
21
-44.9795
0
LINE
8
BLACK
6
CONTINUOUS
10
50.3608
20
-44.9795
11
50.6133
21
-45.0413
0
LINE
8
BLACK
6
CONTINUOUS
10
50.6133
20
-45.0413
11
50.8559
21
-45.1345
0
LINE
8
BLACK
6
CONTINUOUS
10
50.8559
20
-45.1345
11
51.0849
21
-45.2576
0
LINE
8
BLACK
6
CONTINUOUS
10
51.0849
20
-45.2576
11
51.2964
21
-45.4087
0
LINE
8
BLACK
6
CONTINUOUS
10
51.2964
20
-45.4087
11
51.4871
21
-45.5854
0
LINE
8
BLACK
6
CONTINUOUS
10
51.4871
20
-45.5854
11
51.654
21
-45.7847
0
LINE
8
BLACK
6
CONTINUOUS
10
51.654
20
-45.7847
11
51.7944
21
-46.0035
0
LINE
8
BLACK
6
CONTINUOUS
10
51.7944
20
-46.0035
11
51.9059
21
-46.2383
0
LINE
8
BLACK
6
CONTINUOUS
10
51.9059
20
-46.2383
11
51.9869
21
-46.4853
0
LINE
8
BLACK
6
CONTINUOUS
10
51.9869
20
-46.4853
11
52.036
21
-46.7406
0
LINE
8
BLACK
6
CONTINUOUS
10
52.036
20
-46.7406
11
52.0525
21
-47
0
LINE
8
BLACK
6
CONTINUOUS
10
52.0525
20
-47
11
52.0525
21
-47
0
LINE
8
BLACK
6
CONTINUOUS
10
52.0525
20
-47
11
52.0525
21
-47
0
LINE
8
BLACK
6
CONTINUOUS
10
52.0525
20
-47
11
52.05
21
-50.5
0
LINE
8
BLACK
6
CONTINUOUS
10
52.05
20
-50.5
11
52.05
21
-50.5
0
LINE
8
BLACK
6
CONTINUOUS
10
52.05
20
-50.5
11
52.0325
21
-50.7676
0
LINE
8
BLACK
6
CONTINUOUS
10
52.0325
20
-50.7676
11
51.9801
21
-51.0306
0
LINE
8
BLACK
6
CONTINUOUS
10
51.9801
20
-51.0306
11
51.894
21
-51.2845
0
LINE
8
BLACK
6
CONTINUOUS
10
51.894
20
-51.2845
11
51.7754
21
-51.525
0
LINE
8
BLACK
6
CONTINUOUS
10
51.7754
20
-51.525
11
51.6264
21
-51.748
0
LINE
8
BLACK
6
CONTINUOUS
10
51.6264
20
-51.748
11
51.4496
21
-51.9496
0
LINE
8
BLACK
6
CONTINUOUS
10
51.4496
20
-51.9496
11
51.248
21
-52.1264
0
LINE
8
BLACK
6
CONTINUOUS
10
51.248
20
-52.1264
11
51.025
21
-52.2754
0
LINE
8
BLACK
6
CONTINUOUS
10
51.025
20
-52.2754
11
50.7845
21
-52.394
0
LINE
8
BLACK
6
CONTINUOUS
10
50.7845
20
-52.394
11
50.5306
21
-52.4801
0
LINE
8
BLACK
6
CONTINUOUS
10
50.5306
20
-52.4801
11
50.2676
21
-52.5325
0
LINE
8
BLACK
6
CONTINUOUS
10
50.2676
20
-52.5325
11
50
21
-52.55
0
LINE
8
BLACK
6
CONTINUOUS
10
50
20
-52.55
11
40.9
21
-52.55
0
LINE
8
BLACK
6
CONTINUOUS
10
40.9
20
-52.55
11
40.8744
21
-52.5394
0
LINE
8
BLACK
6
CONTINUOUS
10
40.8744
20
-52.5394
11
40.7799
21
-52.5518
0
LINE
8
BLACK
6
CONTINUOUS
10
40.7799
20
-52.5518
11
40.668
21
-52.5982
0
LINE
8
BLACK
6
CONTINUOUS
10
40.668
20
-52.5982
11
40.5719
21
-52.6719
0
LINE
8
BLACK
6
CONTINUOUS
10
40.5719
20
-52.6719
11
40.4982
21
-52.768
0
LINE
8
BLACK
6
CONTINUOUS
10
40.4982
20
-52.768
11
40.4518
21
-52.8799
0
LINE
8
BLACK
6
CONTINUOUS
10
40.4518
20
-52.8799
11
40.437
21
-52.9927
0
LINE
8
BLACK
6
CONTINUOUS
10
40.437
20
-52.9927
11
40.44
21
-53
0
LINE
8
BLACK
6
CONTINUOUS
10
40.44
20
-53
11
40.4378
21
-53.0054
0
LINE
8
BLACK
6
CONTINUOUS
10
40.4378
20
-53.0054
11
40.4387
21
-53.0111
0
LINE
8
BLACK
6
CONTINUOUS
10
40.4387
20
-53.0111
11
40.33
21
-53.4049
0
LINE
8
BLACK
6
CONTINUOUS
10
40.33
20
-53.4049
11
40.1864
21
-53.7873
0
LINE
8
BLACK
6
CONTINUOUS
10
40.1864
20
-53.7873
11
40.0092
21
-54.1554
0
LINE
8
BLACK
6
CONTINUOUS
10
40.0092
20
-54.1554
11
39.7996
21
-54.506
0
LINE
8
BLACK
6
CONTINUOUS
10
39.7996
20
-54.506
11
39.5595
21
-54.8365
0
LINE
8
BLACK
6
CONTINUOUS
10
39.5595
20
-54.8365
11
39.2907
21
-55.1441
0
LINE
8
BLACK
6
CONTINUOUS
10
39.2907
20
-55.1441
11
38.9954
21
-55.4264
0
LINE
8
BLACK
6
CONTINUOUS
10
38.9954
20
-55.4264
11
38.676
21
-55.6811
0
LINE
8
BLACK
6
CONTINUOUS
10
38.676
20
-55.6811
11
38.3351
21
-55.9061
0
LINE
8
BLACK
6
CONTINUOUS
10
38.3351
20
-55.9061
11
37.9753
21
-56.0997
0
LINE
8
BLACK
6
CONTINUOUS
10
37.9753
20
-56.0997
11
37.5997
21
-56.2602
0
LINE
8
BLACK
6
CONTINUOUS
10
37.5997
20
-56.2602
11
37.2112
21
-56.3864
0
LINE
8
BLACK
6
CONTINUOUS
10
37.2112
20
-56.3864
11
36.8129
21
-56.4773
0
LINE
8
BLACK
6
CONTINUOUS
10
36.8129
20
-56.4773
11
36.4081
21
-56.5322
0
LINE
8
BLACK
6
CONTINUOUS
10
36.4081
20
-56.5322
11
36
21
-56.5505
0
LINE
8
BLACK
6
CONTINUOUS
10
36
20
-56.5505
11
35.5919
21
-56.5322
0
LINE
8
BLACK
6
CONTINUOUS
10
35.5919
20
-56.5322
11
35.1871
21
-56.4773
0
LINE
8
BLACK
6
CONTINUOUS
10
35.1871
20
-56.4773
11
34.7888
21
-56.3864
0
LINE
8
BLACK
6
CONTINUOUS
10
34.7888
20
-56.3864
11
34.4003
21
-56.2602
0
LINE
8
BLACK
6
CONTINUOUS
10
34.4003
20
-56.2602
11
34.0247
21
-56.0997
0
LINE
8
BLACK
6
CONTINUOUS
10
34.0247
20
-56.0997
11
33.6649
21
-55.9061
0
LINE
8
BLACK
6
CONTINUOUS
10
33.6649
20
-55.9061
11
33.324
21
-55.6811
0
LINE
8
BLACK
6
CONTINUOUS
10
33.324
20
-55.6811
11
33.0046
21
-55.4264
0
LINE
8
BLACK
6
CONTINUOUS
10
33.0046
20
-55.4264
11
32.7093
21
-55.1441
0
LINE
8
BLACK
6
CONTINUOUS
10
32.7093
20
-55.1441
11
32.4405
21
-54.8365
0
LINE
8
BLACK
6
CONTINUOUS
10
32.4405
20
-54.8365
11
32.2004
21
-54.506
0
LINE
8
BLACK
6
CONTINUOUS
10
32.2004
20
-54.506
11
31.9908
21
-54.1554
0
LINE
8
BLACK
6
CONTINUOUS
10
31.9908
20
-54.1554
11
31.8136
21
-53.7873
0
LINE
8
BLACK
6
CONTINUOUS
10
31.8136
20
-53.7873
11
31.67
21
-53.4049
0
LINE
8
BLACK
6
CONTINUOUS
10
31.67
20
-53.4049
11
31.5684
21
-53.0369
0
LINE
8
BLACK
6
CONTINUOUS
10
31.5684
20
-53.0369
11
31.5647
21
-53.0354
0
LINE
8
BLACK
6
CONTINUOUS
10
31.5647
20
-53.0354
11
31.55
21
-53
0
LINE
8
BLACK
6
CONTINUOUS
10
31.55
20
-53
11
31.553
21
-52.9929
0
LINE
8
BLACK
6
CONTINUOUS
10
31.553
20
-52.9929
11
31.5387
21
-52.8835
0
LINE
8
BLACK
6
CONTINUOUS
10
31.5387
20
-52.8835
11
31.4941
21
-52.7747
0
LINE
8
BLACK
6
CONTINUOUS
10
31.4941
20
-52.7747
11
31.423
21
-52.6811
0
LINE
8
BLACK
6
CONTINUOUS
10
31.423
20
-52.6811
11
31.3303
21
-52.6089
0
LINE
8
BLACK
6
CONTINUOUS
10
31.3303
20
-52.6089
11
31.2222
21
-52.5628
0
LINE
8
BLACK
6
CONTINUOUS
10
31.2222
20
-52.5628
11
31.1133
21
-52.5472
0
LINE
8
BLACK
6
CONTINUOUS
10
31.1133
20
-52.5472
11
31.1064
21
-52.55
0
LINE
8
BLACK
6
CONTINUOUS
10
31.1064
20
-52.55
11
22
21
-52.55
0
LINE
8
BLACK
6
CONTINUOUS
10
22
20
-52.55
11
21.9913
21
-52.5464
0
LINE
8
BLACK
6
CONTINUOUS
10
21.9913
20
-52.5464
11
21.7449
21
-52.5625
0
LINE
8
BLACK
6
CONTINUOUS
10
21.7449
20
-52.5625
11
21.4942
21
-52.6124
0
LINE
8
BLACK
6
CONTINUOUS
10
21.4942
20
-52.6124
11
21.2522
21
-52.6946
0
LINE
8
BLACK
6
CONTINUOUS
10
21.2522
20
-52.6946
11
21.0229
21
-52.8076
0
LINE
8
BLACK
6
CONTINUOUS
10
21.0229
20
-52.8076
11
20.8104
21
-52.9496
0
LINE
8
BLACK
6
CONTINUOUS
10
20.8104
20
-52.9496
11
20.6182
21
-53.1182
0
LINE
8
BLACK
6
CONTINUOUS
10
20.6182
20
-53.1182
11
20.4496
21
-53.3104
0
LINE
8
BLACK
6
CONTINUOUS
10
20.4496
20
-53.3104
11
20.3076
21
-53.5229
0
LINE
8
BLACK
6
CONTINUOUS
10
20.3076
20
-53.5229
11
20.1946
21
-53.7522
0
LINE
8
BLACK
6
CONTINUOUS
10
20.1946
20
-53.7522
11
20.1124
21
-53.9942
0
LINE
8
BLACK
6
CONTINUOUS
10
20.1124
20
-53.9942
11
20.0625
21
-54.2449
0
LINE
8
BLACK
6
CONTINUOUS
10
20.0625
20
-54.2449
11
20.0464
21
-54.4913
0
LINE
8
BLACK
6
CONTINUOUS
10
20.0464
20
-54.4913
11
20.05
21
-54.5
0
LINE
8
BLACK
6
CONTINUOUS
10
20.05
20
-54.5
11
20.05
21
-83.5
0
LINE
8
BLACK
6
CONTINUOUS
10
20.05
20
-83.5
11
20.0464
21
-83.5087
0
LINE
8
BLACK
6
CONTINUOUS
10
20.0464
20
-83.5087
11
20.0625
21
-83.7551
0
LINE
8
BLACK
6
CONTINUOUS
10
20.0625
20
-83.7551
11
20.1124
21
-84.0058
0
LINE
8
BLACK
6
CONTINUOUS
10
20.1124
20
-84.0058
11
20.1946
21
-84.2478
0
LINE
8
BLACK
6
CONTINUOUS
10
20.1946
20
-84.2478
11
20.3076
21
-84.4771
0
LINE
8
BLACK
6
CONTINUOUS
10
20.3076
20
-84.4771
11
20.4496
21
-84.6896
0
LINE
8
BLACK
6
CONTINUOUS
10
20.4496
20
-84.6896
11
20.6182
21
-84.8818
0
LINE
8
BLACK
6
CONTINUOUS
10
20.6182
20
-84.8818
11
20.8104
21
-85.0504
0
LINE
8
BLACK
6
CONTINUOUS
10
20.8104
20
-85.0504
11
21.0229
21
-85.1924
0
LINE
8
BLACK
6
CONTINUOUS
10
21.0229
20
-85.1924
11
21.2522
21
-85.3054
0
LINE
8
BLACK
6
CONTINUOUS
10
21.2522
20
-85.3054
11
21.4942
21
-85.3876
0
LINE
8
BLACK
6
CONTINUOUS
10
21.4942
20
-85.3876
11
21.7449
21
-85.4375
0
LINE
8
BLACK
6
CONTINUOUS
10
21.7449
20
-85.4375
11
21.9913
21
-85.4536
0
LINE
8
BLACK
6
CONTINUOUS
10
21.9913
20
-85.4536
11
22
21
-85.45
0
LINE
8
BLACK
6
CONTINUOUS
10
22
20
-85.45
11
34.5
21
-85.45
0
LINE
8
BLACK
6
CONTINUOUS
10
34.5
20
-85.45
11
34.5081
21
-85.4533
0
LINE
8
BLACK
6
CONTINUOUS
10
34.5081
20
-85.4533
11
34.6754
21
-85.4379
0
LINE
8
BLACK
6
CONTINUOUS
10
34.6754
20
-85.4379
11
34.8448
21
-85.3899
0
LINE
8
BLACK
6
CONTINUOUS
10
34.8448
20
-85.3899
11
35.0027
21
-85.3118
0
LINE
8
BLACK
6
CONTINUOUS
10
35.0027
20
-85.3118
11
35.1435
21
-85.2061
0
LINE
8
BLACK
6
CONTINUOUS
10
35.1435
20
-85.2061
11
35.2627
21
-85.0765
0
LINE
8
BLACK
6
CONTINUOUS
10
35.2627
20
-85.0765
11
35.3562
21
-84.9272
0
LINE
8
BLACK
6
CONTINUOUS
10
35.3562
20
-84.9272
11
35.4208
21
-84.7633
0
LINE
8
BLACK
6
CONTINUOUS
10
35.4208
20
-84.7633
11
35.4523
21
-84.6007
0
LINE
8
BLACK
6
CONTINUOUS
10
35.4523
20
-84.6007
11
35.45
21
-84.595
0
LINE
8
BLACK
6
CONTINUOUS
10
35.45
20
-84.595
11
35.45
21
-83.995
0
LINE
8
BLACK
6
CONTINUOUS
10
35.45
20
-83.995
11
35.4638
21
-83.8726
0
LINE
8
BLACK
6
CONTINUOUS
10
35.4638
20
-83.8726
11
35.5045
21
-83.7564
0
LINE
8
BLACK
6
CONTINUOUS
10
35.5045
20
-83.7564
11
35.57
21
-83.6521
0
LINE
8
BLACK
6
CONTINUOUS
10
35.57
20
-83.6521
11
35.6571
21
-83.565
0
LINE
8
BLACK
6
CONTINUOUS
10
35.6571
20
-83.565
11
35.7614
21
-83.4995
0
LINE
8
BLACK
6
CONTINUOUS
10
35.7614
20
-83.4995
11
35.8776
21
-83.4588
0
LINE
8
BLACK
6
CONTINUOUS
10
35.8776
20
-83.4588
11
36
21
-83.445
0
LINE
8
BLACK
6
CONTINUOUS
10
36
20
-83.445
11
36
21
-83.445
0
LINE
8
BLACK
6
CONTINUOUS
10
36
20
-83.445
11
37
21
-83.445
0
LINE
8
BLACK
6
CONTINUOUS
10
37
20
-83.445
11
37.0072
21
-83.448
0
LINE
8
BLACK
6
CONTINUOUS
10
37.0072
20
-83.448
11
37.1656
21
-83.4341
0
LINE
8
BLACK
6
CONTINUOUS
10
37.1656
20
-83.4341
11
37.3262
21
-83.3911
0
LINE
8
BLACK
6
CONTINUOUS
10
37.3262
20
-83.3911
11
37.4768
21
-83.3209
0
LINE
8
BLACK
6
CONTINUOUS
10
37.4768
20
-83.3209
11
37.613
21
-83.2255
0
LINE
8
BLACK
6
CONTINUOUS
10
37.613
20
-83.2255
11
37.7305
21
-83.108
0
LINE
8
BLACK
6
CONTINUOUS
10
37.7305
20
-83.108
11
37.8259
21
-82.9718
0
LINE
8
BLACK
6
CONTINUOUS
10
37.8259
20
-82.9718
11
37.8961
21
-82.8212
0
LINE
8
BLACK
6
CONTINUOUS
10
37.8961
20
-82.8212
11
37.9391
21
-82.6606
0
LINE
8
BLACK
6
CONTINUOUS
10
37.9391
20
-82.6606
11
37.953
21
-82.5022
0
LINE
8
BLACK
6
CONTINUOUS
10
37.953
20
-82.5022
11
37.95
21
-82.495
0
LINE
8
BLACK
6
CONTINUOUS
10
37.95
20
-82.495
11
37.95
21
-77.5
0
LINE
8
BLACK
6
CONTINUOUS
10
37.95
20
-77.5
11
37.9675
21
-77.2324
0
LINE
8
BLACK
6
CONTINUOUS
10
37.9675
20
-77.2324
11
38.0199
21
-76.9694
0
LINE
8
BLACK
6
CONTINUOUS
10
38.0199
20
-76.9694
11
38.106
21
-76.7155
0
LINE
8
BLACK
6
CONTINUOUS
10
38.106
20
-76.7155
11
38.2246
21
-76.475
0
LINE
8
BLACK
6
CONTINUOUS
10
38.2246
20
-76.475
11
38.3736
21
-76.252
0
LINE
8
BLACK
6
CONTINUOUS
10
38.3736
20
-76.252
11
38.5504
21
-76.0504
0
LINE
8
BLACK
6
CONTINUOUS
10
38.5504
20
-76.0504
11
38.752
21
-75.8736
0
LINE
8
BLACK
6
CONTINUOUS
10
38.752
20
-75.8736
11
38.975
21
-75.7246
0
LINE
8
BLACK
6
CONTINUOUS
10
38.975
20
-75.7246
11
39.2155
21
-75.606
0
LINE
8
BLACK
6
CONTINUOUS
10
39.2155
20
-75.606
11
39.4694
21
-75.5199
0
LINE
8
BLACK
6
CONTINUOUS
10
39.4694
20
-75.5199
11
39.7324
21
-75.4675
0
LINE
8
BLACK
6
CONTINUOUS
10
39.7324
20
-75.4675
11
40
21
-75.45
0
LINE
8
BLACK
6
CONTINUOUS
10
40
20
-75.45
11
69
21
-75.45
0
LINE
8
BLACK
6
CONTINUOUS
10
69
20
-75.45
11
69.2676
21
-75.4675
0
LINE
8
BLACK
6
CONTINUOUS
10
69.2676
20
-75.4675
11
69.5306
21
-75.5199
0
LINE
8
BLACK
6
CONTINUOUS
10
69.5306
20
-75.5199
11
69.7845
21
-75.606
0
LINE
8
BLACK
6
CONTINUOUS
10
69.7845
20
-75.606
11
70.025
21
-75.7246
0
LINE
8
BLACK
6
CONTINUOUS
10
70.025
20
-75.7246
11
70.248
21
-75.8736
0
LINE
8
BLACK
6
CONTINUOUS
10
70.248
20
-75.8736
11
70.4496
21
-76.0504
0
LINE
8
BLACK
6
CONTINUOUS
10
70.4496
20
-76.0504
11
70.6264
21
-76.252
0
LINE
8
BLACK
6
CONTINUOUS
10
70.6264
20
-76.252
11
70.7754
21
-76.475
0
LINE
8
BLACK
6
CONTINUOUS
10
70.7754
20
-76.475
11
70.894
21
-76.7155
0
LINE
8
BLACK
6
CONTINUOUS
10
70.894
20
-76.7155
11
70.9801
21
-76.9694
0
LINE
8
BLACK
6
CONTINUOUS
10
70.9801
20
-76.9694
11
71.0325
21
-77.2324
0
LINE
8
BLACK
6
CONTINUOUS
10
71.0325
20
-77.2324
11
71.05
21
-77.5
0
LINE
8
BLACK
6
CONTINUOUS
10
71.05
20
-77.5
11
71.05
21
-83.5
0
LINE
8
BLACK
6
CONTINUOUS
10
71.05
20
-83.5
11
71.0464
21
-83.5087
0
LINE
8
BLACK
6
CONTINUOUS
10
71.0464
20
-83.5087
11
71.0625
21
-83.7551
0
LINE
8
BLACK
6
CONTINUOUS
10
71.0625
20
-83.7551
11
71.1124
21
-84.0058
0
LINE
8
BLACK
6
CONTINUOUS
10
71.1124
20
-84.0058
11
71.1946
21
-84.2478
0
LINE
8
BLACK
6
CONTINUOUS
10
71.1946
20
-84.2478
11
71.3076
21
-84.4771
0
LINE
8
BLACK
6
CONTINUOUS
10
71.3076
20
-84.4771
11
71.4496
21
-84.6896
0
LINE
8
BLACK
6
CONTINUOUS
10
71.4496
20
-84.6896
11
71.6182
21
-84.8818
0
LINE
8
BLACK
6
CONTINUOUS
10
71.6182
20
-84.8818
11
71.8104
21
-85.0504
0
LINE
8
BLACK
6
CONTINUOUS
10
71.8104
20
-85.0504
11
72.0229
21
-85.1924
0
LINE
8
BLACK
6
CONTINUOUS
10
72.0229
20
-85.1924
11
72.2522
21
-85.3054
0
LINE
8
BLACK
6
CONTINUOUS
10
72.2522
20
-85.3054
11
72.4942
21
-85.3876
0
LINE
8
BLACK
6
CONTINUOUS
10
72.4942
20
-85.3876
11
72.7449
21
-85.4375
0
LINE
8
BLACK
6
CONTINUOUS
10
72.7449
20
-85.4375
11
72.9913
21
-85.4536
0
LINE
8
BLACK
6
CONTINUOUS
10
72.9913
20
-85.4536
11
73
21
-85.45
0
LINE
8
BLACK
6
CONTINUOUS
10
73
20
-85.45
11
107.5
21
-85.45
0
LINE
8
BLACK
6
CONTINUOUS
10
107.5
20
-85.45
11
107.508
21
-85.4533
0
LINE
8
BLACK
6
CONTINUOUS
10
107.508
20
-85.4533
11
107.675
21
-85.4379
0
LINE
8
BLACK
6
CONTINUOUS
10
107.675
20
-85.4379
11
107.845
21
-85.3899
0
LINE
8
BLACK
6
CONTINUOUS
10
107.845
20
-85.3899
11
108.003
21
-85.3118
0
LINE
8
BLACK
6
CONTINUOUS
10
108.003
20
-85.3118
11
108.144
21
-85.2061
0
LINE
8
BLACK
6
CONTINUOUS
10
108.144
20
-85.2061
11
108.263
21
-85.0765
0
LINE
8
BLACK
6
CONTINUOUS
10
108.263
20
-85.0765
11
108.356
21
-84.9272
0
LINE
8
BLACK
6
CONTINUOUS
10
108.356
20
-84.9272
11
108.421
21
-84.7633
0
LINE
8
BLACK
6
CONTINUOUS
10
108.421
20
-84.7633
11
108.452
21
-84.6007
0
LINE
8
BLACK
6
CONTINUOUS
10
108.452
20
-84.6007
11
108.45
21
-84.595
0
LINE
8
BLACK
6
CONTINUOUS
10
108.45
20
-84.595
11
108.45
21
-83.995
0
LINE
8
BLACK
6
CONTINUOUS
10
108.45
20
-83.995
11
108.464
21
-83.8726
0
LINE
8
BLACK
6
CONTINUOUS
10
108.464
20
-83.8726
11
108.504
21
-83.7564
0
LINE
8
BLACK
6
CONTINUOUS
10
108.504
20
-83.7564
11
108.57
21
-83.6521
0
LINE
8
BLACK
6
CONTINUOUS
10
108.57
20
-83.6521
11
108.657
21
-83.565
0
LINE
8
BLACK
6
CONTINUOUS
10
108.657
20
-83.565
11
108.761
21
-83.4995
0
LINE
8
BLACK
6
CONTINUOUS
10
108.761
20
-83.4995
11
108.878
21
-83.4588
0
LINE
8
BLACK
6
CONTINUOUS
10
108.878
20
-83.4588
11
109
21
-83.445
0
LINE
8
BLACK
6
CONTINUOUS
10
109
20
-83.445
11
109
21
-83.445
0
LINE
8
BLACK
6
CONTINUOUS
10
109
20
-83.445
11
110
21
-83.445
0
LINE
8
BLACK
6
CONTINUOUS
10
110
20
-83.445
11
110.007
21
-83.448
0
LINE
8
BLACK
6
CONTINUOUS
10
110.007
20
-83.448
11
110.166
21
-83.4341
0
LINE
8
BLACK
6
CONTINUOUS
10
110.166
20
-83.4341
11
110.326
21
-83.3911
0
LINE
8
BLACK
6
CONTINUOUS
10
110.326
20
-83.3911
11
110.477
21
-83.3209
0
LINE
8
BLACK
6
CONTINUOUS
10
110.477
20
-83.3209
11
110.613
21
-83.2255
0
LINE
8
BLACK
6
CONTINUOUS
10
110.613
20
-83.2255
11
110.731
21
-83.108
0
LINE
8
BLACK
6
CONTINUOUS
10
110.731
20
-83.108
11
110.826
21
-82.9718
0
LINE
8
BLACK
6
CONTINUOUS
10
110.826
20
-82.9718
11
110.896
21
-82.8212
0
LINE
8
BLACK
6
CONTINUOUS
10
110.896
20
-82.8212
11
110.939
21
-82.6606
0
LINE
8
BLACK
6
CONTINUOUS
10
110.939
20
-82.6606
11
110.953
21
-82.5022
0
LINE
8
BLACK
6
CONTINUOUS
10
110.953
20
-82.5022
11
110.95
21
-82.495
0
LINE
8
BLACK
6
CONTINUOUS
10
110.95
20
-82.495
11
110.95
21
-79.995
0
LINE
8
BLACK
6
CONTINUOUS
10
110.95
20
-79.995
11
110.966
21
-79.8127
0
LINE
8
BLACK
6
CONTINUOUS
10
110.966
20
-79.8127
11
111.013
21
-79.6359
0
LINE
8
BLACK
6
CONTINUOUS
10
111.013
20
-79.6359
11
111.091
21
-79.47
0
LINE
8
BLACK
6
CONTINUOUS
10
111.091
20
-79.47
11
111.196
21
-79.3201
0
LINE
8
BLACK
6
CONTINUOUS
10
111.196
20
-79.3201
11
111.325
21
-79.1907
0
LINE
8
BLACK
6
CONTINUOUS
10
111.325
20
-79.1907
11
111.475
21
-79.0857
0
LINE
8
BLACK
6
CONTINUOUS
10
111.475
20
-79.0857
11
111.641
21
-79.0083
0
LINE
8
BLACK
6
CONTINUOUS
10
111.641
20
-79.0083
11
111.818
21
-78.961
0
LINE
8
BLACK
6
CONTINUOUS
10
111.818
20
-78.961
11
112
21
-78.945
0
LINE
8
BLACK
6
CONTINUOUS
10
112
20
-78.945
11
112
21
-78.945
0
LINE
8
BLACK
6
CONTINUOUS
10
112
20
-78.945
11
115.5
21
-78.945
0
LINE
8
BLACK
6
CONTINUOUS
10
115.5
20
-78.945
11
115.682
21
-78.961
0
LINE
8
BLACK
6
CONTINUOUS
10
115.682
20
-78.961
11
115.859
21
-79.0083
0
LINE
8
BLACK
6
CONTINUOUS
10
115.859
20
-79.0083
11
116.025
21
-79.0857
0
LINE
8
BLACK
6
CONTINUOUS
10
116.025
20
-79.0857
11
116.175
21
-79.1907
0
LINE
8
BLACK
6
CONTINUOUS
10
116.175
20
-79.1907
11
116.304
21
-79.3201
0
LINE
8
BLACK
6
CONTINUOUS
10
116.304
20
-79.3201
11
116.409
21
-79.47
0
LINE
8
BLACK
6
CONTINUOUS
10
116.409
20
-79.47
11
116.487
21
-79.6359
0
LINE
8
BLACK
6
CONTINUOUS
10
116.487
20
-79.6359
11
116.534
21
-79.8127
0
LINE
8
BLACK
6
CONTINUOUS
10
116.534
20
-79.8127
11
116.55
21
-79.995
0
LINE
8
BLACK
6
CONTINUOUS
10
116.55
20
-79.995
11
116.55
21
-79.995
0
LINE
8
BLACK
6
CONTINUOUS
10
116.55
20
-79.995
11
116.55
21
-82.495
0
LINE
8
BLACK
6
CONTINUOUS
10
116.55
20
-82.495
11
116.547
21
-82.5023
0
LINE
8
BLACK
6
CONTINUOUS
10
116.547
20
-82.5023
11
116.561
21
-82.6606
0
LINE
8
BLACK
6
CONTINUOUS
10
116.561
20
-82.6606
11
116.604
21
-82.8212
0
LINE
8
BLACK
6
CONTINUOUS
10
116.604
20
-82.8212
11
116.674
21
-82.9718
0
LINE
8
BLACK
6
CONTINUOUS
10
116.674
20
-82.9718
11
116.769
21
-83.108
0
LINE
8
BLACK
6
CONTINUOUS
10
116.769
20
-83.108
11
116.887
21
-83.2255
0
LINE
8
BLACK
6
CONTINUOUS
10
116.887
20
-83.2255
11
117.023
21
-83.3209
0
LINE
8
BLACK
6
CONTINUOUS
10
117.023
20
-83.3209
11
117.174
21
-83.3911
0
LINE
8
BLACK
6
CONTINUOUS
10
117.174
20
-83.3911
11
117.334
21
-83.4342
0
LINE
8
BLACK
6
CONTINUOUS
10
117.334
20
-83.4342
11
117.493
21
-83.448
0
LINE
8
BLACK
6
CONTINUOUS
10
117.493
20
-83.448
11
117.5
21
-83.445
0
LINE
8
BLACK
6
CONTINUOUS
10
117.5
20
-83.445
11
118.5
21
-83.445
0
LINE
8
BLACK
6
CONTINUOUS
10
118.5
20
-83.445
11
118.622
21
-83.4588
0
LINE
8
BLACK
6
CONTINUOUS
10
118.622
20
-83.4588
11
118.739
21
-83.4995
0
LINE
8
BLACK
6
CONTINUOUS
10
118.739
20
-83.4995
11
118.843
21
-83.565
0
LINE
8
BLACK
6
CONTINUOUS
10
118.843
20
-83.565
11
118.93
21
-83.6521
0
LINE
8
BLACK
6
CONTINUOUS
10
118.93
20
-83.6521
11
118.996
21
-83.7564
0
LINE
8
BLACK
6
CONTINUOUS
10
118.996
20
-83.7564
11
119.036
21
-83.8726
0
LINE
8
BLACK
6
CONTINUOUS
10
119.036
20
-83.8726
11
119.05
21
-83.995
0
LINE
8
BLACK
6
CONTINUOUS
10
119.05
20
-83.995
11
119.05
21
-83.995
0
LINE
8
BLACK
6
CONTINUOUS
10
119.05
20
-83.995
11
119.05
21
-84.495
0
LINE
8
BLACK
6
CONTINUOUS
10
119.05
20
-84.495
11
119.047
21
-84.5023
0
LINE
8
BLACK
6
CONTINUOUS
10
119.047
20
-84.5023
11
119.061
21
-84.6606
0
LINE
8
BLACK
6
CONTINUOUS
10
119.061
20
-84.6606
11
119.104
21
-84.8212
0
LINE
8
BLACK
6
CONTINUOUS
10
119.104
20
-84.8212
11
119.174
21
-84.9718
0
LINE
8
BLACK
6
CONTINUOUS
10
119.174
20
-84.9718
11
119.269
21
-85.108
0
LINE
8
BLACK
6
CONTINUOUS
10
119.269
20
-85.108
11
119.387
21
-85.2255
0
LINE
8
BLACK
6
CONTINUOUS
10
119.387
20
-85.2255
11
119.523
21
-85.3209
0
LINE
8
BLACK
6
CONTINUOUS
10
119.523
20
-85.3209
11
119.674
21
-85.3911
0
LINE
8
BLACK
6
CONTINUOUS
10
119.674
20
-85.3911
11
119.834
21
-85.4342
0
LINE
8
BLACK
6
CONTINUOUS
10
119.834
20
-85.4342
11
119.993
21
-85.448
0
LINE
8
BLACK
6
CONTINUOUS
10
119.993
20
-85.448
11
120
21
-85.445
0
LINE
8
BLACK
6
CONTINUOUS
10
120
20
-85.445
11
120
21
-85.445
0
LINE
8
BLACK
6
CONTINUOUS
10
120
20
-85.445
11
120
21
-85.445
0
LINE
8
BLACK
6
CONTINUOUS
10
120
20
-85.445
11
179.5
21
-85.45
0
LINE
8
BLACK
6
CONTINUOUS
10
179.5
20
-85.45
11
179.508
21
-85.4533
0
LINE
8
BLACK
6
CONTINUOUS
10
179.508
20
-85.4533
11
179.675
21
-85.4379
0
LINE
8
BLACK
6
CONTINUOUS
10
179.675
20
-85.4379
11
179.845
21
-85.3899
0
LINE
8
BLACK
6
CONTINUOUS
10
179.845
20
-85.3899
11
180.003
21
-85.3118
0
LINE
8
BLACK
6
CONTINUOUS
10
180.003
20
-85.3118
11
180.144
21
-85.2061
0
LINE
8
BLACK
6
CONTINUOUS
10
180.144
20
-85.2061
11
180.263
21
-85.0765
0
LINE
8
BLACK
6
CONTINUOUS
10
180.263
20
-85.0765
11
180.356
21
-84.9272
0
LINE
8
BLACK
6
CONTINUOUS
10
180.356
20
-84.9272
11
180.421
21
-84.7633
0
LINE
8
BLACK
6
CONTINUOUS
10
180.421
20
-84.7633
11
180.452
21
-84.6007
0
LINE
8
BLACK
6
CONTINUOUS
10
180.452
20
-84.6007
11
180.45
21
-84.595
0
LINE
8
BLACK
6
CONTINUOUS
10
180.45
20
-84.595
11
180.45
21
-83.995
0
LINE
8
BLACK
6
CONTINUOUS
10
180.45
20
-83.995
11
180.464
21
-83.8726
0
LINE
8
BLACK
6
CONTINUOUS
10
180.464
20
-83.8726
11
180.504
21
-83.7564
0
LINE
8
BLACK
6
CONTINUOUS
10
180.504
20
-83.7564
11
180.57
21
-83.6521
0
LINE
8
BLACK
6
CONTINUOUS
10
180.57
20
-83.6521
11
180.657
21
-83.565
0
LINE
8
BLACK
6
CONTINUOUS
10
180.657
20
-83.565
11
180.761
21
-83.4995
0
LINE
8
BLACK
6
CONTINUOUS
10
180.761
20
-83.4995
11
180.878
21
-83.4588
0
LINE
8
BLACK
6
CONTINUOUS
10
180.878
20
-83.4588
11
181
21
-83.445
0
LINE
8
BLACK
6
CONTINUOUS
10
181
20
-83.445
11
181
21
-83.445
0
LINE
8
BLACK
6
CONTINUOUS
10
181
20
-83.445
11
182
21
-83.445
0
LINE
8
BLACK
6
CONTINUOUS
10
182
20
-83.445
11
182.007
21
-83.448
0
LINE
8
BLACK
6
CONTINUOUS
10
182.007
20
-83.448
11
182.166
21
-83.4341
0
LINE
8
BLACK
6
CONTINUOUS
10
182.166
20
-83.4341
11
182.326
21
-83.3911
0
LINE
8
BLACK
6
CONTINUOUS
10
182.326
20
-83.3911
11
182.477
21
-83.3209
0
LINE
8
BLACK
6
CONTINUOUS
10
182.477
20
-83.3209
11
182.613
21
-83.2255
0
LINE
8
BLACK
6
CONTINUOUS
10
182.613
20
-83.2255
11
182.731
21
-83.108
0
LINE
8
BLACK
6
CONTINUOUS
10
182.731
20
-83.108
11
182.826
21
-82.9718
0
LINE
8
BLACK
6
CONTINUOUS
10
182.826
20
-82.9718
11
182.896
21
-82.8212
0
LINE
8
BLACK
6
CONTINUOUS
10
182.896
20
-82.8212
11
182.939
21
-82.6606
0
LINE
8
BLACK
6
CONTINUOUS
10
182.939
20
-82.6606
11
182.953
21
-82.5022
0
LINE
8
BLACK
6
CONTINUOUS
10
182.953
20
-82.5022
11
182.95
21
-82.495
0
LINE
8
BLACK
6
CONTINUOUS
10
182.95
20
-82.495
11
182.95
21
-79.995
0
LINE
8
BLACK
6
CONTINUOUS
10
182.95
20
-79.995
11
182.966
21
-79.8127
0
LINE
8
BLACK
6
CONTINUOUS
10
182.966
20
-79.8127
11
183.013
21
-79.6359
0
LINE
8
BLACK
6
CONTINUOUS
10
183.013
20
-79.6359
11
183.091
21
-79.47
0
LINE
8
BLACK
6
CONTINUOUS
10
183.091
20
-79.47
11
183.196
21
-79.3201
0
LINE
8
BLACK
6
CONTINUOUS
10
183.196
20
-79.3201
11
183.325
21
-79.1907
0
LINE
8
BLACK
6
CONTINUOUS
10
183.325
20
-79.1907
11
183.475
21
-79.0857
0
LINE
8
BLACK
6
CONTINUOUS
10
183.475
20
-79.0857
11
183.641
21
-79.0083
0
LINE
8
BLACK
6
CONTINUOUS
10
183.641
20
-79.0083
11
183.818
21
-78.961
0
LINE
8
BLACK
6
CONTINUOUS
10
183.818
20
-78.961
11
184
21
-78.945
0
LINE
8
BLACK
6
CONTINUOUS
10
184
20
-78.945
11
184
21
-78.945
0
LINE
8
BLACK
6
CONTINUOUS
10
184
20
-78.945
11
187.5
21
-78.945
0
LINE
8
BLACK
6
CONTINUOUS
10
187.5
20
-78.945
11
187.682
21
-78.961
0
LINE
8
BLACK
6
CONTINUOUS
10
187.682
20
-78.961
11
187.859
21
-79.0083
0
LINE
8
BLACK
6
CONTINUOUS
10
187.859
20
-79.0083
11
188.025
21
-79.0857
0
LINE
8
BLACK
6
CONTINUOUS
10
188.025
20
-79.0857
11
188.175
21
-79.1907
0
LINE
8
BLACK
6
CONTINUOUS
10
188.175
20
-79.1907
11
188.304
21
-79.3201
0
LINE
8
BLACK
6
CONTINUOUS
10
188.304
20
-79.3201
11
188.409
21
-79.47
0
LINE
8
BLACK
6
CONTINUOUS
10
188.409
20
-79.47
11
188.487
21
-79.6359
0
LINE
8
BLACK
6
CONTINUOUS
10
188.487
20
-79.6359
11
188.534
21
-79.8127
0
LINE
8
BLACK
6
CONTINUOUS
10
188.534
20
-79.8127
11
188.55
21
-79.995
0
LINE
8
BLACK
6
CONTINUOUS
10
188.55
20
-79.995
11
188.55
21
-79.995
0
LINE
8
BLACK
6
CONTINUOUS
10
188.55
20
-79.995
11
188.55
21
-82.495
0
LINE
8
BLACK
6
CONTINUOUS
10
188.55
20
-82.495
11
188.547
21
-82.5023
0
LINE
8
BLACK
6
CONTINUOUS
10
188.547
20
-82.5023
11
188.561
21
-82.6606
0
LINE
8
BLACK
6
CONTINUOUS
10
188.561
20
-82.6606
11
188.604
21
-82.8212
0
LINE
8
BLACK
6
CONTINUOUS
10
188.604
20
-82.8212
11
188.674
21
-82.9718
0
LINE
8
BLACK
6
CONTINUOUS
10
188.674
20
-82.9718
11
188.769
21
-83.108
0
LINE
8
BLACK
6
CONTINUOUS
10
188.769
20
-83.108
11
188.887
21
-83.2255
0
LINE
8
BLACK
6
CONTINUOUS
10
188.887
20
-83.2255
11
189.023
21
-83.3209
0
LINE
8
BLACK
6
CONTINUOUS
10
189.023
20
-83.3209
11
189.174
21
-83.3911
0
LINE
8
BLACK
6
CONTINUOUS
10
189.174
20
-83.3911
11
189.334
21
-83.4342
0
LINE
8
BLACK
6
CONTINUOUS
10
189.334
20
-83.4342
11
189.493
21
-83.448
0
LINE
8
BLACK
6
CONTINUOUS
10
189.493
20
-83.448
11
189.5
21
-83.445
0
LINE
8
BLACK
6
CONTINUOUS
10
189.5
20
-83.445
11
190.5
21
-83.445
0
LINE
8
BLACK
6
CONTINUOUS
10
190.5
20
-83.445
11
190.622
21
-83.4588
0
LINE
8
BLACK
6
CONTINUOUS
10
190.622
20
-83.4588
11
190.739
21
-83.4995
0
LINE
8
BLACK
6
CONTINUOUS
10
190.739
20
-83.4995
11
190.843
21
-83.565
0
LINE
8
BLACK
6
CONTINUOUS
10
190.843
20
-83.565
11
190.93
21
-83.6521
0
LINE
8
BLACK
6
CONTINUOUS
10
190.93
20
-83.6521
11
190.996
21
-83.7564
0
LINE
8
BLACK
6
CONTINUOUS
10
190.996
20
-83.7564
11
191.036
21
-83.8726
0
LINE
8
BLACK
6
CONTINUOUS
10
191.036
20
-83.8726
11
191.05
21
-83.995
0
LINE
8
BLACK
6
CONTINUOUS
10
191.05
20
-83.995
11
191.05
21
-83.995
0
LINE
8
BLACK
6
CONTINUOUS
10
191.05
20
-83.995
11
191.05
21
-84.495
0
LINE
8
BLACK
6
CONTINUOUS
10
191.05
20
-84.495
11
191.047
21
-84.5023
0
LINE
8
BLACK
6
CONTINUOUS
10
191.047
20
-84.5023
11
191.061
21
-84.6606
0
LINE
8
BLACK
6
CONTINUOUS
10
191.061
20
-84.6606
11
191.104
21
-84.8212
0
LINE
8
BLACK
6
CONTINUOUS
10
191.104
20
-84.8212
11
191.174
21
-84.9718
0
LINE
8
BLACK
6
CONTINUOUS
10
191.174
20
-84.9718
11
191.269
21
-85.108
0
LINE
8
BLACK
6
CONTINUOUS
10
191.269
20
-85.108
11
191.387
21
-85.2255
0
LINE
8
BLACK
6
CONTINUOUS
10
191.387
20
-85.2255
11
191.523
21
-85.3209
0
LINE
8
BLACK
6
CONTINUOUS
10
191.523
20
-85.3209
11
191.674
21
-85.3911
0
LINE
8
BLACK
6
CONTINUOUS
10
191.674
20
-85.3911
11
191.834
21
-85.4342
0
LINE
8
BLACK
6
CONTINUOUS
10
191.834
20
-85.4342
11
191.993
21
-85.448
0
LINE
8
BLACK
6
CONTINUOUS
10
191.993
20
-85.448
11
192
21
-85.445
0
LINE
8
BLACK
6
CONTINUOUS
10
192
20
-85.445
11
192.016
21
-85.4517
0
LINE
8
BLACK
6
CONTINUOUS
10
192.016
20
-85.4517
11
192.117
21
-85.4384
0
LINE
8
BLACK
6
CONTINUOUS
10
192.117
20
-85.4384
11
192.227
21
-85.3931
0
LINE
8
BLACK
6
CONTINUOUS
10
192.227
20
-85.3931
11
192.321
21
-85.3209
0
LINE
8
BLACK
6
CONTINUOUS
10
192.321
20
-85.3209
11
192.393
21
-85.2269
0
LINE
8
BLACK
6
CONTINUOUS
10
192.393
20
-85.2269
11
192.438
21
-85.1175
0
LINE
8
BLACK
6
CONTINUOUS
10
192.438
20
-85.1175
11
192.453
21
-85.0071
0
LINE
8
BLACK
6
CONTINUOUS
10
192.453
20
-85.0071
11
192.45
21
-85
0
LINE
8
BLACK
6
CONTINUOUS
10
192.45
20
-85
11
192.45
21
-81
0
LINE
8
BLACK
6
CONTINUOUS
10
192.45
20
-81
11
192.468
21
-80.615
0
LINE
8
BLACK
6
CONTINUOUS
10
192.468
20
-80.615
11
192.523
21
-80.2335
0
LINE
8
BLACK
6
CONTINUOUS
10
192.523
20
-80.2335
11
192.614
21
-79.859
0
LINE
8
BLACK
6
CONTINUOUS
10
192.614
20
-79.859
11
192.74
21
-79.4948
0
LINE
8
BLACK
6
CONTINUOUS
10
192.74
20
-79.4948
11
192.9
21
-79.1442
0
LINE
8
BLACK
6
CONTINUOUS
10
192.9
20
-79.1442
11
193.093
21
-78.8104
0
LINE
8
BLACK
6
CONTINUOUS
10
193.093
20
-78.8104
11
193.316
21
-78.4965
0
LINE
8
BLACK
6
CONTINUOUS
10
193.316
20
-78.4965
11
193.569
21
-78.2052
0
LINE
8
BLACK
6
CONTINUOUS
10
193.569
20
-78.2052
11
193.848
21
-77.9392
0
LINE
8
BLACK
6
CONTINUOUS
10
193.848
20
-77.9392
11
194.151
21
-77.701
0
LINE
8
BLACK
6
CONTINUOUS
10
194.151
20
-77.701
11
194.475
21
-77.4926
0
LINE
8
BLACK
6
CONTINUOUS
10
194.475
20
-77.4926
11
194.818
21
-77.316
0
LINE
8
BLACK
6
CONTINUOUS
10
194.818
20
-77.316
11
195.175
21
-77.1727
0
LINE
8
BLACK
6
CONTINUOUS
10
195.175
20
-77.1727
11
195.545
21
-77.0642
0
LINE
8
BLACK
6
CONTINUOUS
10
195.545
20
-77.0642
11
195.924
21
-76.9912
0
LINE
8
BLACK
6
CONTINUOUS
10
195.924
20
-76.9912
11
196.307
21
-76.9546
0
LINE
8
BLACK
6
CONTINUOUS
10
196.307
20
-76.9546
11
196.693
21
-76.9546
0
LINE
8
BLACK
6
CONTINUOUS
10
196.693
20
-76.9546
11
197.076
21
-76.9912
0
LINE
8
BLACK
6
CONTINUOUS
10
197.076
20
-76.9912
11
197.455
21
-77.0642
0
LINE
8
BLACK
6
CONTINUOUS
10
197.455
20
-77.0642
11
197.825
21
-77.1727
0
LINE
8
BLACK
6
CONTINUOUS
10
197.825
20
-77.1727
11
198.182
21
-77.316
0
LINE
8
BLACK
6
CONTINUOUS
10
198.182
20
-77.316
11
198.525
21
-77.4926
0
LINE
8
BLACK
6
CONTINUOUS
10
198.525
20
-77.4926
11
198.849
21
-77.701
0
LINE
8
BLACK
6
CONTINUOUS
10
198.849
20
-77.701
11
199.152
21
-77.9392
0
LINE
8
BLACK
6
CONTINUOUS
10
199.152
20
-77.9392
11
199.431
21
-78.2052
0
LINE
8
BLACK
6
CONTINUOUS
10
199.431
20
-78.2052
11
199.684
21
-78.4965
0
LINE
8
BLACK
6
CONTINUOUS
10
199.684
20
-78.4965
11
199.907
21
-78.8104
0
LINE
8
BLACK
6
CONTINUOUS
10
199.907
20
-78.8104
11
200.1
21
-79.1442
0
LINE
8
BLACK
6
CONTINUOUS
10
200.1
20
-79.1442
11
200.26
21
-79.4948
0
LINE
8
BLACK
6
CONTINUOUS
10
200.26
20
-79.4948
11
200.386
21
-79.859
0
LINE
8
BLACK
6
CONTINUOUS
10
200.386
20
-79.859
11
200.477
21
-80.2335
0
LINE
8
BLACK
6
CONTINUOUS
10
200.477
20
-80.2335
11
200.532
21
-80.615
0
LINE
8
BLACK
6
CONTINUOUS
10
200.532
20
-80.615
11
200.55
21
-81
0
LINE
8
BLACK
6
CONTINUOUS
10
200.55
20
-81
11
200.55
21
-84.5
0
LINE
8
BLACK
6
CONTINUOUS
10
200.55
20
-84.5
11
200.547
21
-84.5072
0
LINE
8
BLACK
6
CONTINUOUS
10
200.547
20
-84.5072
11
200.561
21
-84.6656
0
LINE
8
BLACK
6
CONTINUOUS
10
200.561
20
-84.6656
11
200.604
21
-84.8262
0
LINE
8
BLACK
6
CONTINUOUS
10
200.604
20
-84.8262
11
200.674
21
-84.9768
0
LINE
8
BLACK
6
CONTINUOUS
10
200.674
20
-84.9768
11
200.769
21
-85.113
0
LINE
8
BLACK
6
CONTINUOUS
10
200.769
20
-85.113
11
200.887
21
-85.2305
0
LINE
8
BLACK
6
CONTINUOUS
10
200.887
20
-85.2305
11
201.023
21
-85.3259
0
LINE
8
BLACK
6
CONTINUOUS
10
201.023
20
-85.3259
11
201.174
21
-85.3961
0
LINE
8
BLACK
6
CONTINUOUS
10
201.174
20
-85.3961
11
201.334
21
-85.4391
0
LINE
8
BLACK
6
CONTINUOUS
10
201.334
20
-85.4391
11
201.493
21
-85.453
0
LINE
8
BLACK
6
CONTINUOUS
10
201.493
20
-85.453
11
201.493
21
-85.4529
0
LINE
8
BLACK
6
CONTINUOUS
10
201.493
20
-85.4529
11
201.5
21
-85.45
0
LINE
8
BLACK
6
CONTINUOUS
10
201.5
20
-85.45
11
204
21
-85.45
0
LINE
8
BLACK
6
CONTINUOUS
10
204
20
-85.45
11
204.009
21
-85.4536
0
LINE
8
BLACK
6
CONTINUOUS
10
204.009
20
-85.4536
11
204.255
21
-85.4375
0
LINE
8
BLACK
6
CONTINUOUS
10
204.255
20
-85.4375
11
204.506
21
-85.3876
0
LINE
8
BLACK
6
CONTINUOUS
10
204.506
20
-85.3876
11
204.748
21
-85.3054
0
LINE
8
BLACK
6
CONTINUOUS
10
204.748
20
-85.3054
11
204.977
21
-85.1924
0
LINE
8
BLACK
6
CONTINUOUS
10
204.977
20
-85.1924
11
205.19
21
-85.0504
0
LINE
8
BLACK
6
CONTINUOUS
10
205.19
20
-85.0504
11
205.382
21
-84.8818
0
LINE
8
BLACK
6
CONTINUOUS
10
205.382
20
-84.8818
11
205.55
21
-84.6896
0
LINE
8
BLACK
6
CONTINUOUS
10
205.55
20
-84.6896
11
205.692
21
-84.4771
0
LINE
8
BLACK
6
CONTINUOUS
10
205.692
20
-84.4771
11
205.805
21
-84.2478
0
LINE
8
BLACK
6
CONTINUOUS
10
205.805
20
-84.2478
11
205.888
21
-84.0058
0
LINE
8
BLACK
6
CONTINUOUS
10
205.888
20
-84.0058
11
205.937
21
-83.7551
0
LINE
8
BLACK
6
CONTINUOUS
10
205.937
20
-83.7551
11
205.954
21
-83.5087
0
LINE
8
BLACK
6
CONTINUOUS
10
205.954
20
-83.5087
11
205.95
21
-83.5
0
LINE
8
BLACK
6
CONTINUOUS
10
205.95
20
-83.5
11
205.95
21
-83
0
LINE
8
BLACK
6
CONTINUOUS
10
205.95
20
-83
11
205.965
21
-82.9646
0
LINE
8
BLACK
6
CONTINUOUS
10
205.965
20
-82.9646
11
206
21
-82.95
0
LINE
8
BLACK
6
CONTINUOUS
10
206
20
-82.95
11
206.035
21
-82.9646
0
LINE
8
BLACK
6
CONTINUOUS
10
206.035
20
-82.9646
11
206.05
21
-83
0
LINE
8
BLACK
6
CONTINUOUS
10
206.05
20
-83
11
206.05
21
-83.5
0
LINE
8
BLACK
6
CONTINUOUS
10
206.05
20
-83.5
11
206.032
21
-83.7676
0
LINE
8
BLACK
6
CONTINUOUS
10
206.032
20
-83.7676
11
205.98
21
-84.0306
0
LINE
8
BLACK
6
CONTINUOUS
10
205.98
20
-84.0306
11
205.894
21
-84.2845
0
LINE
8
BLACK
6
CONTINUOUS
10
205.894
20
-84.2845
11
205.775
21
-84.525
0
LINE
8
BLACK
6
CONTINUOUS
10
205.775
20
-84.525
11
205.626
21
-84.748
0
LINE
8
BLACK
6
CONTINUOUS
10
205.626
20
-84.748
11
205.45
21
-84.9496
0
LINE
8
BLACK
6
CONTINUOUS
10
205.45
20
-84.9496
11
205.248
21
-85.1264
0
LINE
8
BLACK
6
CONTINUOUS
10
205.248
20
-85.1264
11
205.025
21
-85.2754
0
LINE
8
BLACK
6
CONTINUOUS
10
205.025
20
-85.2754
11
204.785
21
-85.394
0
LINE
8
BLACK
6
CONTINUOUS
10
204.785
20
-85.394
11
204.531
21
-85.4801
0
LINE
8
BLACK
6
CONTINUOUS
10
204.531
20
-85.4801
11
204.268
21
-85.5325
0
LINE
8
BLACK
6
CONTINUOUS
10
204.268
20
-85.5325
11
204
21
-85.55
0
LINE
8
BLACK
6
CONTINUOUS
10
204
20
-85.55
11
201.5
21
-85.55
0
LINE
8
BLACK
6
CONTINUOUS
10
201.5
20
-85.55
11
201.318
21
-85.534
0
LINE
8
BLACK
6
CONTINUOUS
10
201.318
20
-85.534
11
201.141
21
-85.4867
0
LINE
8
BLACK
6
CONTINUOUS
10
201.141
20
-85.4867
11
200.975
21
-85.4093
0
LINE
8
BLACK
6
CONTINUOUS
10
200.975
20
-85.4093
11
200.825
21
-85.3043
0
LINE
8
BLACK
6
CONTINUOUS
10
200.825
20
-85.3043
11
200.696
21
-85.1749
0
LINE
8
BLACK
6
CONTINUOUS
10
200.696
20
-85.1749
11
200.591
21
-85.025
0
LINE
8
BLACK
6
CONTINUOUS
10
200.591
20
-85.025
11
200.513
21
-84.8591
0
LINE
8
BLACK
6
CONTINUOUS
10
200.513
20
-84.8591
11
200.466
21
-84.6823
0
LINE
8
BLACK
6
CONTINUOUS
10
200.466
20
-84.6823
11
200.45
21
-84.5
0
LINE
8
BLACK
6
CONTINUOUS
10
200.45
20
-84.5
11
200.45
21
-81
0
LINE
8
BLACK
6
CONTINUOUS
10
200.45
20
-81
11
200.454
21
-80.9897
0
LINE
8
BLACK
6
CONTINUOUS
10
200.454
20
-80.9897
11
200.436
21
-80.6124
0
LINE
8
BLACK
6
CONTINUOUS
10
200.436
20
-80.6124
11
200.379
21
-80.2285
0
LINE
8
BLACK
6
CONTINUOUS
10
200.379
20
-80.2285
11
200.284
21
-79.852
0
LINE
8
BLACK
6
CONTINUOUS
10
200.284
20
-79.852
11
200.154
21
-79.4866
0
LINE
8
BLACK
6
CONTINUOUS
10
200.154
20
-79.4866
11
199.988
21
-79.1357
0
LINE
8
BLACK
6
CONTINUOUS
10
199.988
20
-79.1357
11
199.788
21
-78.8029
0
LINE
8
BLACK
6
CONTINUOUS
10
199.788
20
-78.8029
11
199.557
21
-78.4911
0
LINE
8
BLACK
6
CONTINUOUS
10
199.557
20
-78.4911
11
199.296
21
-78.2036
0
LINE
8
BLACK
6
CONTINUOUS
10
199.296
20
-78.2036
11
199.009
21
-77.9429
0
LINE
8
BLACK
6
CONTINUOUS
10
199.009
20
-77.9429
11
198.697
21
-77.7117
0
LINE
8
BLACK
6
CONTINUOUS
10
198.697
20
-77.7117
11
198.364
21
-77.5122
0
LINE
8
BLACK
6
CONTINUOUS
10
198.364
20
-77.5122
11
198.013
21
-77.3463
0
LINE
8
BLACK
6
CONTINUOUS
10
198.013
20
-77.3463
11
197.648
21
-77.2155
0
LINE
8
BLACK
6
CONTINUOUS
10
197.648
20
-77.2155
11
197.272
21
-77.1212
0
LINE
8
BLACK
6
CONTINUOUS
10
197.272
20
-77.1212
11
196.888
21
-77.0643
0
LINE
8
BLACK
6
CONTINUOUS
10
196.888
20
-77.0643
11
196.5
21
-77.0452
0
LINE
8
BLACK
6
CONTINUOUS
10
196.5
20
-77.0452
11
196.112
21
-77.0643
0
LINE
8
BLACK
6
CONTINUOUS
10
196.112
20
-77.0643
11
195.728
21
-77.1212
0
LINE
8
BLACK
6
CONTINUOUS
10
195.728
20
-77.1212
11
195.352
21
-77.2155
0
LINE
8
BLACK
6
CONTINUOUS
10
195.352
20
-77.2155
11
194.987
21
-77.3463
0
LINE
8
BLACK
6
CONTINUOUS
10
194.987
20
-77.3463
11
194.636
21
-77.5122
0
LINE
8
BLACK
6
CONTINUOUS
10
194.636
20
-77.5122
11
194.303
21
-77.7117
0
LINE
8
BLACK
6
CONTINUOUS
10
194.303
20
-77.7117
11
193.991
21
-77.9429
0
LINE
8
BLACK
6
CONTINUOUS
10
193.991
20
-77.9429
11
193.704
21
-78.2036
0
LINE
8
BLACK
6
CONTINUOUS
10
193.704
20
-78.2036
11
193.443
21
-78.4911
0
LINE
8
BLACK
6
CONTINUOUS
10
193.443
20
-78.4911
11
193.212
21
-78.8029
0
LINE
8
BLACK
6
CONTINUOUS
10
193.212
20
-78.8029
11
193.012
21
-79.1357
0
LINE
8
BLACK
6
CONTINUOUS
10
193.012
20
-79.1357
11
192.846
21
-79.4866
0
LINE
8
BLACK
6
CONTINUOUS
10
192.846
20
-79.4866
11
192.716
21
-79.852
0
LINE
8
BLACK
6
CONTINUOUS
10
192.716
20
-79.852
11
192.621
21
-80.2285
0
LINE
8
BLACK
6
CONTINUOUS
10
192.621
20
-80.2285
11
192.564
21
-80.6124
0
LINE
8
BLACK
6
CONTINUOUS
10
192.564
20
-80.6124
11
192.546
21
-80.9897
0
LINE
8
BLACK
6
CONTINUOUS
10
192.546
20
-80.9897
11
192.55
21
-81
0
LINE
8
BLACK
6
CONTINUOUS
10
192.55
20
-81
11
192.55
21
-85
0
LINE
8
BLACK
6
CONTINUOUS
10
192.55
20
-85
11
192.536
21
-85.1224
0
LINE
8
BLACK
6
CONTINUOUS
10
192.536
20
-85.1224
11
192.496
21
-85.2386
0
LINE
8
BLACK
6
CONTINUOUS
10
192.496
20
-85.2386
11
192.43
21
-85.3429
0
LINE
8
BLACK
6
CONTINUOUS
10
192.43
20
-85.3429
11
192.343
21
-85.43
0
LINE
8
BLACK
6
CONTINUOUS
10
192.343
20
-85.43
11
192.239
21
-85.4955
0
LINE
8
BLACK
6
CONTINUOUS
10
192.239
20
-85.4955
11
192.122
21
-85.5362
0
LINE
8
BLACK
6
CONTINUOUS
10
192.122
20
-85.5362
11
192
21
-85.55
0
LINE
8
BLACK
6
CONTINUOUS
10
192
20
-85.55
11
191.985
21
-85.5437
0
LINE
8
BLACK
6
CONTINUOUS
10
191.985
20
-85.5437
11
191.818
21
-85.5291
0
LINE
8
BLACK
6
CONTINUOUS
10
191.818
20
-85.5291
11
191.641
21
-85.4817
0
LINE
8
BLACK
6
CONTINUOUS
10
191.641
20
-85.4817
11
191.475
21
-85.4043
0
LINE
8
BLACK
6
CONTINUOUS
10
191.475
20
-85.4043
11
191.325
21
-85.2994
0
LINE
8
BLACK
6
CONTINUOUS
10
191.325
20
-85.2994
11
191.196
21
-85.1699
0
LINE
8
BLACK
6
CONTINUOUS
10
191.196
20
-85.1699
11
191.091
21
-85.02
0
LINE
8
BLACK
6
CONTINUOUS
10
191.091
20
-85.02
11
191.013
21
-84.8541
0
LINE
8
BLACK
6
CONTINUOUS
10
191.013
20
-84.8541
11
190.966
21
-84.6773
0
LINE
8
BLACK
6
CONTINUOUS
10
190.966
20
-84.6773
11
190.95
21
-84.495
0
LINE
8
BLACK
6
CONTINUOUS
10
190.95
20
-84.495
11
190.95
21
-84.495
0
LINE
8
BLACK
6
CONTINUOUS
10
190.95
20
-84.495
11
190.95
21
-84.495
0
LINE
8
BLACK
6
CONTINUOUS
10
190.95
20
-84.495
11
190.95
21
-83.995
0
LINE
8
BLACK
6
CONTINUOUS
10
190.95
20
-83.995
11
190.953
21
-83.9879
0
LINE
8
BLACK
6
CONTINUOUS
10
190.953
20
-83.9879
11
190.938
21
-83.8775
0
LINE
8
BLACK
6
CONTINUOUS
10
190.938
20
-83.8775
11
190.893
21
-83.7681
0
LINE
8
BLACK
6
CONTINUOUS
10
190.893
20
-83.7681
11
190.821
21
-83.6741
0
LINE
8
BLACK
6
CONTINUOUS
10
190.821
20
-83.6741
11
190.727
21
-83.6019
0
LINE
8
BLACK
6
CONTINUOUS
10
190.727
20
-83.6019
11
190.617
21
-83.5566
0
LINE
8
BLACK
6
CONTINUOUS
10
190.617
20
-83.5566
11
190.507
21
-83.5421
0
LINE
8
BLACK
6
CONTINUOUS
10
190.507
20
-83.5421
11
190.5
21
-83.545
0
LINE
8
BLACK
6
CONTINUOUS
10
190.5
20
-83.545
11
189.5
21
-83.545
0
LINE
8
BLACK
6
CONTINUOUS
10
189.5
20
-83.545
11
189.318
21
-83.5291
0
LINE
8
BLACK
6
CONTINUOUS
10
189.318
20
-83.5291
11
189.141
21
-83.4817
0
LINE
8
BLACK
6
CONTINUOUS
10
189.141
20
-83.4817
11
188.975
21
-83.4043
0
LINE
8
BLACK
6
CONTINUOUS
10
188.975
20
-83.4043
11
188.825
21
-83.2994
0
LINE
8
BLACK
6
CONTINUOUS
10
188.825
20
-83.2994
11
188.696
21
-83.1699
0
LINE
8
BLACK
6
CONTINUOUS
10
188.696
20
-83.1699
11
188.591
21
-83.02
0
LINE
8
BLACK
6
CONTINUOUS
10
188.591
20
-83.02
11
188.513
21
-82.8541
0
LINE
8
BLACK
6
CONTINUOUS
10
188.513
20
-82.8541
11
188.466
21
-82.6773
0
LINE
8
BLACK
6
CONTINUOUS
10
188.466
20
-82.6773
11
188.45
21
-82.495
0
LINE
8
BLACK
6
CONTINUOUS
10
188.45
20
-82.495
11
188.45
21
-82.495
0
LINE
8
BLACK
6
CONTINUOUS
10
188.45
20
-82.495
11
188.45
21
-79.995
0
LINE
8
BLACK
6
CONTINUOUS
10
188.45
20
-79.995
11
188.453
21
-79.9878
0
LINE
8
BLACK
6
CONTINUOUS
10
188.453
20
-79.9878
11
188.439
21
-79.8294
0
LINE
8
BLACK
6
CONTINUOUS
10
188.439
20
-79.8294
11
188.396
21
-79.6689
0
LINE
8
BLACK
6
CONTINUOUS
10
188.396
20
-79.6689
11
188.326
21
-79.5182
0
LINE
8
BLACK
6
CONTINUOUS
10
188.326
20
-79.5182
11
188.231
21
-79.382
0
LINE
8
BLACK
6
CONTINUOUS
10
188.231
20
-79.382
11
188.113
21
-79.2645
0
LINE
8
BLACK
6
CONTINUOUS
10
188.113
20
-79.2645
11
187.977
21
-79.1691
0
LINE
8
BLACK
6
CONTINUOUS
10
187.977
20
-79.1691
11
187.826
21
-79.0989
0
LINE
8
BLACK
6
CONTINUOUS
10
187.826
20
-79.0989
11
187.666
21
-79.0559
0
LINE
8
BLACK
6
CONTINUOUS
10
187.666
20
-79.0559
11
187.507
21
-79.042
0
LINE
8
BLACK
6
CONTINUOUS
10
187.507
20
-79.042
11
187.5
21
-79.045
0
LINE
8
BLACK
6
CONTINUOUS
10
187.5
20
-79.045
11
184
21
-79.045
0
LINE
8
BLACK
6
CONTINUOUS
10
184
20
-79.045
11
183.999
21
-79.0447
0
LINE
8
BLACK
6
CONTINUOUS
10
183.999
20
-79.0447
11
183.993
21
-79.042
0
LINE
8
BLACK
6
CONTINUOUS
10
183.993
20
-79.042
11
183.834
21
-79.0559
0
LINE
8
BLACK
6
CONTINUOUS
10
183.834
20
-79.0559
11
183.674
21
-79.0989
0
LINE
8
BLACK
6
CONTINUOUS
10
183.674
20
-79.0989
11
183.523
21
-79.1691
0
LINE
8
BLACK
6
CONTINUOUS
10
183.523
20
-79.1691
11
183.387
21
-79.2645
0
LINE
8
BLACK
6
CONTINUOUS
10
183.387
20
-79.2645
11
183.269
21
-79.382
0
LINE
8
BLACK
6
CONTINUOUS
10
183.269
20
-79.382
11
183.174
21
-79.5182
0
LINE
8
BLACK
6
CONTINUOUS
10
183.174
20
-79.5182
11
183.104
21
-79.6688
0
LINE
8
BLACK
6
CONTINUOUS
10
183.104
20
-79.6688
11
183.061
21
-79.8294
0
LINE
8
BLACK
6
CONTINUOUS
10
183.061
20
-79.8294
11
183.047
21
-79.9878
0
LINE
8
BLACK
6
CONTINUOUS
10
183.047
20
-79.9878
11
183.05
21
-79.995
0
LINE
8
BLACK
6
CONTINUOUS
10
183.05
20
-79.995
11
183.05
21
-82.495
0
LINE
8
BLACK
6
CONTINUOUS
10
183.05
20
-82.495
11
183.034
21
-82.6773
0
LINE
8
BLACK
6
CONTINUOUS
10
183.034
20
-82.6773
11
182.987
21
-82.8541
0
LINE
8
BLACK
6
CONTINUOUS
10
182.987
20
-82.8541
11
182.909
21
-83.02
0
LINE
8
BLACK
6
CONTINUOUS
10
182.909
20
-83.02
11
182.804
21
-83.1699
0
LINE
8
BLACK
6
CONTINUOUS
10
182.804
20
-83.1699
11
182.675
21
-83.2994
0
LINE
8
BLACK
6
CONTINUOUS
10
182.675
20
-83.2994
11
182.525
21
-83.4043
0
LINE
8
BLACK
6
CONTINUOUS
10
182.525
20
-83.4043
11
182.359
21
-83.4817
0
LINE
8
BLACK
6
CONTINUOUS
10
182.359
20
-83.4817
11
182.182
21
-83.529
0
LINE
8
BLACK
6
CONTINUOUS
10
182.182
20
-83.529
11
182
21
-83.545
0
LINE
8
BLACK
6
CONTINUOUS
10
182
20
-83.545
11
182
21
-83.545
0
LINE
8
BLACK
6
CONTINUOUS
10
182
20
-83.545
11
181
21
-83.545
0
LINE
8
BLACK
6
CONTINUOUS
10
181
20
-83.545
11
180.993
21
-83.5421
0
LINE
8
BLACK
6
CONTINUOUS
10
180.993
20
-83.5421
11
180.883
21
-83.5566
0
LINE
8
BLACK
6
CONTINUOUS
10
180.883
20
-83.5566
11
180.773
21
-83.6019
0
LINE
8
BLACK
6
CONTINUOUS
10
180.773
20
-83.6019
11
180.679
21
-83.6741
0
LINE
8
BLACK
6
CONTINUOUS
10
180.679
20
-83.6741
11
180.607
21
-83.7681
0
LINE
8
BLACK
6
CONTINUOUS
10
180.607
20
-83.7681
11
180.562
21
-83.8775
0
LINE
8
BLACK
6
CONTINUOUS
10
180.562
20
-83.8775
11
180.547
21
-83.9879
0
LINE
8
BLACK
6
CONTINUOUS
10
180.547
20
-83.9879
11
180.55
21
-83.995
0
LINE
8
BLACK
6
CONTINUOUS
10
180.55
20
-83.995
11
180.55
21
-84.595
0
LINE
8
BLACK
6
CONTINUOUS
10
180.55
20
-84.595
11
180.549
21
-84.5975
0
LINE
8
BLACK
6
CONTINUOUS
10
180.549
20
-84.5975
11
180.55
21
-84.6
0
LINE
8
BLACK
6
CONTINUOUS
10
180.55
20
-84.6
11
180.55
21
-84.6
0
LINE
8
BLACK
6
CONTINUOUS
10
180.55
20
-84.6
11
180.519
21
-84.7694
0
LINE
8
BLACK
6
CONTINUOUS
10
180.519
20
-84.7694
11
180.46
21
-84.9315
0
LINE
8
BLACK
6
CONTINUOUS
10
180.46
20
-84.9315
11
180.377
21
-85.082
0
LINE
8
BLACK
6
CONTINUOUS
10
180.377
20
-85.082
11
180.269
21
-85.2168
0
LINE
8
BLACK
6
CONTINUOUS
10
180.269
20
-85.2168
11
180.142
21
-85.3324
0
LINE
8
BLACK
6
CONTINUOUS
10
180.142
20
-85.3324
11
179.997
21
-85.4257
0
LINE
8
BLACK
6
CONTINUOUS
10
179.997
20
-85.4257
11
179.839
21
-85.4941
0
LINE
8
BLACK
6
CONTINUOUS
10
179.839
20
-85.4941
11
179.672
21
-85.5359
0
LINE
8
BLACK
6
CONTINUOUS
10
179.672
20
-85.5359
11
179.5
21
-85.55
0
LINE
8
BLACK
6
CONTINUOUS
10
179.5
20
-85.55
11
179.5
21
-85.55
0
LINE
8
BLACK
6
CONTINUOUS
10
179.5
20
-85.55
11
179.5
21
-85.55
0
LINE
8
BLACK
6
CONTINUOUS
10
179.5
20
-85.55
11
179.5
21
-85.55
0
LINE
8
BLACK
6
CONTINUOUS
10
179.5
20
-85.55
11
120
21
-85.545
0
LINE
8
BLACK
6
CONTINUOUS
10
120
20
-85.545
11
120
21
-85.545
0
LINE
8
BLACK
6
CONTINUOUS
10
120
20
-85.545
11
119.818
21
-85.5291
0
LINE
8
BLACK
6
CONTINUOUS
10
119.818
20
-85.5291
11
119.641
21
-85.4817
0
LINE
8
BLACK
6
CONTINUOUS
10
119.641
20
-85.4817
11
119.475
21
-85.4043
0
LINE
8
BLACK
6
CONTINUOUS
10
119.475
20
-85.4043
11
119.325
21
-85.2994
0
LINE
8
BLACK
6
CONTINUOUS
10
119.325
20
-85.2994
11
119.196
21
-85.1699
0
LINE
8
BLACK
6
CONTINUOUS
10
119.196
20
-85.1699
11
119.091
21
-85.02
0
LINE
8
BLACK
6
CONTINUOUS
10
119.091
20
-85.02
11
119.013
21
-84.8541
0
LINE
8
BLACK
6
CONTINUOUS
10
119.013
20
-84.8541
11
118.966
21
-84.6773
0
LINE
8
BLACK
6
CONTINUOUS
10
118.966
20
-84.6773
11
118.95
21
-84.495
0
LINE
8
BLACK
6
CONTINUOUS
10
118.95
20
-84.495
11
118.95
21
-84.495
0
LINE
8
BLACK
6
CONTINUOUS
10
118.95
20
-84.495
11
118.95
21
-84.495
0
LINE
8
BLACK
6
CONTINUOUS
10
118.95
20
-84.495
11
118.95
21
-83.995
0
LINE
8
BLACK
6
CONTINUOUS
10
118.95
20
-83.995
11
118.953
21
-83.9879
0
LINE
8
BLACK
6
CONTINUOUS
10
118.953
20
-83.9879
11
118.938
21
-83.8775
0
LINE
8
BLACK
6
CONTINUOUS
10
118.938
20
-83.8775
11
118.893
21
-83.7681
0
LINE
8
BLACK
6
CONTINUOUS
10
118.893
20
-83.7681
11
118.821
21
-83.6741
0
LINE
8
BLACK
6
CONTINUOUS
10
118.821
20
-83.6741
11
118.727
21
-83.6019
0
LINE
8
BLACK
6
CONTINUOUS
10
118.727
20
-83.6019
11
118.617
21
-83.5566
0
LINE
8
BLACK
6
CONTINUOUS
10
118.617
20
-83.5566
11
118.507
21
-83.5421
0
LINE
8
BLACK
6
CONTINUOUS
10
118.507
20
-83.5421
11
118.5
21
-83.545
0
LINE
8
BLACK
6
CONTINUOUS
10
118.5
20
-83.545
11
117.5
21
-83.545
0
LINE
8
BLACK
6
CONTINUOUS
10
117.5
20
-83.545
11
117.318
21
-83.5291
0
LINE
8
BLACK
6
CONTINUOUS
10
117.318
20
-83.5291
11
117.141
21
-83.4817
0
LINE
8
BLACK
6
CONTINUOUS
10
117.141
20
-83.4817
11
116.975
21
-83.4043
0
LINE
8
BLACK
6
CONTINUOUS
10
116.975
20
-83.4043
11
116.825
21
-83.2994
0
LINE
8
BLACK
6
CONTINUOUS
10
116.825
20
-83.2994
11
116.696
21
-83.1699
0
LINE
8
BLACK
6
CONTINUOUS
10
116.696
20
-83.1699
11
116.591
21
-83.02
0
LINE
8
BLACK
6
CONTINUOUS
10
116.591
20
-83.02
11
116.513
21
-82.8541
0
LINE
8
BLACK
6
CONTINUOUS
10
116.513
20
-82.8541
11
116.466
21
-82.6773
0
LINE
8
BLACK
6
CONTINUOUS
10
116.466
20
-82.6773
11
116.45
21
-82.495
0
LINE
8
BLACK
6
CONTINUOUS
10
116.45
20
-82.495
11
116.45
21
-82.495
0
LINE
8
BLACK
6
CONTINUOUS
10
116.45
20
-82.495
11
116.45
21
-79.995
0
LINE
8
BLACK
6
CONTINUOUS
10
116.45
20
-79.995
11
116.453
21
-79.9878
0
LINE
8
BLACK
6
CONTINUOUS
10
116.453
20
-79.9878
11
116.439
21
-79.8294
0
LINE
8
BLACK
6
CONTINUOUS
10
116.439
20
-79.8294
11
116.396
21
-79.6689
0
LINE
8
BLACK
6
CONTINUOUS
10
116.396
20
-79.6689
11
116.326
21
-79.5182
0
LINE
8
BLACK
6
CONTINUOUS
10
116.326
20
-79.5182
11
116.231
21
-79.382
0
LINE
8
BLACK
6
CONTINUOUS
10
116.231
20
-79.382
11
116.113
21
-79.2645
0
LINE
8
BLACK
6
CONTINUOUS
10
116.113
20
-79.2645
11
115.977
21
-79.1691
0
LINE
8
BLACK
6
CONTINUOUS
10
115.977
20
-79.1691
11
115.826
21
-79.0989
0
LINE
8
BLACK
6
CONTINUOUS
10
115.826
20
-79.0989
11
115.666
21
-79.0559
0
LINE
8
BLACK
6
CONTINUOUS
10
115.666
20
-79.0559
11
115.507
21
-79.042
0
LINE
8
BLACK
6
CONTINUOUS
10
115.507
20
-79.042
11
115.5
21
-79.045
0
LINE
8
BLACK
6
CONTINUOUS
10
115.5
20
-79.045
11
112
21
-79.045
0
LINE
8
BLACK
6
CONTINUOUS
10
112
20
-79.045
11
111.993
21
-79.042
0
LINE
8
BLACK
6
CONTINUOUS
10
111.993
20
-79.042
11
111.834
21
-79.0559
0
LINE
8
BLACK
6
CONTINUOUS
10
111.834
20
-79.0559
11
111.674
21
-79.0989
0
LINE
8
BLACK
6
CONTINUOUS
10
111.674
20
-79.0989
11
111.523
21
-79.1691
0
LINE
8
BLACK
6
CONTINUOUS
10
111.523
20
-79.1691
11
111.387
21
-79.2645
0
LINE
8
BLACK
6
CONTINUOUS
10
111.387
20
-79.2645
11
111.269
21
-79.382
0
LINE
8
BLACK
6
CONTINUOUS
10
111.269
20
-79.382
11
111.174
21
-79.5182
0
LINE
8
BLACK
6
CONTINUOUS
10
111.174
20
-79.5182
11
111.104
21
-79.6688
0
LINE
8
BLACK
6
CONTINUOUS
10
111.104
20
-79.6688
11
111.061
21
-79.8294
0
LINE
8
BLACK
6
CONTINUOUS
10
111.061
20
-79.8294
11
111.047
21
-79.9878
0
LINE
8
BLACK
6
CONTINUOUS
10
111.047
20
-79.9878
11
111.05
21
-79.995
0
LINE
8
BLACK
6
CONTINUOUS
10
111.05
20
-79.995
11
111.05
21
-82.495
0
LINE
8
BLACK
6
CONTINUOUS
10
111.05
20
-82.495
11
111.034
21
-82.6773
0
LINE
8
BLACK
6
CONTINUOUS
10
111.034
20
-82.6773
11
110.987
21
-82.8541
0
LINE
8
BLACK
6
CONTINUOUS
10
110.987
20
-82.8541
11
110.909
21
-83.02
0
LINE
8
BLACK
6
CONTINUOUS
10
110.909
20
-83.02
11
110.804
21
-83.1699
0
LINE
8
BLACK
6
CONTINUOUS
10
110.804
20
-83.1699
11
110.675
21
-83.2994
0
LINE
8
BLACK
6
CONTINUOUS
10
110.675
20
-83.2994
11
110.525
21
-83.4043
0
LINE
8
BLACK
6
CONTINUOUS
10
110.525
20
-83.4043
11
110.359
21
-83.4817
0
LINE
8
BLACK
6
CONTINUOUS
10
110.359
20
-83.4817
11
110.182
21
-83.529
0
LINE
8
BLACK
6
CONTINUOUS
10
110.182
20
-83.529
11
110
21
-83.545
0
LINE
8
BLACK
6
CONTINUOUS
10
110
20
-83.545
11
110
21
-83.545
0
LINE
8
BLACK
6
CONTINUOUS
10
110
20
-83.545
11
109
21
-83.545
0
LINE
8
BLACK
6
CONTINUOUS
10
109
20
-83.545
11
108.993
21
-83.5421
0
LINE
8
BLACK
6
CONTINUOUS
10
108.993
20
-83.5421
11
108.883
21
-83.5566
0
LINE
8
BLACK
6
CONTINUOUS
10
108.883
20
-83.5566
11
108.773
21
-83.6019
0
LINE
8
BLACK
6
CONTINUOUS
10
108.773
20
-83.6019
11
108.679
21
-83.6741
0
LINE
8
BLACK
6
CONTINUOUS
10
108.679
20
-83.6741
11
108.607
21
-83.7681
0
LINE
8
BLACK
6
CONTINUOUS
10
108.607
20
-83.7681
11
108.562
21
-83.8775
0
LINE
8
BLACK
6
CONTINUOUS
10
108.562
20
-83.8775
11
108.547
21
-83.9879
0
LINE
8
BLACK
6
CONTINUOUS
10
108.547
20
-83.9879
11
108.55
21
-83.995
0
LINE
8
BLACK
6
CONTINUOUS
10
108.55
20
-83.995
11
108.55
21
-84.595
0
LINE
8
BLACK
6
CONTINUOUS
10
108.55
20
-84.595
11
108.549
21
-84.5975
0
LINE
8
BLACK
6
CONTINUOUS
10
108.549
20
-84.5975
11
108.55
21
-84.6
0
LINE
8
BLACK
6
CONTINUOUS
10
108.55
20
-84.6
11
108.55
21
-84.6
0
LINE
8
BLACK
6
CONTINUOUS
10
108.55
20
-84.6
11
108.519
21
-84.7694
0
LINE
8
BLACK
6
CONTINUOUS
10
108.519
20
-84.7694
11
108.46
21
-84.9315
0
LINE
8
BLACK
6
CONTINUOUS
10
108.46
20
-84.9315
11
108.377
21
-85.082
0
LINE
8
BLACK
6
CONTINUOUS
10
108.377
20
-85.082
11
108.269
21
-85.2168
0
LINE
8
BLACK
6
CONTINUOUS
10
108.269
20
-85.2168
11
108.142
21
-85.3324
0
LINE
8
BLACK
6
CONTINUOUS
10
108.142
20
-85.3324
11
107.997
21
-85.4257
0
LINE
8
BLACK
6
CONTINUOUS
10
107.997
20
-85.4257
11
107.839
21
-85.4941
0
LINE
8
BLACK
6
CONTINUOUS
10
107.839
20
-85.4941
11
107.672
21
-85.5359
0
LINE
8
BLACK
6
CONTINUOUS
10
107.672
20
-85.5359
11
107.5
21
-85.55
0
LINE
8
BLACK
6
CONTINUOUS
10
107.5
20
-85.55
11
107.5
21
-85.55
0
LINE
8
BLACK
6
CONTINUOUS
10
107.5
20
-85.55
11
73
21
-85.55
0
LINE
8
BLACK
6
CONTINUOUS
10
73
20
-85.55
11
72.7324
21
-85.5325
0
LINE
8
BLACK
6
CONTINUOUS
10
72.7324
20
-85.5325
11
72.4694
21
-85.4801
0
LINE
8
BLACK
6
CONTINUOUS
10
72.4694
20
-85.4801
11
72.2155
21
-85.394
0
LINE
8
BLACK
6
CONTINUOUS
10
72.2155
20
-85.394
11
71.975
21
-85.2754
0
LINE
8
BLACK
6
CONTINUOUS
10
71.975
20
-85.2754
11
71.752
21
-85.1264
0
LINE
8
BLACK
6
CONTINUOUS
10
71.752
20
-85.1264
11
71.5504
21
-84.9496
0
LINE
8
BLACK
6
CONTINUOUS
10
71.5504
20
-84.9496
11
71.3736
21
-84.748
0
LINE
8
BLACK
6
CONTINUOUS
10
71.3736
20
-84.748
11
71.2246
21
-84.525
0
LINE
8
BLACK
6
CONTINUOUS
10
71.2246
20
-84.525
11
71.106
21
-84.2845
0
LINE
8
BLACK
6
CONTINUOUS
10
71.106
20
-84.2845
11
71.0199
21
-84.0306
0
LINE
8
BLACK
6
CONTINUOUS
10
71.0199
20
-84.0306
11
70.9675
21
-83.7676
0
LINE
8
BLACK
6
CONTINUOUS
10
70.9675
20
-83.7676
11
70.95
21
-83.5
0
LINE
8
BLACK
6
CONTINUOUS
10
70.95
20
-83.5
11
70.95
21
-77.5
0
LINE
8
BLACK
6
CONTINUOUS
10
70.95
20
-77.5
11
70.9536
21
-77.4913
0
LINE
8
BLACK
6
CONTINUOUS
10
70.9536
20
-77.4913
11
70.9375
21
-77.2449
0
LINE
8
BLACK
6
CONTINUOUS
10
70.9375
20
-77.2449
11
70.8876
21
-76.9942
0
LINE
8
BLACK
6
CONTINUOUS
10
70.8876
20
-76.9942
11
70.8054
21
-76.7522
0
LINE
8
BLACK
6
CONTINUOUS
10
70.8054
20
-76.7522
11
70.6924
21
-76.5229
0
LINE
8
BLACK
6
CONTINUOUS
10
70.6924
20
-76.5229
11
70.5504
21
-76.3104
0
LINE
8
BLACK
6
CONTINUOUS
10
70.5504
20
-76.3104
11
70.3818
21
-76.1182
0
LINE
8
BLACK
6
CONTINUOUS
10
70.3818
20
-76.1182
11
70.1896
21
-75.9496
0
LINE
8
BLACK
6
CONTINUOUS
10
70.1896
20
-75.9496
11
69.9771
21
-75.8076
0
LINE
8
BLACK
6
CONTINUOUS
10
69.9771
20
-75.8076
11
69.7478
21
-75.6946
0
LINE
8
BLACK
6
CONTINUOUS
10
69.7478
20
-75.6946
11
69.5058
21
-75.6124
0
LINE
8
BLACK
6
CONTINUOUS
10
69.5058
20
-75.6124
11
69.2551
21
-75.5625
0
LINE
8
BLACK
6
CONTINUOUS
10
69.2551
20
-75.5625
11
69.0087
21
-75.5464
0
LINE
8
BLACK
6
CONTINUOUS
10
69.0087
20
-75.5464
11
69
21
-75.55
0
LINE
8
BLACK
6
CONTINUOUS
10
69
20
-75.55
11
40
21
-75.55
0
LINE
8
BLACK
6
CONTINUOUS
10
40
20
-75.55
11
39.9913
21
-75.5464
0
LINE
8
BLACK
6
CONTINUOUS
10
39.9913
20
-75.5464
11
39.7449
21
-75.5625
0
LINE
8
BLACK
6
CONTINUOUS
10
39.7449
20
-75.5625
11
39.4942
21
-75.6124
0
LINE
8
BLACK
6
CONTINUOUS
10
39.4942
20
-75.6124
11
39.2522
21
-75.6946
0
LINE
8
BLACK
6
CONTINUOUS
10
39.2522
20
-75.6946
11
39.0229
21
-75.8076
0
LINE
8
BLACK
6
CONTINUOUS
10
39.0229
20
-75.8076
11
38.8104
21
-75.9496
0
LINE
8
BLACK
6
CONTINUOUS
10
38.8104
20
-75.9496
11
38.6182
21
-76.1182
0
LINE
8
BLACK
6
CONTINUOUS
10
38.6182
20
-76.1182
11
38.4496
21
-76.3104
0
LINE
8
BLACK
6
CONTINUOUS
10
38.4496
20
-76.3104
11
38.3076
21
-76.5229
0
LINE
8
BLACK
6
CONTINUOUS
10
38.3076
20
-76.5229
11
38.1946
21
-76.7522
0
LINE
8
BLACK
6
CONTINUOUS
10
38.1946
20
-76.7522
11
38.1124
21
-76.9942
0
LINE
8
BLACK
6
CONTINUOUS
10
38.1124
20
-76.9942
11
38.0625
21
-77.2449
0
LINE
8
BLACK
6
CONTINUOUS
10
38.0625
20
-77.2449
11
38.0464
21
-77.4913
0
LINE
8
BLACK
6
CONTINUOUS
10
38.0464
20
-77.4913
11
38.05
21
-77.5
0
LINE
8
BLACK
6
CONTINUOUS
10
38.05
20
-77.5
11
38.05
21
-82.495
0
LINE
8
BLACK
6
CONTINUOUS
10
38.05
20
-82.495
11
38.034
21
-82.6773
0
LINE
8
BLACK
6
CONTINUOUS
10
38.034
20
-82.6773
11
37.9867
21
-82.8541
0
LINE
8
BLACK
6
CONTINUOUS
10
37.9867
20
-82.8541
11
37.9093
21
-83.02
0
LINE
8
BLACK
6
CONTINUOUS
10
37.9093
20
-83.02
11
37.8043
21
-83.1699
0
LINE
8
BLACK
6
CONTINUOUS
10
37.8043
20
-83.1699
11
37.6749
21
-83.2994
0
LINE
8
BLACK
6
CONTINUOUS
10
37.6749
20
-83.2994
11
37.525
21
-83.4043
0
LINE
8
BLACK
6
CONTINUOUS
10
37.525
20
-83.4043
11
37.3591
21
-83.4817
0
LINE
8
BLACK
6
CONTINUOUS
10
37.3591
20
-83.4817
11
37.1823
21
-83.529
0
LINE
8
BLACK
6
CONTINUOUS
10
37.1823
20
-83.529
11
37
21
-83.545
0
LINE
8
BLACK
6
CONTINUOUS
10
37
20
-83.545
11
37
21
-83.545
0
LINE
8
BLACK
6
CONTINUOUS
10
37
20
-83.545
11
36
21
-83.545
0
LINE
8
BLACK
6
CONTINUOUS
10
36
20
-83.545
11
35.9929
21
-83.5421
0
LINE
8
BLACK
6
CONTINUOUS
10
35.9929
20
-83.5421
11
35.8825
21
-83.5566
0
LINE
8
BLACK
6
CONTINUOUS
10
35.8825
20
-83.5566
11
35.7731
21
-83.6019
0
LINE
8
BLACK
6
CONTINUOUS
10
35.7731
20
-83.6019
11
35.6791
21
-83.6741
0
LINE
8
BLACK
6
CONTINUOUS
10
35.6791
20
-83.6741
11
35.6069
21
-83.7681
0
LINE
8
BLACK
6
CONTINUOUS
10
35.6069
20
-83.7681
11
35.5616
21
-83.8775
0
LINE
8
BLACK
6
CONTINUOUS
10
35.5616
20
-83.8775
11
35.5471
21
-83.9879
0
LINE
8
BLACK
6
CONTINUOUS
10
35.5471
20
-83.9879
11
35.55
21
-83.995
0
LINE
8
BLACK
6
CONTINUOUS
10
35.55
20
-83.995
11
35.55
21
-84.595
0
LINE
8
BLACK
6
CONTINUOUS
10
35.55
20
-84.595
11
35.549
21
-84.5975
0
LINE
8
BLACK
6
CONTINUOUS
10
35.549
20
-84.5975
11
35.5498
21
-84.6
0
LINE
8
BLACK
6
CONTINUOUS
10
35.5498
20
-84.6
11
35.5497
21
-84.6
0
LINE
8
BLACK
6
CONTINUOUS
10
35.5497
20
-84.6
11
35.5187
21
-84.7694
0
LINE
8
BLACK
6
CONTINUOUS
10
35.5187
20
-84.7694
11
35.4604
21
-84.9315
0
LINE
8
BLACK
6
CONTINUOUS
10
35.4604
20
-84.9315
11
35.3766
21
-85.082
0
LINE
8
BLACK
6
CONTINUOUS
10
35.3766
20
-85.082
11
35.2694
21
-85.2168
0
LINE
8
BLACK
6
CONTINUOUS
10
35.2694
20
-85.2168
11
35.1417
21
-85.3324
0
LINE
8
BLACK
6
CONTINUOUS
10
35.1417
20
-85.3324
11
34.9969
21
-85.4257
0
LINE
8
BLACK
6
CONTINUOUS
10
34.9969
20
-85.4257
11
34.8388
21
-85.4941
0
LINE
8
BLACK
6
CONTINUOUS
10
34.8388
20
-85.4941
11
34.6717
21
-85.5359
0
LINE
8
BLACK
6
CONTINUOUS
10
34.6717
20
-85.5359
11
34.5
21
-85.55
0
LINE
8
BLACK
6
CONTINUOUS
10
34.5
20
-85.55
11
34.5
21
-85.55
0
LINE
8
BLACK
6
CONTINUOUS
10
34.5
20
-85.55
11
22
21
-85.55
0
LINE
8
BLACK
6
CONTINUOUS
10
22
20
-85.55
11
21.7324
21
-85.5325
0
LINE
8
BLACK
6
CONTINUOUS
10
21.7324
20
-85.5325
11
21.4694
21
-85.4801
0
LINE
8
BLACK
6
CONTINUOUS
10
21.4694
20
-85.4801
11
21.2155
21
-85.394
0
LINE
8
BLACK
6
CONTINUOUS
10
21.2155
20
-85.394
11
20.975
21
-85.2754
0
LINE
8
BLACK
6
CONTINUOUS
10
20.975
20
-85.2754
11
20.752
21
-85.1264
0
LINE
8
BLACK
6
CONTINUOUS
10
20.752
20
-85.1264
11
20.5504
21
-84.9496
0
LINE
8
BLACK
6
CONTINUOUS
10
20.5504
20
-84.9496
11
20.3736
21
-84.748
0
LINE
8
BLACK
6
CONTINUOUS
10
20.3736
20
-84.748
11
20.2246
21
-84.525
0
LINE
8
BLACK
6
CONTINUOUS
10
20.2246
20
-84.525
11
20.106
21
-84.2845
0
LINE
8
BLACK
6
CONTINUOUS
10
20.106
20
-84.2845
11
20.0199
21
-84.0306
0
LINE
8
BLACK
6
CONTINUOUS
10
20.0199
20
-84.0306
11
19.9675
21
-83.7676
0
LINE
8
BLACK
6
CONTINUOUS
10
19.9675
20
-83.7676
11
19.95
21
-83.5
0
LINE
8
BLACK
6
CONTINUOUS
10
19.95
20
-83.5
11
19.95
21
-54.5
0
LINE
8
BLACK
6
CONTINUOUS
10
19.95
20
-54.5
11
19.9675
21
-54.2324
0
LINE
8
BLACK
6
CONTINUOUS
10
19.9675
20
-54.2324
11
20.0199
21
-53.9694
0
LINE
8
BLACK
6
CONTINUOUS
10
20.0199
20
-53.9694
11
20.106
21
-53.7155
0
LINE
8
BLACK
6
CONTINUOUS
10
20.106
20
-53.7155
11
20.2246
21
-53.475
0
LINE
8
BLACK
6
CONTINUOUS
10
20.2246
20
-53.475
11
20.3736
21
-53.252
0
LINE
8
BLACK
6
CONTINUOUS
10
20.3736
20
-53.252
11
20.5504
21
-53.0504
0
LINE
8
BLACK
6
CONTINUOUS
10
20.5504
20
-53.0504
11
20.752
21
-52.8736
0
LINE
8
BLACK
6
CONTINUOUS
10
20.752
20
-52.8736
11
20.975
21
-52.7246
0
LINE
8
BLACK
6
CONTINUOUS
10
20.975
20
-52.7246
11
21.2155
21
-52.606
0
LINE
8
BLACK
6
CONTINUOUS
10
21.2155
20
-52.606
11
21.4694
21
-52.5199
0
LINE
8
BLACK
6
CONTINUOUS
10
21.4694
20
-52.5199
11
21.7324
21
-52.4675
0
LINE
8
BLACK
6
CONTINUOUS
10
21.7324
20
-52.4675
11
22
21
-52.45
0
LINE
8
BLACK
6
CONTINUOUS
10
22
20
-52.45
11
31.1064
21
-52.45
0
LINE
8
BLACK
6
CONTINUOUS
10
31.1064
20
-52.45
11
31.1068
21
-52.4501
0
LINE
8
BLACK
6
CONTINUOUS
10
31.1068
20
-52.4501
11
31.1071
21
-52.45
0
LINE
8
BLACK
6
CONTINUOUS
10
31.1071
20
-52.45
11
31.1071
21
-52.45
0
LINE
8
BLACK
6
CONTINUOUS
10
31.1071
20
-52.45
11
31.2283
21
-52.4651
0
LINE
8
BLACK
6
CONTINUOUS
10
31.2283
20
-52.4651
11
31.3432
21
-52.5067
0
LINE
8
BLACK
6
CONTINUOUS
10
31.3432
20
-52.5067
11
31.4461
21
-52.5725
0
LINE
8
BLACK
6
CONTINUOUS
10
31.4461
20
-52.5725
11
31.5319
21
-52.6594
0
LINE
8
BLACK
6
CONTINUOUS
10
31.5319
20
-52.6594
11
31.5964
21
-52.7632
0
LINE
8
BLACK
6
CONTINUOUS
10
31.5964
20
-52.7632
11
31.6365
21
-52.8786
0
LINE
8
BLACK
6
CONTINUOUS
10
31.6365
20
-52.8786
11
31.6469
21
-52.9722
0
LINE
8
BLACK
6
CONTINUOUS
10
31.6469
20
-52.9722
11
31.6587
21
-52.9889
0
LINE
8
BLACK
6
CONTINUOUS
10
31.6587
20
-52.9889
11
31.6569
21
-52.9999
0
LINE
8
BLACK
6
CONTINUOUS
10
31.6569
20
-52.9999
11
31.7648
21
-53.3886
0
LINE
8
BLACK
6
CONTINUOUS
10
31.7648
20
-53.3886
11
31.9121
21
-53.7752
0
LINE
8
BLACK
6
CONTINUOUS
10
31.9121
20
-53.7752
11
32.0945
21
-54.1466
0
LINE
8
BLACK
6
CONTINUOUS
10
32.0945
20
-54.1466
11
32.3106
21
-54.4994
0
LINE
8
BLACK
6
CONTINUOUS
10
32.3106
20
-54.4994
11
32.5584
21
-54.8307
0
LINE
8
BLACK
6
CONTINUOUS
10
32.5584
20
-54.8307
11
32.8359
21
-55.1376
0
LINE
8
BLACK
6
CONTINUOUS
10
32.8359
20
-55.1376
11
33.1407
21
-55.4174
0
LINE
8
BLACK
6
CONTINUOUS
10
33.1407
20
-55.4174
11
33.4701
21
-55.6678
0
LINE
8
BLACK
6
CONTINUOUS
10
33.4701
20
-55.6678
11
33.8213
21
-55.8865
0
LINE
8
BLACK
6
CONTINUOUS
10
33.8213
20
-55.8865
11
34.1912
21
-56.0718
0
LINE
8
BLACK
6
CONTINUOUS
10
34.1912
20
-56.0718
11
34.5767
21
-56.2219
0
LINE
8
BLACK
6
CONTINUOUS
10
34.5767
20
-56.2219
11
34.9745
21
-56.3357
0
LINE
8
BLACK
6
CONTINUOUS
10
34.9745
20
-56.3357
11
35.3812
21
-56.4121
0
LINE
8
BLACK
6
CONTINUOUS
10
35.3812
20
-56.4121
11
35.7931
21
-56.4504
0
LINE
8
BLACK
6
CONTINUOUS
10
35.7931
20
-56.4504
11
36.2069
21
-56.4504
0
LINE
8
BLACK
6
CONTINUOUS
10
36.2069
20
-56.4504
11
36.6188
21
-56.4121
0
LINE
8
BLACK
6
CONTINUOUS
10
36.6188
20
-56.4121
11
37.0255
21
-56.3357
0
LINE
8
BLACK
6
CONTINUOUS
10
37.0255
20
-56.3357
11
37.4233
21
-56.2219
0
LINE
8
BLACK
6
CONTINUOUS
10
37.4233
20
-56.2219
11
37.8088
21
-56.0718
0
LINE
8
BLACK
6
CONTINUOUS
10
37.8088
20
-56.0718
11
38.1787
21
-55.8865
0
LINE
8
BLACK
6
CONTINUOUS
10
38.1787
20
-55.8865
11
38.5299
21
-55.6678
0
LINE
8
BLACK
6
CONTINUOUS
10
38.5299
20
-55.6678
11
38.8593
21
-55.4174
0
LINE
8
BLACK
6
CONTINUOUS
10
38.8593
20
-55.4174
11
39.1641
21
-55.1376
0
LINE
8
BLACK
6
CONTINUOUS
10
39.1641
20
-55.1376
11
39.4416
21
-54.8307
0
LINE
8
BLACK
6
CONTINUOUS
10
39.4416
20
-54.8307
11
39.6894
21
-54.4994
0
LINE
8
BLACK
6
CONTINUOUS
10
39.6894
20
-54.4994
11
39.9055
21
-54.1466
0
LINE
8
BLACK
6
CONTINUOUS
10
39.9055
20
-54.1466
11
40.0879
21
-53.7752
0
LINE
8
BLACK
6
CONTINUOUS
10
40.0879
20
-53.7752
11
40.2352
21
-53.3886
0
LINE
8
BLACK
6
CONTINUOUS
10
40.2352
20
-53.3886
11
40.3419
21
-53.0045
0
LINE
8
BLACK
6
CONTINUOUS
10
40.3419
20
-53.0045
11
40.34
21
-53
0
LINE
8
BLACK
6
CONTINUOUS
10
40.34
20
-53
11
40.354
21
-52.8754
0
LINE
8
BLACK
6
CONTINUOUS
10
40.354
20
-52.8754
11
40.3955
21
-52.757
0
LINE
8
BLACK
6
CONTINUOUS
10
40.3955
20
-52.757
11
40.4622
21
-52.6508
0
LINE
8
BLACK
6
CONTINUOUS
10
40.4622
20
-52.6508
11
40.5508
21
-52.5622
0
LINE
8
BLACK
6
CONTINUOUS
10
40.5508
20
-52.5622
11
40.657
21
-52.4955
0
LINE
8
BLACK
6
CONTINUOUS
10
40.657
20
-52.4955
11
40.7754
21
-52.454
0
LINE
8
BLACK
6
CONTINUOUS
10
40.7754
20
-52.454
11
40.9
21
-52.44
0
LINE
8
BLACK
6
CONTINUOUS
10
40.9
20
-52.44
11
40.9241
21
-52.45
0
LINE
8
BLACK
6
CONTINUOUS
10
40.9241
20
-52.45
11
50
21
-52.45
0
LINE
8
BLACK
6
CONTINUOUS
10
50
20
-52.45
11
50.0087
21
-52.4536
0
LINE
8
BLACK
6
CONTINUOUS
10
50.0087
20
-52.4536
11
50.2551
21
-52.4375
0
LINE
8
BLACK
6
CONTINUOUS
10
50.2551
20
-52.4375
11
50.5058
21
-52.3876
0
LINE
8
BLACK
6
CONTINUOUS
10
50.5058
20
-52.3876
11
50.7478
21
-52.3054
0
LINE
8
BLACK
6
CONTINUOUS
10
50.7478
20
-52.3054
11
50.9771
21
-52.1924
0
LINE
8
BLACK
6
CONTINUOUS
10
50.9771
20
-52.1924
11
51.1896
21
-52.0504
0
LINE
8
BLACK
6
CONTINUOUS
10
51.1896
20
-52.0504
11
51.3818
21
-51.8818
0
LINE
8
BLACK
6
CONTINUOUS
10
51.3818
20
-51.8818
11
51.5504
21
-51.6896
0
LINE
8
BLACK
6
CONTINUOUS
10
51.5504
20
-51.6896
11
51.6924
21
-51.4771
0
LINE
8
BLACK
6
CONTINUOUS
10
51.6924
20
-51.4771
11
51.8054
21
-51.2478
0
LINE
8
BLACK
6
CONTINUOUS
10
51.8054
20
-51.2478
11
51.8876
21
-51.0058
0
LINE
8
BLACK
6
CONTINUOUS
10
51.8876
20
-51.0058
11
51.9375
21
-50.7551
0
LINE
8
BLACK
6
CONTINUOUS
10
51.9375
20
-50.7551
11
51.9536
21
-50.5087
0
LINE
8
BLACK
6
CONTINUOUS
10
51.9536
20
-50.5087
11
51.95
21
-50.5
0
LINE
8
BLACK
6
CONTINUOUS
10
51.95
20
-50.5
11
51.95
21
-50.5
0
LINE
8
BLACK
6
CONTINUOUS
10
51.95
20
-50.5
11
51.95
21
-50.5
0
LINE
8
BLACK
6
CONTINUOUS
10
51.95
20
-50.5
11
51.9525
21
-47
0
LINE
8
BLACK
6
CONTINUOUS
10
51.9525
20
-47
11
51.9558
21
-46.9919
0
LINE
8
BLACK
6
CONTINUOUS
10
51.9558
20
-46.9919
11
51.9407
21
-46.7527
0
LINE
8
BLACK
6
CONTINUOUS
10
51.9407
20
-46.7527
11
51.8938
21
-46.5094
0
LINE
8
BLACK
6
CONTINUOUS
10
51.8938
20
-46.5094
11
51.8166
21
-46.274
0
LINE
8
BLACK
6
CONTINUOUS
10
51.8166
20
-46.274
11
51.7103
21
-46.0502
0
LINE
8
BLACK
6
CONTINUOUS
10
51.7103
20
-46.0502
11
51.5765
21
-45.8416
0
LINE
8
BLACK
6
CONTINUOUS
10
51.5765
20
-45.8416
11
51.4175
21
-45.6516
0
LINE
8
BLACK
6
CONTINUOUS
10
51.4175
20
-45.6516
11
51.2357
21
-45.4833
0
LINE
8
BLACK
6
CONTINUOUS
10
51.2357
20
-45.4833
11
51.0341
21
-45.3393
0
LINE
8
BLACK
6
CONTINUOUS
10
51.0341
20
-45.3393
11
50.8158
21
-45.2219
0
LINE
8
BLACK
6
CONTINUOUS
10
50.8158
20
-45.2219
11
50.5846
21
-45.133
0
LINE
8
BLACK
6
CONTINUOUS
10
50.5846
20
-45.133
11
50.3439
21
-45.0741
0
LINE
8
BLACK
6
CONTINUOUS
10
50.3439
20
-45.0741
11
50.1069
21
-45.0471
0
LINE
8
BLACK
6
CONTINUOUS
10
50.1069
20
-45.0471
11
50.1
21
-45.05
0
LINE
8
BLACK
6
CONTINUOUS
10
50.1
20
-45.05
11
35
21
-45.05
0
LINE
8
BLACK
6
CONTINUOUS
10
35
20
-45.05
11
34.7324
21
-45.0325
0
LINE
8
BLACK
6
CONTINUOUS
10
34.7324
20
-45.0325
11
34.4694
21
-44.9801
0
LINE
8
BLACK
6
CONTINUOUS
10
34.4694
20
-44.9801
11
34.2155
21
-44.894
0
LINE
8
BLACK
6
CONTINUOUS
10
34.2155
20
-44.894
11
33.975
21
-44.7754
0
LINE
8
BLACK
6
CONTINUOUS
10
33.975
20
-44.7754
11
33.752
21
-44.6264
0
LINE
8
BLACK
6
CONTINUOUS
10
33.752
20
-44.6264
11
33.5504
21
-44.4496
0
LINE
8
BLACK
6
CONTINUOUS
10
33.5504
20
-44.4496
11
33.3736
21
-44.248
0
LINE
8
BLACK
6
CONTINUOUS
10
33.3736
20
-44.248
11
33.2246
21
-44.025
0
LINE
8
BLACK
6
CONTINUOUS
10
33.2246
20
-44.025
11
33.106
21
-43.7845
0
LINE
8
BLACK
6
CONTINUOUS
10
33.106
20
-43.7845
11
33.0199
21
-43.5306
0
LINE
8
BLACK
6
CONTINUOUS
10
33.0199
20
-43.5306
11
32.9675
21
-43.2676
0
LINE
8
BLACK
6
CONTINUOUS
10
32.9675
20
-43.2676
11
32.95
21
-43
0
LINE
8
BLACK
6
CONTINUOUS
10
32.95
20
-43
11
32.95
21
-32.5
0
LINE
8
BLACK
6
CONTINUOUS
10
32.95
20
-32.5
11
32.9536
21
-32.4913
0
LINE
8
BLACK
6
CONTINUOUS
10
32.9536
20
-32.4913
11
32.9375
21
-32.2449
0
LINE
8
BLACK
6
CONTINUOUS
10
32.9375
20
-32.2449
11
32.8876
21
-31.9942
0
LINE
8
BLACK
6
CONTINUOUS
10
32.8876
20
-31.9942
11
32.8054
21
-31.7522
0
LINE
8
BLACK
6
CONTINUOUS
10
32.8054
20
-31.7522
11
32.6924
21
-31.5229
0
LINE
8
BLACK
6
CONTINUOUS
10
32.6924
20
-31.5229
11
32.5504
21
-31.3104
0
LINE
8
BLACK
6
CONTINUOUS
10
32.5504
20
-31.3104
11
32.3818
21
-31.1182
0
LINE
8
BLACK
6
CONTINUOUS
10
32.3818
20
-31.1182
11
32.1896
21
-30.9496
0
LINE
8
BLACK
6
CONTINUOUS
10
32.1896
20
-30.9496
11
31.9771
21
-30.8076
0
LINE
8
BLACK
6
CONTINUOUS
10
31.9771
20
-30.8076
11
31.7478
21
-30.6946
0
LINE
8
BLACK
6
CONTINUOUS
10
31.7478
20
-30.6946
11
31.5058
21
-30.6124
0
LINE
8
BLACK
6
CONTINUOUS
10
31.5058
20
-30.6124
11
31.2551
21
-30.5625
0
LINE
8
BLACK
6
CONTINUOUS
10
31.2551
20
-30.5625
11
31.0087
21
-30.5464
0
LINE
8
BLACK
6
CONTINUOUS
10
31.0087
20
-30.5464
11
31
21
-30.55
0
LINE
8
BLACK
6
CONTINUOUS
10
31
20
-30.55
11
22
21
-30.55
0
LINE
8
BLACK
6
CONTINUOUS
10
22
20
-30.55
11
21.7324
21
-30.5325
0
LINE
8
BLACK
6
CONTINUOUS
10
21.7324
20
-30.5325
11
21.4694
21
-30.4801
0
LINE
8
BLACK
6
CONTINUOUS
10
21.4694
20
-30.4801
11
21.2155
21
-30.394
0
LINE
8
BLACK
6
CONTINUOUS
10
21.2155
20
-30.394
11
20.975
21
-30.2754
0
LINE
8
BLACK
6
CONTINUOUS
10
20.975
20
-30.2754
11
20.752
21
-30.1264
0
LINE
8
BLACK
6
CONTINUOUS
10
20.752
20
-30.1264
11
20.5504
21
-29.9496
0
LINE
8
BLACK
6
CONTINUOUS
10
20.5504
20
-29.9496
11
20.3736
21
-29.748
0
LINE
8
BLACK
6
CONTINUOUS
10
20.3736
20
-29.748
11
20.2246
21
-29.525
0
LINE
8
BLACK
6
CONTINUOUS
10
20.2246
20
-29.525
11
20.106
21
-29.2845
0
LINE
8
BLACK
6
CONTINUOUS
10
20.106
20
-29.2845
11
20.0199
21
-29.0306
0
LINE
8
BLACK
6
CONTINUOUS
10
20.0199
20
-29.0306
11
19.9675
21
-28.7676
0
LINE
8
BLACK
6
CONTINUOUS
10
19.9675
20
-28.7676
11
19.95
21
-28.5
0
LINE
8
BLACK
6
CONTINUOUS
10
19.95
20
-28.5
11
19.95
21
-22
0
LINE
8
BLACK
6
CONTINUOUS
10
19.95
20
-22
11
19.9675
21
-21.7324
0
LINE
8
BLACK
6
CONTINUOUS
10
19.9675
20
-21.7324
11
20.0199
21
-21.4694
0
LINE
8
BLACK
6
CONTINUOUS
10
20.0199
20
-21.4694
11
20.106
21
-21.2155
0
LINE
8
BLACK
6
CONTINUOUS
10
20.106
20
-21.2155
11
20.2246
21
-20.975
0
LINE
8
BLACK
6
CONTINUOUS
10
20.2246
20
-20.975
11
20.3736
21
-20.752
0
LINE
8
BLACK
6
CONTINUOUS
10
20.3736
20
-20.752
11
20.5504
21
-20.5504
0
LINE
8
BLACK
6
CONTINUOUS
10
20.5504
20
-20.5504
11
20.752
21
-20.3736
0
LINE
8
BLACK
6
CONTINUOUS
10
20.752
20
-20.3736
11
20.975
21
-20.2246
0
LINE
8
BLACK
6
CONTINUOUS
10
20.975
20
-20.2246
11
21.2155
21
-20.106
0
LINE
8
BLACK
6
CONTINUOUS
10
21.2155
20
-20.106
11
21.4694
21
-20.0199
0
LINE
8
BLACK
6
CONTINUOUS
10
21.4694
20
-20.0199
11
21.7324
21
-19.9675
0
LINE
8
BLACK
6
CONTINUOUS
10
21.7324
20
-19.9675
11
22
21
-19.95
0
LINE
8
BLACK
6
CONTINUOUS
10
22
20
-19.95
11
34.5
21
-19.95
0
LINE
8
BLACK
6
CONTINUOUS
10
34.5
20
-19.95
11
34.6823
21
-19.966
0
LINE
8
BLACK
6
CONTINUOUS
10
34.6823
20
-19.966
11
34.8591
21
-20.0133
0
LINE
8
BLACK
6
CONTINUOUS
10
34.8591
20
-20.0133
11
35.025
21
-20.0907
0
LINE
8
BLACK
6
CONTINUOUS
10
35.025
20
-20.0907
11
35.1749
21
-20.1957
0
LINE
8
BLACK
6
CONTINUOUS
10
35.1749
20
-20.1957
11
35.3043
21
-20.3251
0
LINE
8
BLACK
6
CONTINUOUS
10
35.3043
20
-20.3251
11
35.4093
21
-20.475
0
LINE
8
BLACK
6
CONTINUOUS
10
35.4093
20
-20.475
11
35.4867
21
-20.6409
0
LINE
8
BLACK
6
CONTINUOUS
10
35.4867
20
-20.6409
11
35.534
21
-20.8177
0
LINE
8
BLACK
6
CONTINUOUS
10
35.534
20
-20.8177
11
35.55
21
-21
0
LINE
8
BLACK
6
CONTINUOUS
10
35.55
20
-21
11
35.55
21
-21.5
0
LINE
8
BLACK
6
CONTINUOUS
10
35.55
20
-21.5
11
35.5471
21
-21.5071
0
LINE
8
BLACK
6
CONTINUOUS
10
35.5471
20
-21.5071
11
35.5616
21
-21.6175
0
LINE
8
BLACK
6
CONTINUOUS
10
35.5616
20
-21.6175
11
35.6069
21
-21.7269
0
LINE
8
BLACK
6
CONTINUOUS
10
35.6069
20
-21.7269
11
35.6791
21
-21.8209
0
LINE
8
BLACK
6
CONTINUOUS
10
35.6791
20
-21.8209
11
35.7731
21
-21.8931
0
LINE
8
BLACK
6
CONTINUOUS
10
35.7731
20
-21.8931
11
35.8825
21
-21.9384
0
LINE
8
BLACK
6
CONTINUOUS
10
35.8825
20
-21.9384
11
35.9929
21
-21.9529
0
LINE
8
BLACK
6
CONTINUOUS
10
35.9929
20
-21.9529
11
36
21
-21.95
0
LINE
8
BLACK
6
CONTINUOUS
10
36
20
-21.95
11
37
21
-21.95
0
LINE
8
BLACK
6
CONTINUOUS
10
37
20
-21.95
11
37.1823
21
-21.966
0
LINE
8
BLACK
6
CONTINUOUS
10
37.1823
20
-21.966
11
37.3591
21
-22.0133
0
LINE
8
BLACK
6
CONTINUOUS
10
37.3591
20
-22.0133
11
37.525
21
-22.0907
0
LINE
8
BLACK
6
CONTINUOUS
10
37.525
20
-22.0907
11
37.6749
21
-22.1957
0
LINE
8
BLACK
6
CONTINUOUS
10
37.6749
20
-22.1957
11
37.8043
21
-22.3251
0
LINE
8
BLACK
6
CONTINUOUS
10
37.8043
20
-22.3251
11
37.9093
21
-22.475
0
LINE
8
BLACK
6
CONTINUOUS
10
37.9093
20
-22.475
11
37.9867
21
-22.6409
0
LINE
8
BLACK
6
CONTINUOUS
10
37.9867
20
-22.6409
11
38.034
21
-22.8177
0
LINE
8
BLACK
6
CONTINUOUS
10
38.034
20
-22.8177
11
38.05
21
-23
0
LINE
8
BLACK
6
CONTINUOUS
10
38.05
20
-23
11
38.05
21
-25.5
0
LINE
8
BLACK
6
CONTINUOUS
10
38.05
20
-25.5
11
38.047
21
-25.5072
0
LINE
8
BLACK
6
CONTINUOUS
10
38.047
20
-25.5072
11
38.0609
21
-25.6656
0
LINE
8
BLACK
6
CONTINUOUS
10
38.0609
20
-25.6656
11
38.1039
21
-25.8262
0
LINE
8
BLACK
6
CONTINUOUS
10
38.1039
20
-25.8262
11
38.1741
21
-25.9768
0
LINE
8
BLACK
6
CONTINUOUS
10
38.1741
20
-25.9768
11
38.2695
21
-26.113
0
LINE
8
BLACK
6
CONTINUOUS
10
38.2695
20
-26.113
11
38.387
21
-26.2305
0
LINE
8
BLACK
6
CONTINUOUS
10
38.387
20
-26.2305
11
38.5232
21
-26.3259
0
LINE
8
BLACK
6
CONTINUOUS
10
38.5232
20
-26.3259
11
38.6738
21
-26.3961
0
LINE
8
BLACK
6
CONTINUOUS
10
38.6738
20
-26.3961
11
38.8344
21
-26.4391
0
LINE
8
BLACK
6
CONTINUOUS
10
38.8344
20
-26.4391
11
38.9928
21
-26.453
0
LINE
8
BLACK
6
CONTINUOUS
10
38.9928
20
-26.453
11
39
21
-26.45
0
LINE
8
BLACK
6
CONTINUOUS
10
39
20
-26.45
11
42.5
21
-26.45
0
LINE
8
BLACK
6
CONTINUOUS
10
42.5
20
-26.45
11
42.5072
21
-26.453
0
LINE
8
BLACK
6
CONTINUOUS
10
42.5072
20
-26.453
11
42.6656
21
-26.4391
0
LINE
8
BLACK
6
CONTINUOUS
10
42.6656
20
-26.4391
11
42.8262
21
-26.3961
0
LINE
8
BLACK
6
CONTINUOUS
10
42.8262
20
-26.3961
11
42.9768
21
-26.3259
0
LINE
8
BLACK
6
CONTINUOUS
10
42.9768
20
-26.3259
11
43.113
21
-26.2305
0
LINE
8
BLACK
6
CONTINUOUS
10
43.113
20
-26.2305
11
43.2305
21
-26.113
0
LINE
8
BLACK
6
CONTINUOUS
10
43.2305
20
-26.113
11
43.3259
21
-25.9768
0
LINE
8
BLACK
6
CONTINUOUS
10
43.3259
20
-25.9768
11
43.3961
21
-25.8262
0
LINE
8
BLACK
6
CONTINUOUS
10
43.3961
20
-25.8262
11
43.4391
21
-25.6656
0
LINE
8
BLACK
6
CONTINUOUS
10
43.4391
20
-25.6656
11
43.453
21
-25.5072
0
LINE
8
BLACK
6
CONTINUOUS
10
43.453
20
-25.5072
11
43.45
21
-25.5
0
LINE
8
BLACK
6
CONTINUOUS
10
43.45
20
-25.5
11
43.45
21
-23
0
LINE
8
BLACK
6
CONTINUOUS
10
43.45
20
-23
11
43.466
21
-22.8177
0
LINE
8
BLACK
6
CONTINUOUS
10
43.466
20
-22.8177
11
43.5133
21
-22.6409
0
LINE
8
BLACK
6
CONTINUOUS
10
43.5133
20
-22.6409
11
43.5907
21
-22.475
0
LINE
8
BLACK
6
CONTINUOUS
10
43.5907
20
-22.475
11
43.6957
21
-22.3251
0
LINE
8
BLACK
6
CONTINUOUS
10
43.6957
20
-22.3251
11
43.8251
21
-22.1957
0
LINE
8
BLACK
6
CONTINUOUS
10
43.8251
20
-22.1957
11
43.975
21
-22.0907
0
LINE
8
BLACK
6
CONTINUOUS
10
43.975
20
-22.0907
11
44.1409
21
-22.0133
0
LINE
8
BLACK
6
CONTINUOUS
10
44.1409
20
-22.0133
11
44.3177
21
-21.966
0
LINE
8
BLACK
6
CONTINUOUS
10
44.3177
20
-21.966
11
44.5
21
-21.95
0
LINE
8
BLACK
6
CONTINUOUS
10
44.5
20
-21.95
11
45.5
21
-21.95
0
LINE
8
BLACK
6
CONTINUOUS
10
45.5
20
-21.95
11
45.5071
21
-21.9529
0
LINE
8
BLACK
6
CONTINUOUS
10
45.5071
20
-21.9529
11
45.6175
21
-21.9384
0
LINE
8
BLACK
6
CONTINUOUS
10
45.6175
20
-21.9384
11
45.7269
21
-21.8931
0
LINE
8
BLACK
6
CONTINUOUS
10
45.7269
20
-21.8931
11
45.8209
21
-21.8209
0
LINE
8
BLACK
6
CONTINUOUS
10
45.8209
20
-21.8209
11
45.8931
21
-21.7269
0
LINE
8
BLACK
6
CONTINUOUS
10
45.8931
20
-21.7269
11
45.9384
21
-21.6175
0
LINE
8
BLACK
6
CONTINUOUS
10
45.9384
20
-21.6175
11
45.9529
21
-21.5071
0
LINE
8
BLACK
6
CONTINUOUS
10
45.9529
20
-21.5071
11
45.95
21
-21.5
0
LINE
8
BLACK
6
CONTINUOUS
10
45.95
20
-21.5
11
45.95
21
-20.9
0
LINE
8
BLACK
6
CONTINUOUS
10
45.95
20
-20.9
11
45.951
21
-20.8976
0
LINE
8
BLACK
6
CONTINUOUS
10
45.951
20
-20.8976
11
45.9502
21
-20.895
0
LINE
8
BLACK
6
CONTINUOUS
10
45.9502
20
-20.895
11
45.9503
21
-20.895
0
LINE
8
BLACK
6
CONTINUOUS
10
45.9503
20
-20.895
11
45.9813
21
-20.7256
0
LINE
8
BLACK
6
CONTINUOUS
10
45.9813
20
-20.7256
11
46.0396
21
-20.5635
0
LINE
8
BLACK
6
CONTINUOUS
10
46.0396
20
-20.5635
11
46.1234
21
-20.413
0
LINE
8
BLACK
6
CONTINUOUS
10
46.1234
20
-20.413
11
46.2306
21
-20.2782
0
LINE
8
BLACK
6
CONTINUOUS
10
46.2306
20
-20.2782
11
46.3583
21
-20.1626
0
LINE
8
BLACK
6
CONTINUOUS
10
46.3583
20
-20.1626
11
46.5031
21
-20.0693
0
LINE
8
BLACK
6
CONTINUOUS
10
46.5031
20
-20.0693
11
46.6612
21
-20.0009
0
LINE
8
BLACK
6
CONTINUOUS
10
46.6612
20
-20.0009
11
46.8283
21
-19.9591
0
LINE
8
BLACK
6
CONTINUOUS
10
46.8283
20
-19.9591
11
47
21
-19.945
0
LINE
8
BLACK
6
CONTINUOUS
10
47
20
-19.945
11
47
21
-19.945
0
LINE
8
BLACK
6
CONTINUOUS
10
47
20
-19.945
11
47
21
-19.945
0
LINE
8
BLACK
6
CONTINUOUS
10
47
20
-19.945
11
47
21
-19.945
0
LINE
8
BLACK
6
CONTINUOUS
10
47
20
-19.945
11
96
21
-19.95
0
LINE
8
BLACK
6
CONTINUOUS
10
96
20
-19.95
11
96
21
-19.95
0
LINE
8
BLACK
6
CONTINUOUS
10
96
20
-19.95
11
96.1823
21
-19.966
0
LINE
8
BLACK
6
CONTINUOUS
10
96.1823
20
-19.966
11
96.3591
21
-20.0133
0
LINE
8
BLACK
6
CONTINUOUS
10
96.3591
20
-20.0133
11
96.525
21
-20.0907
0
LINE
8
BLACK
6
CONTINUOUS
10
96.525
20
-20.0907
11
96.6749
21
-20.1957
0
LINE
8
BLACK
6
CONTINUOUS
10
96.6749
20
-20.1957
11
96.8043
21
-20.3251
0
LINE
8
BLACK
6
CONTINUOUS
10
96.8043
20
-20.3251
11
96.9093
21
-20.475
0
LINE
8
BLACK
6
CONTINUOUS
10
96.9093
20
-20.475
11
96.9867
21
-20.6409
0
LINE
8
BLACK
6
CONTINUOUS
10
96.9867
20
-20.6409
11
97.034
21
-20.8177
0
LINE
8
BLACK
6
CONTINUOUS
10
97.034
20
-20.8177
11
97.05
21
-21
0
LINE
8
BLACK
6
CONTINUOUS
10
97.05
20
-21
11
97.05
21
-23.5
0
LINE
8
BLACK
6
CONTINUOUS
10
97.05
20
-23.5
11
97.047
21
-23.5072
0
LINE
8
BLACK
6
CONTINUOUS
10
97.047
20
-23.5072
11
97.0609
21
-23.6656
0
LINE
8
BLACK
6
CONTINUOUS
10
97.0609
20
-23.6656
11
97.1039
21
-23.8262
0
LINE
8
BLACK
6
CONTINUOUS
10
97.1039
20
-23.8262
11
97.1741
21
-23.9768
0
LINE
8
BLACK
6
CONTINUOUS
10
97.1741
20
-23.9768
11
97.2695
21
-24.113
0
LINE
8
BLACK
6
CONTINUOUS
10
97.2695
20
-24.113
11
97.387
21
-24.2305
0
LINE
8
BLACK
6
CONTINUOUS
10
97.387
20
-24.2305
11
97.5232
21
-24.3259
0
LINE
8
BLACK
6
CONTINUOUS
10
97.5232
20
-24.3259
11
97.6738
21
-24.3961
0
LINE
8
BLACK
6
CONTINUOUS
10
97.6738
20
-24.3961
11
97.8344
21
-24.4391
0
LINE
8
BLACK
6
CONTINUOUS
10
97.8344
20
-24.4391
11
97.9928
21
-24.453
0
LINE
8
BLACK
6
CONTINUOUS
10
97.9928
20
-24.453
11
98
21
-24.45
0
LINE
8
BLACK
6
CONTINUOUS
10
98
20
-24.45
11
176.5
21
-24.45
0
LINE
8
BLACK
6
CONTINUOUS
10
176.5
20
-24.45
11
176.507
21
-24.453
0
LINE
8
BLACK
6
CONTINUOUS
10
176.507
20
-24.453
11
176.666
21
-24.4391
0
LINE
8
BLACK
6
CONTINUOUS
10
176.666
20
-24.4391
11
176.826
21
-24.3961
0
LINE
8
BLACK
6
CONTINUOUS
10
176.826
20
-24.3961
11
176.977
21
-24.3259
0
LINE
8
BLACK
6
CONTINUOUS
10
176.977
20
-24.3259
11
177.113
21
-24.2305
0
LINE
8
BLACK
6
CONTINUOUS
10
177.113
20
-24.2305
11
177.231
21
-24.113
0
LINE
8
BLACK
6
CONTINUOUS
10
177.231
20
-24.113
11
177.326
21
-23.9768
0
LINE
8
BLACK
6
CONTINUOUS
10
177.326
20
-23.9768
11
177.396
21
-23.8262
0
LINE
8
BLACK
6
CONTINUOUS
10
177.396
20
-23.8262
11
177.439
21
-23.6656
0
LINE
8
BLACK
6
CONTINUOUS
10
177.439
20
-23.6656
11
177.453
21
-23.5072
0
LINE
8
BLACK
6
CONTINUOUS
10
177.453
20
-23.5072
11
177.45
21
-23.5
0
LINE
8
BLACK
6
CONTINUOUS
10
177.45
20
-23.5
11
177.45
21
-21
0
LINE
8
BLACK
6
CONTINUOUS
10
177.45
20
-21
11
177.466
21
-20.8177
0
LINE
8
BLACK
6
CONTINUOUS
10
177.466
20
-20.8177
11
177.513
21
-20.6409
0
LINE
8
BLACK
6
CONTINUOUS
10
177.513
20
-20.6409
11
177.591
21
-20.475
0
LINE
8
BLACK
6
CONTINUOUS
10
177.591
20
-20.475
11
177.696
21
-20.3251
0
LINE
8
BLACK
6
CONTINUOUS
10
177.696
20
-20.3251
11
177.825
21
-20.1957
0
LINE
8
BLACK
6
CONTINUOUS
10
177.825
20
-20.1957
11
177.975
21
-20.0907
0
LINE
8
BLACK
6
CONTINUOUS
10
177.975
20
-20.0907
11
178.141
21
-20.0133
0
LINE
8
BLACK
6
CONTINUOUS
10
178.141
20
-20.0133
11
178.318
21
-19.966
0
LINE
8
BLACK
6
CONTINUOUS
10
178.318
20
-19.966
11
178.5
21
-19.95
0
LINE
8
BLACK
6
CONTINUOUS
10
178.5
20
-19.95
11
179.5
21
-19.95
0
LINE
8
BLACK
6
CONTINUOUS
10
179.5
20
-19.95
11
179.682
21
-19.966
0
LINE
8
BLACK
6
CONTINUOUS
10
179.682
20
-19.966
11
179.859
21
-20.0133
0
LINE
8
BLACK
6
CONTINUOUS
10
179.859
20
-20.0133
11
180.025
21
-20.0907
0
LINE
8
BLACK
6
CONTINUOUS
10
180.025
20
-20.0907
11
180.175
21
-20.1957
0
LINE
8
BLACK
6
CONTINUOUS
10
180.175
20
-20.1957
11
180.304
21
-20.3251
0
LINE
8
BLACK
6
CONTINUOUS
10
180.304
20
-20.3251
11
180.409
21
-20.475
0
LINE
8
BLACK
6
CONTINUOUS
10
180.409
20
-20.475
11
180.487
21
-20.6409
0
LINE
8
BLACK
6
CONTINUOUS
10
180.487
20
-20.6409
11
180.534
21
-20.8177
0
LINE
8
BLACK
6
CONTINUOUS
10
180.534
20
-20.8177
11
180.55
21
-21
0
LINE
8
BLACK
6
CONTINUOUS
10
180.55
20
-21
11
180.55
21
-21.5
0
LINE
8
BLACK
6
CONTINUOUS
10
180.55
20
-21.5
11
180.547
21
-21.5071
0
LINE
8
BLACK
6
CONTINUOUS
10
180.547
20
-21.5071
11
180.562
21
-21.6175
0
LINE
8
BLACK
6
CONTINUOUS
10
180.562
20
-21.6175
11
180.607
21
-21.7269
0
LINE
8
BLACK
6
CONTINUOUS
10
180.607
20
-21.7269
11
180.679
21
-21.8209
0
LINE
8
BLACK
6
CONTINUOUS
10
180.679
20
-21.8209
11
180.773
21
-21.8931
0
LINE
8
BLACK
6
CONTINUOUS
10
180.773
20
-21.8931
11
180.883
21
-21.9384
0
LINE
8
BLACK
6
CONTINUOUS
10
180.883
20
-21.9384
11
180.993
21
-21.9529
0
LINE
8
BLACK
6
CONTINUOUS
10
180.993
20
-21.9529
11
181
21
-21.95
0
LINE
8
BLACK
6
CONTINUOUS
10
181
20
-21.95
11
182
21
-21.95
0
LINE
8
BLACK
6
CONTINUOUS
10
182
20
-21.95
11
182.182
21
-21.966
0
LINE
8
BLACK
6
CONTINUOUS
10
182.182
20
-21.966
11
182.359
21
-22.0133
0
LINE
8
BLACK
6
CONTINUOUS
10
182.359
20
-22.0133
11
182.525
21
-22.0907
0
LINE
8
BLACK
6
CONTINUOUS
10
182.525
20
-22.0907
11
182.675
21
-22.1957
0
LINE
8
BLACK
6
CONTINUOUS
10
182.675
20
-22.1957
11
182.804
21
-22.3251
0
LINE
8
BLACK
6
CONTINUOUS
10
182.804
20
-22.3251
11
182.909
21
-22.475
0
LINE
8
BLACK
6
CONTINUOUS
10
182.909
20
-22.475
11
182.987
21
-22.6409
0
LINE
8
BLACK
6
CONTINUOUS
10
182.987
20
-22.6409
11
183.034
21
-22.8177
0
LINE
8
BLACK
6
CONTINUOUS
10
183.034
20
-22.8177
11
183.05
21
-23
0
LINE
8
BLACK
6
CONTINUOUS
10
183.05
20
-23
11
183.05
21
-25.5
0
LINE
8
BLACK
6
CONTINUOUS
10
183.05
20
-25.5
11
183.047
21
-25.5072
0
LINE
8
BLACK
6
CONTINUOUS
10
183.047
20
-25.5072
11
183.061
21
-25.6656
0
LINE
8
BLACK
6
CONTINUOUS
10
183.061
20
-25.6656
11
183.104
21
-25.8262
0
LINE
8
BLACK
6
CONTINUOUS
10
183.104
20
-25.8262
11
183.174
21
-25.9768
0
LINE
8
BLACK
6
CONTINUOUS
10
183.174
20
-25.9768
11
183.269
21
-26.113
0
LINE
8
BLACK
6
CONTINUOUS
10
183.269
20
-26.113
11
183.387
21
-26.2305
0
LINE
8
BLACK
6
CONTINUOUS
10
183.387
20
-26.2305
11
183.523
21
-26.3259
0
LINE
8
BLACK
6
CONTINUOUS
10
183.523
20
-26.3259
11
183.674
21
-26.3961
0
LINE
8
BLACK
6
CONTINUOUS
10
183.674
20
-26.3961
11
183.834
21
-26.4391
0
LINE
8
BLACK
6
CONTINUOUS
10
183.834
20
-26.4391
11
183.993
21
-26.453
0
LINE
8
BLACK
6
CONTINUOUS
10
183.993
20
-26.453
11
184
21
-26.45
0
LINE
8
BLACK
6
CONTINUOUS
10
184
20
-26.45
11
187.5
21
-26.45
0
LINE
8
BLACK
6
CONTINUOUS
10
187.5
20
-26.45
11
187.507
21
-26.453
0
LINE
8
BLACK
6
CONTINUOUS
10
187.507
20
-26.453
11
187.666
21
-26.4391
0
LINE
8
BLACK
6
CONTINUOUS
10
187.666
20
-26.4391
11
187.826
21
-26.3961
0
LINE
8
BLACK
6
CONTINUOUS
10
187.826
20
-26.3961
11
187.977
21
-26.3259
0
LINE
8
BLACK
6
CONTINUOUS
10
187.977
20
-26.3259
11
188.113
21
-26.2305
0
LINE
8
BLACK
6
CONTINUOUS
10
188.113
20
-26.2305
11
188.231
21
-26.113
0
LINE
8
BLACK
6
CONTINUOUS
10
188.231
20
-26.113
11
188.326
21
-25.9768
0
LINE
8
BLACK
6
CONTINUOUS
10
188.326
20
-25.9768
11
188.396
21
-25.8262
0
LINE
8
BLACK
6
CONTINUOUS
10
188.396
20
-25.8262
11
188.439
21
-25.6656
0
LINE
8
BLACK
6
CONTINUOUS
10
188.439
20
-25.6656
11
188.453
21
-25.5072
0
LINE
8
BLACK
6
CONTINUOUS
10
188.453
20
-25.5072
11
188.45
21
-25.5
0
LINE
8
BLACK
6
CONTINUOUS
10
188.45
20
-25.5
11
188.45
21
-23
0
LINE
8
BLACK
6
CONTINUOUS
10
188.45
20
-23
11
188.466
21
-22.8177
0
LINE
8
BLACK
6
CONTINUOUS
10
188.466
20
-22.8177
11
188.513
21
-22.6409
0
LINE
8
BLACK
6
CONTINUOUS
10
188.513
20
-22.6409
11
188.591
21
-22.475
0
LINE
8
BLACK
6
CONTINUOUS
10
188.591
20
-22.475
11
188.696
21
-22.3251
0
LINE
8
BLACK
6
CONTINUOUS
10
188.696
20
-22.3251
11
188.825
21
-22.1957
0
LINE
8
BLACK
6
CONTINUOUS
10
188.825
20
-22.1957
11
188.975
21
-22.0907
0
LINE
8
BLACK
6
CONTINUOUS
10
188.975
20
-22.0907
11
189.141
21
-22.0133
0
LINE
8
BLACK
6
CONTINUOUS
10
189.141
20
-22.0133
11
189.318
21
-21.966
0
LINE
8
BLACK
6
CONTINUOUS
10
189.318
20
-21.966
11
189.5
21
-21.95
0
LINE
8
BLACK
6
CONTINUOUS
10
189.5
20
-21.95
11
190.5
21
-21.95
0
LINE
8
BLACK
6
CONTINUOUS
10
190.5
20
-21.95
11
190.507
21
-21.9529
0
LINE
8
BLACK
6
CONTINUOUS
10
190.507
20
-21.9529
11
190.617
21
-21.9384
0
LINE
8
BLACK
6
CONTINUOUS
10
190.617
20
-21.9384
11
190.727
21
-21.8931
0
LINE
8
BLACK
6
CONTINUOUS
10
190.727
20
-21.8931
11
190.821
21
-21.8209
0
LINE
8
BLACK
6
CONTINUOUS
10
190.821
20
-21.8209
11
190.893
21
-21.7269
0
LINE
8
BLACK
6
CONTINUOUS
10
190.893
20
-21.7269
11
190.938
21
-21.6175
0
LINE
8
BLACK
6
CONTINUOUS
10
190.938
20
-21.6175
11
190.953
21
-21.5071
0
LINE
8
BLACK
6
CONTINUOUS
10
190.953
20
-21.5071
11
190.95
21
-21.5
0
LINE
8
BLACK
6
CONTINUOUS
10
190.95
20
-21.5
11
190.95
21
-20.9
0
LINE
8
BLACK
6
CONTINUOUS
10
190.95
20
-20.9
11
190.951
21
-20.8976
0
LINE
8
BLACK
6
CONTINUOUS
10
190.951
20
-20.8976
11
190.95
21
-20.895
0
LINE
8
BLACK
6
CONTINUOUS
10
190.95
20
-20.895
11
190.95
21
-20.895
0
LINE
8
BLACK
6
CONTINUOUS
10
190.95
20
-20.895
11
190.981
21
-20.7256
0
LINE
8
BLACK
6
CONTINUOUS
10
190.981
20
-20.7256
11
191.04
21
-20.5635
0
LINE
8
BLACK
6
CONTINUOUS
10
191.04
20
-20.5635
11
191.123
21
-20.413
0
LINE
8
BLACK
6
CONTINUOUS
10
191.123
20
-20.413
11
191.231
21
-20.2782
0
LINE
8
BLACK
6
CONTINUOUS
10
191.231
20
-20.2782
11
191.358
21
-20.1626
0
LINE
8
BLACK
6
CONTINUOUS
10
191.358
20
-20.1626
11
191.503
21
-20.0693
0
LINE
8
BLACK
6
CONTINUOUS
10
191.503
20
-20.0693
11
191.661
21
-20.0009
0
LINE
8
BLACK
6
CONTINUOUS
10
191.661
20
-20.0009
11
191.828
21
-19.9591
0
LINE
8
BLACK
6
CONTINUOUS
10
191.828
20
-19.9591
11
192
21
-19.945
0
LINE
8
BLACK
6
CONTINUOUS
10
192
20
-19.945
11
192
21
-19.945
0
LINE
8
BLACK
6
CONTINUOUS
10
192
20
-19.945
11
192
21
-19.945
0
LINE
8
BLACK
6
CONTINUOUS
10
192
20
-19.945
11
192
21
-19.945
0
LINE
8
BLACK
6
CONTINUOUS
10
192
20
-19.945
11
204
21
-19.95
0
LINE
8
BLACK
6
CONTINUOUS
10
204
20
-19.95
11
204
21
-19.95
0
LINE
8
BLACK
6
CONTINUOUS
10
204
20
-19.95
11
204.268
21
-19.9675
0
LINE
8
BLACK
6
CONTINUOUS
10
204.268
20
-19.9675
11
204.531
21
-20.0199
0
LINE
8
BLACK
6
CONTINUOUS
10
204.531
20
-20.0199
11
204.785
21
-20.106
0
LINE
8
BLACK
6
CONTINUOUS
10
204.785
20
-20.106
11
205.025
21
-20.2246
0
LINE
8
BLACK
6
CONTINUOUS
10
205.025
20
-20.2246
11
205.248
21
-20.3736
0
LINE
8
BLACK
6
CONTINUOUS
10
205.248
20
-20.3736
11
205.45
21
-20.5504
0
LINE
8
BLACK
6
CONTINUOUS
10
205.45
20
-20.5504
11
205.626
21
-20.752
0
LINE
8
BLACK
6
CONTINUOUS
10
205.626
20
-20.752
11
205.775
21
-20.975
0
LINE
8
BLACK
6
CONTINUOUS
10
205.775
20
-20.975
11
205.894
21
-21.2155
0
LINE
8
BLACK
6
CONTINUOUS
10
205.894
20
-21.2155
11
205.98
21
-21.4694
0
LINE
8
BLACK
6
CONTINUOUS
10
205.98
20
-21.4694
11
206.032
21
-21.7324
0
LINE
8
BLACK
6
CONTINUOUS
10
206.032
20
-21.7324
11
206.05
21
-22
0
LINE
8
BLACK
6
CONTINUOUS
10
206.05
20
-22
11
206.05
21
-23.5
0
LINE
8
BLACK
6
CONTINUOUS
10
206.05
20
-23.5
11
206.034
21
-23.6823
0
LINE
8
BLACK
6
CONTINUOUS
10
206.034
20
-23.6823
11
205.987
21
-23.8591
0
LINE
8
BLACK
6
CONTINUOUS
10
205.987
20
-23.8591
11
205.909
21
-24.025
0
LINE
8
BLACK
6
CONTINUOUS
10
205.909
20
-24.025
11
205.804
21
-24.1749
0
LINE
8
BLACK
6
CONTINUOUS
10
205.804
20
-24.1749
11
205.675
21
-24.3043
0
LINE
8
BLACK
6
CONTINUOUS
10
205.675
20
-24.3043
11
205.525
21
-24.4093
0
LINE
8
BLACK
6
CONTINUOUS
10
205.525
20
-24.4093
11
205.359
21
-24.4867
0
LINE
8
BLACK
6
CONTINUOUS
10
205.359
20
-24.4867
11
205.182
21
-24.534
0
LINE
8
BLACK
6
CONTINUOUS
10
205.182
20
-24.534
11
205
21
-24.55
0
LINE
8
BLACK
6
CONTINUOUS
10
205
20
-24.55
11
193
21
-24.55
0
LINE
8
BLACK
6
CONTINUOUS
10
193
20
-24.55
11
192.991
21
-24.5464
0
LINE
8
BLACK
6
CONTINUOUS
10
163.115
20
-80.5317
11
162.734
21
-80.4768
0
LINE
8
BLACK
6
CONTINUOUS
10
162.734
20
-80.4768
11
162.359
21
-80.3859
0
LINE
8
BLACK
6
CONTINUOUS
10
162.359
20
-80.3859
11
161.995
21
-80.2599
0
LINE
8
BLACK
6
CONTINUOUS
10
161.995
20
-80.2599
11
161.644
21
-80.0998
0
LINE
8
BLACK
6
CONTINUOUS
10
161.644
20
-80.0998
11
161.31
21
-79.9071
0
LINE
8
BLACK
6
CONTINUOUS
10
161.31
20
-79.9071
11
160.996
21
-79.6835
0
LINE
8
BLACK
6
CONTINUOUS
10
160.996
20
-79.6835
11
160.705
21
-79.4311
0
LINE
8
BLACK
6
CONTINUOUS
10
160.705
20
-79.4311
11
160.439
21
-79.1522
0
LINE
8
BLACK
6
CONTINUOUS
10
160.439
20
-79.1522
11
160.201
21
-78.8492
0
LINE
8
BLACK
6
CONTINUOUS
10
160.201
20
-78.8492
11
159.993
21
-78.525
0
LINE
8
BLACK
6
CONTINUOUS
10
159.993
20
-78.525
11
159.816
21
-78.1824
0
LINE
8
BLACK
6
CONTINUOUS
10
159.816
20
-78.1824
11
159.673
21
-77.8246
0
LINE
8
BLACK
6
CONTINUOUS
10
159.673
20
-77.8246
11
159.564
21
-77.4548
0
LINE
8
BLACK
6
CONTINUOUS
10
159.564
20
-77.4548
11
159.491
21
-77.0764
0
LINE
8
BLACK
6
CONTINUOUS
10
159.491
20
-77.0764
11
159.455
21
-76.6927
0
LINE
8
BLACK
6
CONTINUOUS
10
159.455
20
-76.6927
11
159.455
21
-76.3073
0
LINE
8
BLACK
6
CONTINUOUS
10
159.455
20
-76.3073
11
159.491
21
-75.9236
0
LINE
8
BLACK
6
CONTINUOUS
10
159.491
20
-75.9236
11
159.564
21
-75.5452
0
LINE
8
BLACK
6
CONTINUOUS
10
159.564
20
-75.5452
11
159.673
21
-75.1754
0
LINE
8
BLACK
6
CONTINUOUS
10
159.673
20
-75.1754
11
159.816
21
-74.8176
0
LINE
8
BLACK
6
CONTINUOUS
10
159.816
20
-74.8176
11
159.993
21
-74.475
0
LINE
8
BLACK
6
CONTINUOUS
10
159.993
20
-74.475
11
160.201
21
-74.1508
0
LINE
8
BLACK
6
CONTINUOUS
10
160.201
20
-74.1508
11
160.439
21
-73.8478
0
LINE
8
BLACK
6
CONTINUOUS
10
160.439
20
-73.8478
11
160.705
21
-73.5689
0
LINE
8
BLACK
6
CONTINUOUS
10
160.705
20
-73.5689
11
160.996
21
-73.3165
0
LINE
8
BLACK
6
CONTINUOUS
10
160.996
20
-73.3165
11
161.31
21
-73.0929
0
LINE
8
BLACK
6
CONTINUOUS
10
161.31
20
-73.0929
11
161.644
21
-72.9002
0
LINE
8
BLACK
6
CONTINUOUS
10
161.644
20
-72.9002
11
161.995
21
-72.7401
0
LINE
8
BLACK
6
CONTINUOUS
10
161.995
20
-72.7401
11
162.359
21
-72.6141
0
LINE
8
BLACK
6
CONTINUOUS
10
162.359
20
-72.6141
11
162.734
21
-72.5232
0
LINE
8
BLACK
6
CONTINUOUS
10
162.734
20
-72.5232
11
163.115
21
-72.4683
0
LINE
8
BLACK
6
CONTINUOUS
10
163.115
20
-72.4683
11
163.5
21
-72.45
0
LINE
8
BLACK
6
CONTINUOUS
10
163.5
20
-72.45
11
171.5
21
-72.45
0
LINE
8
BLACK
6
CONTINUOUS
10
171.5
20
-72.45
11
171.885
21
-72.4683
0
LINE
8
BLACK
6
CONTINUOUS
10
171.885
20
-72.4683
11
172.266
21
-72.5232
0
LINE
8
BLACK
6
CONTINUOUS
10
172.266
20
-72.5232
11
172.641
21
-72.6141
0
LINE
8
BLACK
6
CONTINUOUS
10
172.641
20
-72.6141
11
173.005
21
-72.7401
0
LINE
8
BLACK
6
CONTINUOUS
10
173.005
20
-72.7401
11
173.356
21
-72.9002
0
LINE
8
BLACK
6
CONTINUOUS
10
173.356
20
-72.9002
11
173.69
21
-73.0929
0
LINE
8
BLACK
6
CONTINUOUS
10
173.69
20
-73.0929
11
174.004
21
-73.3165
0
LINE
8
BLACK
6
CONTINUOUS
10
174.004
20
-73.3165
11
174.295
21
-73.5689
0
LINE
8
BLACK
6
CONTINUOUS
10
174.295
20
-73.5689
11
174.561
21
-73.8478
0
LINE
8
BLACK
6
CONTINUOUS
10
174.561
20
-73.8478
11
174.799
21
-74.1508
0
LINE
8
BLACK
6
CONTINUOUS
10
174.799
20
-74.1508
11
175.007
21
-74.475
0
LINE
8
BLACK
6
CONTINUOUS
10
175.007
20
-74.475
11
175.184
21
-74.8176
0
LINE
8
BLACK
6
CONTINUOUS
10
175.184
20
-74.8176
11
175.327
21
-75.1754
0
LINE
8
BLACK
6
CONTINUOUS
10
175.327
20
-75.1754
11
175.436
21
-75.5452
0
LINE
8
BLACK
6
CONTINUOUS
10
175.436
20
-75.5452
11
175.509
21
-75.9236
0
LINE
8
BLACK
6
CONTINUOUS
10
175.509
20
-75.9236
11
175.545
21
-76.3073
0
LINE
8
BLACK
6
CONTINUOUS
10
175.545
20
-76.3073
11
175.545
21
-76.6927
0
LINE
8
BLACK
6
CONTINUOUS
10
175.545
20
-76.6927
11
175.509
21
-77.0764
0
LINE
8
BLACK
6
CONTINUOUS
10
175.509
20
-77.0764
11
175.436
21
-77.4548
0
LINE
8
BLACK
6
CONTINUOUS
10
175.436
20
-77.4548
11
175.327
21
-77.8246
0
LINE
8
BLACK
6
CONTINUOUS
10
175.327
20
-77.8246
11
175.184
21
-78.1824
0
LINE
8
BLACK
6
CONTINUOUS
10
175.184
20
-78.1824
11
175.007
21
-78.525
0
LINE
8
BLACK
6
CONTINUOUS
10
175.007
20
-78.525
11
174.799
21
-78.8492
0
LINE
8
BLACK
6
CONTINUOUS
10
174.799
20
-78.8492
11
174.561
21
-79.1522
0
LINE
8
BLACK
6
CONTINUOUS
10
174.561
20
-79.1522
11
174.295
21
-79.4311
0
LINE
8
BLACK
6
CONTINUOUS
10
174.295
20
-79.4311
11
174.004
21
-79.6835
0
LINE
8
BLACK
6
CONTINUOUS
10
174.004
20
-79.6835
11
173.69
21
-79.9071
0
LINE
8
BLACK
6
CONTINUOUS
10
173.69
20
-79.9071
11
173.356
21
-80.0998
0
LINE
8
BLACK
6
CONTINUOUS
10
173.356
20
-80.0998
11
173.005
21
-80.2599
0
LINE
8
BLACK
6
CONTINUOUS
10
173.005
20
-80.2599
11
172.641
21
-80.3859
0
LINE
8
BLACK
6
CONTINUOUS
10
172.641
20
-80.3859
11
172.266
21
-80.4768
0
LINE
8
BLACK
6
CONTINUOUS
10
172.266
20
-80.4768
11
171.885
21
-80.5317
0
LINE
8
BLACK
6
CONTINUOUS
10
171.885
20
-80.5317
11
171.5
21
-80.55
0
LINE
8
BLACK
6
CONTINUOUS
10
171.5
20
-80.55
11
163.5
21
-80.55
0
LINE
8
BLACK
6
CONTINUOUS
10
163.5
20
-80.55
11
163.115
21
-80.5317
0
LINE
8
BLACK
6
CONTINUOUS
10
163.49
20
-72.5457
11
163.112
21
-72.5643
0
LINE
8
BLACK
6
CONTINUOUS
10
163.112
20
-72.5643
11
162.728
21
-72.6212
0
LINE
8
BLACK
6
CONTINUOUS
10
162.728
20
-72.6212
11
162.352
21
-72.7155
0
LINE
8
BLACK
6
CONTINUOUS
10
162.352
20
-72.7155
11
161.987
21
-72.8463
0
LINE
8
BLACK
6
CONTINUOUS
10
161.987
20
-72.8463
11
161.636
21
-73.0122
0
LINE
8
BLACK
6
CONTINUOUS
10
161.636
20
-73.0122
11
161.303
21
-73.2117
0
LINE
8
BLACK
6
CONTINUOUS
10
161.303
20
-73.2117
11
160.991
21
-73.4429
0
LINE
8
BLACK
6
CONTINUOUS
10
160.991
20
-73.4429
11
160.704
21
-73.7036
0
LINE
8
BLACK
6
CONTINUOUS
10
160.704
20
-73.7036
11
160.443
21
-73.9911
0
LINE
8
BLACK
6
CONTINUOUS
10
160.443
20
-73.9911
11
160.212
21
-74.3029
0
LINE
8
BLACK
6
CONTINUOUS
10
160.212
20
-74.3029
11
160.012
21
-74.6357
0
LINE
8
BLACK
6
CONTINUOUS
10
160.012
20
-74.6357
11
159.846
21
-74.9866
0
LINE
8
BLACK
6
CONTINUOUS
10
159.846
20
-74.9866
11
159.716
21
-75.352
0
LINE
8
BLACK
6
CONTINUOUS
10
159.716
20
-75.352
11
159.621
21
-75.7285
0
LINE
8
BLACK
6
CONTINUOUS
10
159.621
20
-75.7285
11
159.564
21
-76.1124
0
LINE
8
BLACK
6
CONTINUOUS
10
159.564
20
-76.1124
11
159.545
21
-76.5
0
LINE
8
BLACK
6
CONTINUOUS
10
159.545
20
-76.5
11
159.564
21
-76.8876
0
LINE
8
BLACK
6
CONTINUOUS
10
159.564
20
-76.8876
11
159.621
21
-77.2715
0
LINE
8
BLACK
6
CONTINUOUS
10
159.621
20
-77.2715
11
159.716
21
-77.648
0
LINE
8
BLACK
6
CONTINUOUS
10
159.716
20
-77.648
11
159.846
21
-78.0134
0
LINE
8
BLACK
6
CONTINUOUS
10
159.846
20
-78.0134
11
160.012
21
-78.3643
0
LINE
8
BLACK
6
CONTINUOUS
10
160.012
20
-78.3643
11
160.212
21
-78.6971
0
LINE
8
BLACK
6
CONTINUOUS
10
160.212
20
-78.6971
11
160.443
21
-79.0089
0
LINE
8
BLACK
6
CONTINUOUS
10
160.443
20
-79.0089
11
160.704
21
-79.2964
0
LINE
8
BLACK
6
CONTINUOUS
10
160.704
20
-79.2964
11
160.991
21
-79.5571
0
LINE
8
BLACK
6
CONTINUOUS
10
160.991
20
-79.5571
11
161.303
21
-79.7883
0
LINE
8
BLACK
6
CONTINUOUS
10
161.303
20
-79.7883
11
161.636
21
-79.9878
0
LINE
8
BLACK
6
CONTINUOUS
10
161.636
20
-79.9878
11
161.987
21
-80.1537
0
LINE
8
BLACK
6
CONTINUOUS
10
161.987
20
-80.1537
11
162.352
21
-80.2845
0
LINE
8
BLACK
6
CONTINUOUS
10
162.352
20
-80.2845
11
162.728
21
-80.3788
0
LINE
8
BLACK
6
CONTINUOUS
10
162.728
20
-80.3788
11
163.112
21
-80.4357
0
LINE
8
BLACK
6
CONTINUOUS
10
163.112
20
-80.4357
11
163.49
21
-80.4543
0
LINE
8
BLACK
6
CONTINUOUS
10
163.49
20
-80.4543
11
163.5
21
-80.45
0
LINE
8
BLACK
6
CONTINUOUS
10
163.5
20
-80.45
11
171.5
21
-80.45
0
LINE
8
BLACK
6
CONTINUOUS
10
171.5
20
-80.45
11
171.51
21
-80.4543
0
LINE
8
BLACK
6
CONTINUOUS
10
171.51
20
-80.4543
11
171.888
21
-80.4357
0
LINE
8
BLACK
6
CONTINUOUS
10
171.888
20
-80.4357
11
172.272
21
-80.3788
0
LINE
8
BLACK
6
CONTINUOUS
10
172.272
20
-80.3788
11
172.648
21
-80.2845
0
LINE
8
BLACK
6
CONTINUOUS
10
172.648
20
-80.2845
11
173.013
21
-80.1537
0
LINE
8
BLACK
6
CONTINUOUS
10
173.013
20
-80.1537
11
173.364
21
-79.9878
0
LINE
8
BLACK
6
CONTINUOUS
10
173.364
20
-79.9878
11
173.697
21
-79.7883
0
LINE
8
BLACK
6
CONTINUOUS
10
173.697
20
-79.7883
11
174.009
21
-79.5571
0
LINE
8
BLACK
6
CONTINUOUS
10
174.009
20
-79.5571
11
174.296
21
-79.2964
0
LINE
8
BLACK
6
CONTINUOUS
10
174.296
20
-79.2964
11
174.557
21
-79.0089
0
LINE
8
BLACK
6
CONTINUOUS
10
174.557
20
-79.0089
11
174.788
21
-78.6971
0
LINE
8
BLACK
6
CONTINUOUS
10
174.788
20
-78.6971
11
174.988
21
-78.3643
0
LINE
8
BLACK
6
CONTINUOUS
10
174.988
20
-78.3643
11
175.154
21
-78.0134
0
LINE
8
BLACK
6
CONTINUOUS
10
175.154
20
-78.0134
11
175.284
21
-77.648
0
LINE
8
BLACK
6
CONTINUOUS
10
175.284
20
-77.648
11
175.379
21
-77.2715
0
LINE
8
BLACK
6
CONTINUOUS
10
175.379
20
-77.2715
11
175.436
21
-76.8876
0
LINE
8
BLACK
6
CONTINUOUS
10
175.436
20
-76.8876
11
175.455
21
-76.5
0
LINE
8
BLACK
6
CONTINUOUS
10
175.455
20
-76.5
11
175.436
21
-76.1124
0
LINE
8
BLACK
6
CONTINUOUS
10
175.436
20
-76.1124
11
175.379
21
-75.7285
0
LINE
8
BLACK
6
CONTINUOUS
10
175.379
20
-75.7285
11
175.284
21
-75.352
0
LINE
8
BLACK
6
CONTINUOUS
10
175.284
20
-75.352
11
175.154
21
-74.9866
0
LINE
8
BLACK
6
CONTINUOUS
10
175.154
20
-74.9866
11
174.988
21
-74.6357
0
LINE
8
BLACK
6
CONTINUOUS
10
174.988
20
-74.6357
11
174.788
21
-74.3029
0
LINE
8
BLACK
6
CONTINUOUS
10
174.788
20
-74.3029
11
174.557
21
-73.9911
0
LINE
8
BLACK
6
CONTINUOUS
10
174.557
20
-73.9911
11
174.296
21
-73.7036
0
LINE
8
BLACK
6
CONTINUOUS
10
174.296
20
-73.7036
11
174.009
21
-73.4429
0
LINE
8
BLACK
6
CONTINUOUS
10
174.009
20
-73.4429
11
173.697
21
-73.2117
0
LINE
8
BLACK
6
CONTINUOUS
10
173.697
20
-73.2117
11
173.364
21
-73.0122
0
LINE
8
BLACK
6
CONTINUOUS
10
173.364
20
-73.0122
11
173.013
21
-72.8463
0
LINE
8
BLACK
6
CONTINUOUS
10
173.013
20
-72.8463
11
172.648
21
-72.7155
0
LINE
8
BLACK
6
CONTINUOUS
10
172.648
20
-72.7155
11
172.272
21
-72.6212
0
LINE
8
BLACK
6
CONTINUOUS
10
172.272
20
-72.6212
11
171.888
21
-72.5643
0
LINE
8
BLACK
6
CONTINUOUS
10
171.888
20
-72.5643
11
171.51
21
-72.5457
0
LINE
8
BLACK
6
CONTINUOUS
10
171.51
20
-72.5457
11
171.5
21
-72.55
0
LINE
8
BLACK
6
CONTINUOUS
10
171.5
20
-72.55
11
163.5
21
-72.55
0
LINE
8
BLACK
6
CONTINUOUS
10
163.5
20
-72.55
11
163.49
21
-72.5457
0
LINE
8
BLACK
6
CONTINUOUS
10
61.8776
20
-57.0362
11
61.7614
21
-56.9955
0
LINE
8
BLACK
6
CONTINUOUS
10
61.7614
20
-56.9955
11
61.6571
21
-56.93
0
LINE
8
BLACK
6
CONTINUOUS
10
61.6571
20
-56.93
11
61.57
21
-56.8429
0
LINE
8
BLACK
6
CONTINUOUS
10
61.57
20
-56.8429
11
61.5045
21
-56.7386
0
LINE
8
BLACK
6
CONTINUOUS
10
61.5045
20
-56.7386
11
61.4638
21
-56.6224
0
LINE
8
BLACK
6
CONTINUOUS
10
61.4638
20
-56.6224
11
61.45
21
-56.5
0
LINE
8
BLACK
6
CONTINUOUS
10
61.45
20
-56.5
11
61.45
21
-44.5
0
LINE
8
BLACK
6
CONTINUOUS
10
61.45
20
-44.5
11
61.4638
21
-44.3776
0
LINE
8
BLACK
6
CONTINUOUS
10
61.4638
20
-44.3776
11
61.5045
21
-44.2614
0
LINE
8
BLACK
6
CONTINUOUS
10
61.5045
20
-44.2614
11
61.57
21
-44.1571
0
LINE
8
BLACK
6
CONTINUOUS
10
61.57
20
-44.1571
11
61.6571
21
-44.07
0
LINE
8
BLACK
6
CONTINUOUS
10
61.6571
20
-44.07
11
61.7614
21
-44.0045
0
LINE
8
BLACK
6
CONTINUOUS
10
61.7614
20
-44.0045
11
61.8776
21
-43.9638
0
LINE
8
BLACK
6
CONTINUOUS
10
61.8776
20
-43.9638
11
62
21
-43.95
0
LINE
8
BLACK
6
CONTINUOUS
10
62
20
-43.95
11
70
21
-43.95
0
LINE
8
BLACK
6
CONTINUOUS
10
70
20
-43.95
11
70.1224
21
-43.9638
0
LINE
8
BLACK
6
CONTINUOUS
10
70.1224
20
-43.9638
11
70.2386
21
-44.0045
0
LINE
8
BLACK
6
CONTINUOUS
10
70.2386
20
-44.0045
11
70.3429
21
-44.07
0
LINE
8
BLACK
6
CONTINUOUS
10
70.3429
20
-44.07
11
70.43
21
-44.1571
0
LINE
8
BLACK
6
CONTINUOUS
10
70.43
20
-44.1571
11
70.4955
21
-44.2614
0
LINE
8
BLACK
6
CONTINUOUS
10
70.4955
20
-44.2614
11
70.5362
21
-44.3776
0
LINE
8
BLACK
6
CONTINUOUS
10
70.5362
20
-44.3776
11
70.55
21
-44.5
0
LINE
8
BLACK
6
CONTINUOUS
10
70.55
20
-44.5
11
70.55
21
-56.5
0
LINE
8
BLACK
6
CONTINUOUS
10
70.55
20
-56.5
11
70.5362
21
-56.6224
0
LINE
8
BLACK
6
CONTINUOUS
10
70.5362
20
-56.6224
11
70.4955
21
-56.7386
0
LINE
8
BLACK
6
CONTINUOUS
10
70.4955
20
-56.7386
11
70.43
21
-56.8429
0
LINE
8
BLACK
6
CONTINUOUS
10
70.43
20
-56.8429
11
70.3429
21
-56.93
0
LINE
8
BLACK
6
CONTINUOUS
10
70.3429
20
-56.93
11
70.2386
21
-56.9955
0
LINE
8
BLACK
6
CONTINUOUS
10
70.2386
20
-56.9955
11
70.1224
21
-57.0362
0
LINE
8
BLACK
6
CONTINUOUS
10
70.1224
20
-57.0362
11
70
21
-57.05
0
LINE
8
BLACK
6
CONTINUOUS
10
70
20
-57.05
11
62
21
-57.05
0
LINE
8
BLACK
6
CONTINUOUS
10
62
20
-57.05
11
61.8776
21
-57.0362
0
LINE
8
BLACK
6
CONTINUOUS
10
61.9929
20
-44.0471
11
61.8825
21
-44.0616
0
LINE
8
BLACK
6
CONTINUOUS
10
61.8825
20
-44.0616
11
61.7731
21
-44.1069
0
LINE
8
BLACK
6
CONTINUOUS
10
61.7731
20
-44.1069
11
61.6791
21
-44.1791
0
LINE
8
BLACK
6
CONTINUOUS
10
61.6791
20
-44.1791
11
61.6069
21
-44.2731
0
LINE
8
BLACK
6
CONTINUOUS
10
61.6069
20
-44.2731
11
61.5616
21
-44.3825
0
LINE
8
BLACK
6
CONTINUOUS
10
61.5616
20
-44.3825
11
61.5471
21
-44.4929
0
LINE
8
BLACK
6
CONTINUOUS
10
61.5471
20
-44.4929
11
61.55
21
-44.5
0
LINE
8
BLACK
6
CONTINUOUS
10
61.55
20
-44.5
11
61.55
21
-56.5
0
LINE
8
BLACK
6
CONTINUOUS
10
61.55
20
-56.5
11
61.5471
21
-56.5071
0
LINE
8
BLACK
6
CONTINUOUS
10
61.5471
20
-56.5071
11
61.5616
21
-56.6175
0
LINE
8
BLACK
6
CONTINUOUS
10
61.5616
20
-56.6175
11
61.6069
21
-56.7269
0
LINE
8
BLACK
6
CONTINUOUS
10
61.6069
20
-56.7269
11
61.6791
21
-56.8209
0
LINE
8
BLACK
6
CONTINUOUS
10
61.6791
20
-56.8209
11
61.7731
21
-56.8931
0
LINE
8
BLACK
6
CONTINUOUS
10
61.7731
20
-56.8931
11
61.8825
21
-56.9384
0
LINE
8
BLACK
6
CONTINUOUS
10
61.8825
20
-56.9384
11
61.9929
21
-56.9529
0
LINE
8
BLACK
6
CONTINUOUS
10
61.9929
20
-56.9529
11
62
21
-56.95
0
LINE
8
BLACK
6
CONTINUOUS
10
62
20
-56.95
11
70
21
-56.95
0
LINE
8
BLACK
6
CONTINUOUS
10
70
20
-56.95
11
70.0071
21
-56.9529
0
LINE
8
BLACK
6
CONTINUOUS
10
70.0071
20
-56.9529
11
70.1175
21
-56.9384
0
LINE
8
BLACK
6
CONTINUOUS
10
70.1175
20
-56.9384
11
70.2269
21
-56.8931
0
LINE
8
BLACK
6
CONTINUOUS
10
70.2269
20
-56.8931
11
70.3209
21
-56.8209
0
LINE
8
BLACK
6
CONTINUOUS
10
70.3209
20
-56.8209
11
70.3931
21
-56.7269
0
LINE
8
BLACK
6
CONTINUOUS
10
70.3931
20
-56.7269
11
70.4384
21
-56.6175
0
LINE
8
BLACK
6
CONTINUOUS
10
70.4384
20
-56.6175
11
70.4529
21
-56.5071
0
LINE
8
BLACK
6
CONTINUOUS
10
70.4529
20
-56.5071
11
70.45
21
-56.5
0
LINE
8
BLACK
6
CONTINUOUS
10
70.45
20
-56.5
11
70.45
21
-44.5
0
LINE
8
BLACK
6
CONTINUOUS
10
70.45
20
-44.5
11
70.4529
21
-44.4929
0
LINE
8
BLACK
6
CONTINUOUS
10
70.4529
20
-44.4929
11
70.4384
21
-44.3825
0
LINE
8
BLACK
6
CONTINUOUS
10
70.4384
20
-44.3825
11
70.3931
21
-44.2731
0
LINE
8
BLACK
6
CONTINUOUS
10
70.3931
20
-44.2731
11
70.3209
21
-44.1791
0
LINE
8
BLACK
6
CONTINUOUS
10
70.3209
20
-44.1791
11
70.2269
21
-44.1069
0
LINE
8
BLACK
6
CONTINUOUS
10
70.2269
20
-44.1069
11
70.1175
21
-44.0616
0
LINE
8
BLACK
6
CONTINUOUS
10
70.1175
20
-44.0616
11
70.0071
21
-44.0471
0
LINE
8
BLACK
6
CONTINUOUS
10
70.0071
20
-44.0471
11
70
21
-44.05
0
LINE
8
BLACK
6
CONTINUOUS
10
70
20
-44.05
11
62
21
-44.05
0
LINE
8
BLACK
6
CONTINUOUS
10
62
20
-44.05
11
61.9929
21
-44.0471
0
LINE
8
BLACK
6
CONTINUOUS
10
202.325
20
-83.4377
11
202.386
21
-83.2166
0
LINE
8
BLACK
6
CONTINUOUS
10
202.386
20
-83.2166
11
202.483
21
-83.0085
0
LINE
8
BLACK
6
CONTINUOUS
10
202.483
20
-83.0085
11
202.612
21
-82.819
0
LINE
8
BLACK
6
CONTINUOUS
10
202.612
20
-82.819
11
202.771
21
-82.6531
0
LINE
8
BLACK
6
CONTINUOUS
10
202.771
20
-82.6531
11
202.954
21
-82.5153
0
LINE
8
BLACK
6
CONTINUOUS
10
202.954
20
-82.5153
11
203.157
21
-82.4094
0
LINE
8
BLACK
6
CONTINUOUS
10
203.157
20
-82.4094
11
203.376
21
-82.3381
0
LINE
8
BLACK
6
CONTINUOUS
10
203.376
20
-82.3381
11
203.602
21
-82.3034
0
LINE
8
BLACK
6
CONTINUOUS
10
203.602
20
-82.3034
11
203.832
21
-82.3062
0
LINE
8
BLACK
6
CONTINUOUS
10
203.832
20
-82.3062
11
204.058
21
-82.3464
0
LINE
8
BLACK
6
CONTINUOUS
10
204.058
20
-82.3464
11
204.274
21
-82.423
0
LINE
8
BLACK
6
CONTINUOUS
10
204.274
20
-82.423
11
204.475
21
-82.5339
0
LINE
8
BLACK
6
CONTINUOUS
10
204.475
20
-82.5339
11
204.655
21
-82.6761
0
LINE
8
BLACK
6
CONTINUOUS
10
204.655
20
-82.6761
11
204.809
21
-82.8458
0
LINE
8
BLACK
6
CONTINUOUS
10
204.809
20
-82.8458
11
204.934
21
-83.0384
0
LINE
8
BLACK
6
CONTINUOUS
10
204.934
20
-83.0384
11
205.025
21
-83.2488
0
LINE
8
BLACK
6
CONTINUOUS
10
205.025
20
-83.2488
11
205.081
21
-83.4713
0
LINE
8
BLACK
6
CONTINUOUS
10
205.081
20
-83.4713
11
205.1
21
-83.7
0
LINE
8
BLACK
6
CONTINUOUS
10
205.1
20
-83.7
11
205.098
21
-83.7684
0
LINE
8
BLACK
6
CONTINUOUS
10
205.098
20
-83.7684
11
205.068
21
-83.9959
0
LINE
8
BLACK
6
CONTINUOUS
10
205.068
20
-83.9959
11
205.002
21
-84.2154
0
LINE
8
BLACK
6
CONTINUOUS
10
205.002
20
-84.2154
11
204.9
21
-84.4211
0
LINE
8
BLACK
6
CONTINUOUS
10
204.9
20
-84.4211
11
204.766
21
-84.6074
0
LINE
8
BLACK
6
CONTINUOUS
10
204.766
20
-84.6074
11
204.604
21
-84.7693
0
LINE
8
BLACK
6
CONTINUOUS
10
204.604
20
-84.7693
11
204.417
21
-84.9025
0
LINE
8
BLACK
6
CONTINUOUS
10
204.417
20
-84.9025
11
204.211
21
-85.0035
0
LINE
8
BLACK
6
CONTINUOUS
10
204.211
20
-85.0035
11
203.991
21
-85.0694
0
LINE
8
BLACK
6
CONTINUOUS
10
203.991
20
-85.0694
11
203.764
21
-85.0986
0
LINE
8
BLACK
6
CONTINUOUS
10
203.764
20
-85.0986
11
203.534
21
-85.0902
0
LINE
8
BLACK
6
CONTINUOUS
10
203.534
20
-85.0902
11
203.309
21
-85.0444
0
LINE
8
BLACK
6
CONTINUOUS
10
203.309
20
-85.0444
11
203.095
21
-84.9626
0
LINE
8
BLACK
6
CONTINUOUS
10
203.095
20
-84.9626
11
202.897
21
-84.8468
0
LINE
8
BLACK
6
CONTINUOUS
10
202.897
20
-84.8468
11
202.72
21
-84.7003
0
LINE
8
BLACK
6
CONTINUOUS
10
202.72
20
-84.7003
11
202.57
21
-84.5268
0
LINE
8
BLACK
6
CONTINUOUS
10
202.57
20
-84.5268
11
202.45
21
-84.3312
0
LINE
8
BLACK
6
CONTINUOUS
10
202.45
20
-84.3312
11
202.364
21
-84.1187
0
LINE
8
BLACK
6
CONTINUOUS
10
202.364
20
-84.1187
11
202.314
21
-83.8948
0
LINE
8
BLACK
6
CONTINUOUS
10
202.314
20
-83.8948
11
202.302
21
-83.7
0
LINE
8
BLACK
6
CONTINUOUS
10
202.302
20
-83.7
11
202.3
21
-83.6658
0
LINE
8
BLACK
6
CONTINUOUS
10
202.3
20
-83.6658
11
202.325
21
-83.4377
0
LINE
8
BLACK
6
CONTINUOUS
10
202.474
20
-84.1463
11
202.57
21
-84.3525
0
LINE
8
BLACK
6
CONTINUOUS
10
202.57
20
-84.3525
11
202.7
21
-84.5388
0
LINE
8
BLACK
6
CONTINUOUS
10
202.7
20
-84.5388
11
202.861
21
-84.6997
0
LINE
8
BLACK
6
CONTINUOUS
10
202.861
20
-84.6997
11
203.048
21
-84.8301
0
LINE
8
BLACK
6
CONTINUOUS
10
203.048
20
-84.8301
11
203.254
21
-84.9263
0
LINE
8
BLACK
6
CONTINUOUS
10
203.254
20
-84.9263
11
203.473
21
-84.9851
0
LINE
8
BLACK
6
CONTINUOUS
10
203.473
20
-84.9851
11
203.7
21
-85.005
0
LINE
8
BLACK
6
CONTINUOUS
10
203.7
20
-85.005
11
203.927
21
-84.9851
0
LINE
8
BLACK
6
CONTINUOUS
10
203.927
20
-84.9851
11
204.146
21
-84.9263
0
LINE
8
BLACK
6
CONTINUOUS
10
204.146
20
-84.9263
11
204.352
21
-84.8301
0
LINE
8
BLACK
6
CONTINUOUS
10
204.352
20
-84.8301
11
204.539
21
-84.6997
0
LINE
8
BLACK
6
CONTINUOUS
10
204.539
20
-84.6997
11
204.7
21
-84.5388
0
LINE
8
BLACK
6
CONTINUOUS
10
204.7
20
-84.5388
11
204.83
21
-84.3525
0
LINE
8
BLACK
6
CONTINUOUS
10
204.83
20
-84.3525
11
204.926
21
-84.1463
0
LINE
8
BLACK
6
CONTINUOUS
10
204.926
20
-84.1463
11
204.985
21
-83.9266
0
LINE
8
BLACK
6
CONTINUOUS
10
204.985
20
-83.9266
11
205.005
21
-83.7
0
LINE
8
BLACK
6
CONTINUOUS
10
205.005
20
-83.7
11
204.985
21
-83.4734
0
LINE
8
BLACK
6
CONTINUOUS
10
204.985
20
-83.4734
11
204.926
21
-83.2537
0
LINE
8
BLACK
6
CONTINUOUS
10
204.926
20
-83.2537
11
204.83
21
-83.0475
0
LINE
8
BLACK
6
CONTINUOUS
10
204.83
20
-83.0475
11
204.7
21
-82.8612
0
LINE
8
BLACK
6
CONTINUOUS
10
204.7
20
-82.8612
11
204.539
21
-82.7003
0
LINE
8
BLACK
6
CONTINUOUS
10
204.539
20
-82.7003
11
204.352
21
-82.5699
0
LINE
8
BLACK
6
CONTINUOUS
10
204.352
20
-82.5699
11
204.146
21
-82.4737
0
LINE
8
BLACK
6
CONTINUOUS
10
204.146
20
-82.4737
11
203.927
21
-82.4149
0
LINE
8
BLACK
6
CONTINUOUS
10
203.927
20
-82.4149
11
203.7
21
-82.395
0
LINE
8
BLACK
6
CONTINUOUS
10
203.7
20
-82.395
11
203.473
21
-82.4149
0
LINE
8
BLACK
6
CONTINUOUS
10
203.473
20
-82.4149
11
203.254
21
-82.4737
0
LINE
8
BLACK
6
CONTINUOUS
10
203.254
20
-82.4737
11
203.048
21
-82.5699
0
LINE
8
BLACK
6
CONTINUOUS
10
203.048
20
-82.5699
11
202.861
21
-82.7003
0
LINE
8
BLACK
6
CONTINUOUS
10
202.861
20
-82.7003
11
202.7
21
-82.8612
0
LINE
8
BLACK
6
CONTINUOUS
10
202.7
20
-82.8612
11
202.57
21
-83.0475
0
LINE
8
BLACK
6
CONTINUOUS
10
202.57
20
-83.0475
11
202.474
21
-83.2537
0
LINE
8
BLACK
6
CONTINUOUS
10
202.474
20
-83.2537
11
202.415
21
-83.4734
0
LINE
8
BLACK
6
CONTINUOUS
10
202.415
20
-83.4734
11
202.395
21
-83.7
0
LINE
8
BLACK
6
CONTINUOUS
10
202.395
20
-83.7
11
202.415
21
-83.9266
0
LINE
8
BLACK
6
CONTINUOUS
10
202.415
20
-83.9266
11
202.474
21
-84.1463
0
LINE
8
BLACK
6
CONTINUOUS
10
20.9248
20
-83.4377
11
20.9861
21
-83.2166
0
LINE
8
BLACK
6
CONTINUOUS
10
20.9861
20
-83.2166
11
21.0827
21
-83.0085
0
LINE
8
BLACK
6
CONTINUOUS
10
21.0827
20
-83.0085
11
21.212
21
-82.819
0
LINE
8
BLACK
6
CONTINUOUS
10
21.212
20
-82.819
11
21.3705
21
-82.6531
0
LINE
8
BLACK
6
CONTINUOUS
10
21.3705
20
-82.6531
11
21.554
21
-82.5153
0
LINE
8
BLACK
6
CONTINUOUS
10
21.554
20
-82.5153
11
21.7575
21
-82.4094
0
LINE
8
BLACK
6
CONTINUOUS
10
21.7575
20
-82.4094
11
21.9756
21
-82.3381
0
LINE
8
BLACK
6
CONTINUOUS
10
21.9756
20
-82.3381
11
22.2023
21
-82.3034
0
LINE
8
BLACK
6
CONTINUOUS
10
22.2023
20
-82.3034
11
22.4318
21
-82.3062
0
LINE
8
BLACK
6
CONTINUOUS
10
22.4318
20
-82.3062
11
22.6576
21
-82.3464
0
LINE
8
BLACK
6
CONTINUOUS
10
22.6576
20
-82.3464
11
22.8739
21
-82.423
0
LINE
8
BLACK
6
CONTINUOUS
10
22.8739
20
-82.423
11
23.0747
21
-82.5339
0
LINE
8
BLACK
6
CONTINUOUS
10
23.0747
20
-82.5339
11
23.2548
21
-82.6761
0
LINE
8
BLACK
6
CONTINUOUS
10
23.2548
20
-82.6761
11
23.4092
21
-82.8458
0
LINE
8
BLACK
6
CONTINUOUS
10
23.4092
20
-82.8458
11
23.5338
21
-83.0384
0
LINE
8
BLACK
6
CONTINUOUS
10
23.5338
20
-83.0384
11
23.6253
21
-83.2488
0
LINE
8
BLACK
6
CONTINUOUS
10
23.6253
20
-83.2488
11
23.6812
21
-83.4713
0
LINE
8
BLACK
6
CONTINUOUS
10
23.6812
20
-83.4713
11
23.7
21
-83.7
0
LINE
8
BLACK
6
CONTINUOUS
10
23.7
20
-83.7
11
23.6983
21
-83.7684
0
LINE
8
BLACK
6
CONTINUOUS
10
23.6983
20
-83.7684
11
23.6684
21
-83.9959
0
LINE
8
BLACK
6
CONTINUOUS
10
23.6684
20
-83.9959
11
23.6017
21
-84.2154
0
LINE
8
BLACK
6
CONTINUOUS
10
23.6017
20
-84.2154
11
23.5
21
-84.4211
0
LINE
8
BLACK
6
CONTINUOUS
10
23.5
20
-84.4211
11
23.3662
21
-84.6074
0
LINE
8
BLACK
6
CONTINUOUS
10
23.3662
20
-84.6074
11
23.2036
21
-84.7693
0
LINE
8
BLACK
6
CONTINUOUS
10
23.2036
20
-84.7693
11
23.0169
21
-84.9025
0
LINE
8
BLACK
6
CONTINUOUS
10
23.0169
20
-84.9025
11
22.8108
21
-85.0035
0
LINE
8
BLACK
6
CONTINUOUS
10
22.8108
20
-85.0035
11
22.5911
21
-85.0694
0
LINE
8
BLACK
6
CONTINUOUS
10
22.5911
20
-85.0694
11
22.3635
21
-85.0986
0
LINE
8
BLACK
6
CONTINUOUS
10
22.3635
20
-85.0986
11
22.1342
21
-85.0902
0
LINE
8
BLACK
6
CONTINUOUS
10
22.1342
20
-85.0902
11
21.9094
21
-85.0444
0
LINE
8
BLACK
6
CONTINUOUS
10
21.9094
20
-85.0444
11
21.6951
21
-84.9626
0
LINE
8
BLACK
6
CONTINUOUS
10
21.6951
20
-84.9626
11
21.497
21
-84.8468
0
LINE
8
BLACK
6
CONTINUOUS
10
21.497
20
-84.8468
11
21.3205
21
-84.7003
0
LINE
8
BLACK
6
CONTINUOUS
10
21.3205
20
-84.7003
11
21.1703
21
-84.5268
0
LINE
8
BLACK
6
CONTINUOUS
10
21.1703
20
-84.5268
11
21.0504
21
-84.3312
0
LINE
8
BLACK
6
CONTINUOUS
10
21.0504
20
-84.3312
11
20.9641
21
-84.1187
0
LINE
8
BLACK
6
CONTINUOUS
10
20.9641
20
-84.1187
11
20.9136
21
-83.8948
0
LINE
8
BLACK
6
CONTINUOUS
10
20.9136
20
-83.8948
11
20.9024
21
-83.7
0
LINE
8
BLACK
6
CONTINUOUS
10
20.9024
20
-83.7
11
20.9004
21
-83.6658
0
LINE
8
BLACK
6
CONTINUOUS
10
20.9004
20
-83.6658
11
20.9248
21
-83.4377
0
LINE
8
BLACK
6
CONTINUOUS
10
21.0737
20
-84.1463
11
21.1699
21
-84.3525
0
LINE
8
BLACK
6
CONTINUOUS
10
21.1699
20
-84.3525
11
21.3003
21
-84.5388
0
LINE
8
BLACK
6
CONTINUOUS
10
21.3003
20
-84.5388
11
21.4612
21
-84.6997
0
LINE
8
BLACK
6
CONTINUOUS
10
21.4612
20
-84.6997
11
21.6475
21
-84.8301
0
LINE
8
BLACK
6
CONTINUOUS
10
21.6475
20
-84.8301
11
21.8537
21
-84.9263
0
LINE
8
BLACK
6
CONTINUOUS
10
21.8537
20
-84.9263
11
22.0734
21
-84.9851
0
LINE
8
BLACK
6
CONTINUOUS
10
22.0734
20
-84.9851
11
22.3
21
-85.005
0
LINE
8
BLACK
6
CONTINUOUS
10
22.3
20
-85.005
11
22.5266
21
-84.9851
0
LINE
8
BLACK
6
CONTINUOUS
10
22.5266
20
-84.9851
11
22.7463
21
-84.9263
0
LINE
8
BLACK
6
CONTINUOUS
10
22.7463
20
-84.9263
11
22.9525
21
-84.8301
0
LINE
8
BLACK
6
CONTINUOUS
10
22.9525
20
-84.8301
11
23.1388
21
-84.6997
0
LINE
8
BLACK
6
CONTINUOUS
10
23.1388
20
-84.6997
11
23.2997
21
-84.5388
0
LINE
8
BLACK
6
CONTINUOUS
10
23.2997
20
-84.5388
11
23.4301
21
-84.3525
0
LINE
8
BLACK
6
CONTINUOUS
10
23.4301
20
-84.3525
11
23.5263
21
-84.1463
0
LINE
8
BLACK
6
CONTINUOUS
10
23.5263
20
-84.1463
11
23.5851
21
-83.9266
0
LINE
8
BLACK
6
CONTINUOUS
10
23.5851
20
-83.9266
11
23.605
21
-83.7
0
LINE
8
BLACK
6
CONTINUOUS
10
23.605
20
-83.7
11
23.5851
21
-83.4734
0
LINE
8
BLACK
6
CONTINUOUS
10
23.5851
20
-83.4734
11
23.5263
21
-83.2537
0
LINE
8
BLACK
6
CONTINUOUS
10
23.5263
20
-83.2537
11
23.4301
21
-83.0475
0
LINE
8
BLACK
6
CONTINUOUS
10
23.4301
20
-83.0475
11
23.2997
21
-82.8612
0
LINE
8
BLACK
6
CONTINUOUS
10
23.2997
20
-82.8612
11
23.1388
21
-82.7003
0
LINE
8
BLACK
6
CONTINUOUS
10
23.1388
20
-82.7003
11
22.9525
21
-82.5699
0
LINE
8
BLACK
6
CONTINUOUS
10
22.9525
20
-82.5699
11
22.7463
21
-82.4737
0
LINE
8
BLACK
6
CONTINUOUS
10
22.7463
20
-82.4737
11
22.5266
21
-82.4149
0
LINE
8
BLACK
6
CONTINUOUS
10
22.5266
20
-82.4149
11
22.3
21
-82.395
0
LINE
8
BLACK
6
CONTINUOUS
10
22.3
20
-82.395
11
22.0734
21
-82.4149
0
LINE
8
BLACK
6
CONTINUOUS
10
22.0734
20
-82.4149
11
21.8537
21
-82.4737
0
LINE
8
BLACK
6
CONTINUOUS
10
21.8537
20
-82.4737
11
21.6475
21
-82.5699
0
LINE
8
BLACK
6
CONTINUOUS
10
21.6475
20
-82.5699
11
21.4612
21
-82.7003
0
LINE
8
BLACK
6
CONTINUOUS
10
21.4612
20
-82.7003
11
21.3003
21
-82.8612
0
LINE
8
BLACK
6
CONTINUOUS
10
21.3003
20
-82.8612
11
21.1699
21
-83.0475
0
LINE
8
BLACK
6
CONTINUOUS
10
21.1699
20
-83.0475
11
21.0737
21
-83.2537
0
LINE
8
BLACK
6
CONTINUOUS
10
21.0737
20
-83.2537
11
21.0149
21
-83.4734
0
LINE
8
BLACK
6
CONTINUOUS
10
21.0149
20
-83.4734
11
20.995
21
-83.7
0
LINE
8
BLACK
6
CONTINUOUS
10
20.995
20
-83.7
11
21.0149
21
-83.9266
0
LINE
8
BLACK
6
CONTINUOUS
10
21.0149
20
-83.9266
11
21.0737
21
-84.1463
0
LINE
8
BLACK
6
CONTINUOUS
10
86.0314
20
-76.9281
11
86.1272
21
-76.6662
0
LINE
8
BLACK
6
CONTINUOUS
10
86.1272
20
-76.6662
11
86.2577
21
-76.4197
0
LINE
8
BLACK
6
CONTINUOUS
10
86.2577
20
-76.4197
11
86.4204
21
-76.1933
0
LINE
8
BLACK
6
CONTINUOUS
10
86.4204
20
-76.1933
11
86.6124
21
-75.991
0
LINE
8
BLACK
6
CONTINUOUS
10
86.6124
20
-75.991
11
86.83
21
-75.8166
0
LINE
8
BLACK
6
CONTINUOUS
10
86.83
20
-75.8166
11
87.0693
21
-75.6734
0
LINE
8
BLACK
6
CONTINUOUS
10
87.0693
20
-75.6734
11
87.3258
21
-75.564
0
LINE
8
BLACK
6
CONTINUOUS
10
87.3258
20
-75.564
11
87.5948
21
-75.4904
0
LINE
8
BLACK
6
CONTINUOUS
10
87.5948
20
-75.4904
11
87.8713
21
-75.454
0
LINE
8
BLACK
6
CONTINUOUS
10
87.8713
20
-75.454
11
88.1501
21
-75.4555
0
LINE
8
BLACK
6
CONTINUOUS
10
88.1501
20
-75.4555
11
88.4262
21
-75.4948
0
LINE
8
BLACK
6
CONTINUOUS
10
88.4262
20
-75.4948
11
88.6944
21
-75.5712
0
LINE
8
BLACK
6
CONTINUOUS
10
88.6944
20
-75.5712
11
88.9498
21
-75.6833
0
LINE
8
BLACK
6
CONTINUOUS
10
88.9498
20
-75.6833
11
89.1875
21
-75.829
0
LINE
8
BLACK
6
CONTINUOUS
10
89.1875
20
-75.829
11
89.4033
21
-76.0056
0
LINE
8
BLACK
6
CONTINUOUS
10
89.4033
20
-76.0056
11
89.5931
21
-76.2099
0
LINE
8
BLACK
6
CONTINUOUS
10
89.5931
20
-76.2099
11
89.7535
21
-76.438
0
LINE
8
BLACK
6
CONTINUOUS
10
89.7535
20
-76.438
11
89.8814
21
-76.6858
0
LINE
8
BLACK
6
CONTINUOUS
10
89.8814
20
-76.6858
11
89.9745
21
-76.9487
0
LINE
8
BLACK
6
CONTINUOUS
10
89.9745
20
-76.9487
11
90.031
21
-77.2218
0
LINE
8
BLACK
6
CONTINUOUS
10
90.031
20
-77.2218
11
90.05
21
-77.5
0
LINE
8
BLACK
6
CONTINUOUS
10
90.05
20
-77.5
11
90.0495
21
-77.5429
0
LINE
8
BLACK
6
CONTINUOUS
10
90.0495
20
-77.5429
11
90.0248
21
-77.8207
0
LINE
8
BLACK
6
CONTINUOUS
10
90.0248
20
-77.8207
11
89.9625
21
-78.0925
0
LINE
8
BLACK
6
CONTINUOUS
10
89.9625
20
-78.0925
11
89.8639
21
-78.3534
0
LINE
8
BLACK
6
CONTINUOUS
10
89.8639
20
-78.3534
11
89.7309
21
-78.5984
0
LINE
8
BLACK
6
CONTINUOUS
10
89.7309
20
-78.5984
11
89.5658
21
-78.8232
0
LINE
8
BLACK
6
CONTINUOUS
10
89.5658
20
-78.8232
11
89.3717
21
-79.0234
0
LINE
8
BLACK
6
CONTINUOUS
10
89.3717
20
-79.0234
11
89.1523
21
-79.1955
0
LINE
8
BLACK
6
CONTINUOUS
10
89.1523
20
-79.1955
11
88.9115
21
-79.3362
0
LINE
8
BLACK
6
CONTINUOUS
10
88.9115
20
-79.3362
11
88.6539
21
-79.4429
0
LINE
8
BLACK
6
CONTINUOUS
10
88.6539
20
-79.4429
11
88.3841
21
-79.5137
0
LINE
8
BLACK
6
CONTINUOUS
10
88.3841
20
-79.5137
11
88.1073
21
-79.5472
0
LINE
8
BLACK
6
CONTINUOUS
10
88.1073
20
-79.5472
11
87.8285
21
-79.5428
0
LINE
8
BLACK
6
CONTINUOUS
10
87.8285
20
-79.5428
11
87.5528
21
-79.5006
0
LINE
8
BLACK
6
CONTINUOUS
10
87.5528
20
-79.5006
11
87.2854
21
-79.4214
0
LINE
8
BLACK
6
CONTINUOUS
10
87.2854
20
-79.4214
11
87.0313
21
-79.3067
0
LINE
8
BLACK
6
CONTINUOUS
10
87.0313
20
-79.3067
11
86.795
21
-79.1585
0
LINE
8
BLACK
6
CONTINUOUS
10
86.795
20
-79.1585
11
86.5811
21
-78.9796
0
LINE
8
BLACK
6
CONTINUOUS
10
86.5811
20
-78.9796
11
86.3934
21
-78.7734
0
LINE
8
BLACK
6
CONTINUOUS
10
86.3934
20
-78.7734
11
86.2355
21
-78.5435
0
LINE
8
BLACK
6
CONTINUOUS
10
86.2355
20
-78.5435
11
86.1102
21
-78.2944
0
LINE
8
BLACK
6
CONTINUOUS
10
86.1102
20
-78.2944
11
86.0199
21
-78.0306
0
LINE
8
BLACK
6
CONTINUOUS
10
86.0199
20
-78.0306
11
85.9662
21
-77.7569
0
LINE
8
BLACK
6
CONTINUOUS
10
85.9662
20
-77.7569
11
85.9501
21
-77.4785
0
LINE
8
BLACK
6
CONTINUOUS
10
85.9501
20
-77.4785
11
85.9533
21
-77.4386
0
LINE
8
BLACK
6
CONTINUOUS
10
85.9533
20
-77.4386
11
85.972
21
-77.2005
0
LINE
8
BLACK
6
CONTINUOUS
10
85.972
20
-77.2005
11
86.0314
21
-76.9281
0
LINE
8
BLACK
6
CONTINUOUS
10
86.1064
20
-77.9862
11
86.1938
21
-78.2481
0
LINE
8
BLACK
6
CONTINUOUS
10
86.1938
20
-78.2481
11
86.3173
21
-78.4952
0
LINE
8
BLACK
6
CONTINUOUS
10
86.3173
20
-78.4952
11
86.4743
21
-78.7223
0
LINE
8
BLACK
6
CONTINUOUS
10
86.4743
20
-78.7223
11
86.6617
21
-78.9251
0
LINE
8
BLACK
6
CONTINUOUS
10
86.6617
20
-78.9251
11
86.8759
21
-79.0995
0
LINE
8
BLACK
6
CONTINUOUS
10
86.8759
20
-79.0995
11
87.1125
21
-79.2419
0
LINE
8
BLACK
6
CONTINUOUS
10
87.1125
20
-79.2419
11
87.3667
21
-79.3496
0
LINE
8
BLACK
6
CONTINUOUS
10
87.3667
20
-79.3496
11
87.6337
21
-79.4204
0
LINE
8
BLACK
6
CONTINUOUS
10
87.6337
20
-79.4204
11
87.9079
21
-79.4528
0
LINE
8
BLACK
6
CONTINUOUS
10
87.9079
20
-79.4528
11
88.184
21
-79.4463
0
LINE
8
BLACK
6
CONTINUOUS
10
88.184
20
-79.4463
11
88.4564
21
-79.401
0
LINE
8
BLACK
6
CONTINUOUS
10
88.4564
20
-79.401
11
88.7197
21
-79.3177
0
LINE
8
BLACK
6
CONTINUOUS
10
88.7197
20
-79.3177
11
88.9686
21
-79.1982
0
LINE
8
BLACK
6
CONTINUOUS
10
88.9686
20
-79.1982
11
89.1982
21
-79.0447
0
LINE
8
BLACK
6
CONTINUOUS
10
89.1982
20
-79.0447
11
89.4039
21
-78.8605
0
LINE
8
BLACK
6
CONTINUOUS
10
89.4039
20
-78.8605
11
89.5816
21
-78.6491
0
LINE
8
BLACK
6
CONTINUOUS
10
89.5816
20
-78.6491
11
89.7277
21
-78.4148
0
LINE
8
BLACK
6
CONTINUOUS
10
89.7277
20
-78.4148
11
89.8394
21
-78.1622
0
LINE
8
BLACK
6
CONTINUOUS
10
89.8394
20
-78.1622
11
89.9144
21
-77.8964
0
LINE
8
BLACK
6
CONTINUOUS
10
89.9144
20
-77.8964
11
89.9511
21
-77.6228
0
LINE
8
BLACK
6
CONTINUOUS
10
89.9511
20
-77.6228
11
89.955
21
-77.5
0
LINE
8
BLACK
6
CONTINUOUS
10
89.955
20
-77.5
11
89.9355
21
-77.2245
0
LINE
8
BLACK
6
CONTINUOUS
10
89.9355
20
-77.2245
11
89.8774
21
-76.9546
0
LINE
8
BLACK
6
CONTINUOUS
10
89.8774
20
-76.9546
11
89.7818
21
-76.6955
0
LINE
8
BLACK
6
CONTINUOUS
10
89.7818
20
-76.6955
11
89.6506
21
-76.4525
0
LINE
8
BLACK
6
CONTINUOUS
10
89.6506
20
-76.4525
11
89.4866
21
-76.2303
0
LINE
8
BLACK
6
CONTINUOUS
10
89.4866
20
-76.2303
11
89.2929
21
-76.0335
0
LINE
8
BLACK
6
CONTINUOUS
10
89.2929
20
-76.0335
11
89.0733
21
-75.866
0
LINE
8
BLACK
6
CONTINUOUS
10
89.0733
20
-75.866
11
88.8324
21
-75.7311
0
LINE
8
BLACK
6
CONTINUOUS
10
88.8324
20
-75.7311
11
88.5748
21
-75.6314
0
LINE
8
BLACK
6
CONTINUOUS
10
88.5748
20
-75.6314
11
88.3058
21
-75.5691
0
LINE
8
BLACK
6
CONTINUOUS
10
88.3058
20
-75.5691
11
88.0307
21
-75.5453
0
LINE
8
BLACK
6
CONTINUOUS
10
88.0307
20
-75.5453
11
87.755
21
-75.5604
0
LINE
8
BLACK
6
CONTINUOUS
10
87.755
20
-75.5604
11
87.4841
21
-75.6143
0
LINE
8
BLACK
6
CONTINUOUS
10
87.4841
20
-75.6143
11
87.2236
21
-75.7058
0
LINE
8
BLACK
6
CONTINUOUS
10
87.2236
20
-75.7058
11
86.9785
21
-75.8331
0
LINE
8
BLACK
6
CONTINUOUS
10
86.9785
20
-75.8331
11
86.7538
21
-75.9937
0
LINE
8
BLACK
6
CONTINUOUS
10
86.7538
20
-75.9937
11
86.554
21
-76.1843
0
LINE
8
BLACK
6
CONTINUOUS
10
86.554
20
-76.1843
11
86.3831
21
-76.4011
0
LINE
8
BLACK
6
CONTINUOUS
10
86.3831
20
-76.4011
11
86.2444
21
-76.6399
0
LINE
8
BLACK
6
CONTINUOUS
10
86.2444
20
-76.6399
11
86.1407
21
-76.8959
0
LINE
8
BLACK
6
CONTINUOUS
10
86.1407
20
-76.8959
11
86.0741
21
-77.1639
0
LINE
8
BLACK
6
CONTINUOUS
10
86.0741
20
-77.1639
11
86.046
21
-77.4386
0
LINE
8
BLACK
6
CONTINUOUS
10
86.046
20
-77.4386
11
86.0568
21
-77.7145
0
LINE
8
BLACK
6
CONTINUOUS
10
86.0568
20
-77.7145
11
86.1064
21
-77.9862
0
LINE
8
BLACK
6
CONTINUOUS
10
124.031
20
-76.9281
11
124.127
21
-76.6662
0
LINE
8
BLACK
6
CONTINUOUS
10
124.127
20
-76.6662
11
124.258
21
-76.4197
0
LINE
8
BLACK
6
CONTINUOUS
10
124.258
20
-76.4197
11
124.42
21
-76.1933
0
LINE
8
BLACK
6
CONTINUOUS
10
124.42
20
-76.1933
11
124.612
21
-75.991
0
LINE
8
BLACK
6
CONTINUOUS
10
124.612
20
-75.991
11
124.83
21
-75.8166
0
LINE
8
BLACK
6
CONTINUOUS
10
124.83
20
-75.8166
11
125.069
21
-75.6734
0
LINE
8
BLACK
6
CONTINUOUS
10
125.069
20
-75.6734
11
125.326
21
-75.564
0
LINE
8
BLACK
6
CONTINUOUS
10
125.326
20
-75.564
11
125.595
21
-75.4904
0
LINE
8
BLACK
6
CONTINUOUS
10
125.595
20
-75.4904
11
125.871
21
-75.454
0
LINE
8
BLACK
6
CONTINUOUS
10
125.871
20
-75.454
11
126.15
21
-75.4555
0
LINE
8
BLACK
6
CONTINUOUS
10
126.15
20
-75.4555
11
126.426
21
-75.4948
0
LINE
8
BLACK
6
CONTINUOUS
10
126.426
20
-75.4948
11
126.694
21
-75.5712
0
LINE
8
BLACK
6
CONTINUOUS
10
126.694
20
-75.5712
11
126.95
21
-75.6833
0
LINE
8
BLACK
6
CONTINUOUS
10
126.95
20
-75.6833
11
127.188
21
-75.829
0
LINE
8
BLACK
6
CONTINUOUS
10
127.188
20
-75.829
11
127.403
21
-76.0056
0
LINE
8
BLACK
6
CONTINUOUS
10
127.403
20
-76.0056
11
127.593
21
-76.2099
0
LINE
8
BLACK
6
CONTINUOUS
10
127.593
20
-76.2099
11
127.753
21
-76.438
0
LINE
8
BLACK
6
CONTINUOUS
10
127.753
20
-76.438
11
127.881
21
-76.6858
0
LINE
8
BLACK
6
CONTINUOUS
10
127.881
20
-76.6858
11
127.974
21
-76.9487
0
LINE
8
BLACK
6
CONTINUOUS
10
127.974
20
-76.9487
11
128.031
21
-77.2218
0
LINE
8
BLACK
6
CONTINUOUS
10
128.031
20
-77.2218
11
128.05
21
-77.5
0
LINE
8
BLACK
6
CONTINUOUS
10
128.05
20
-77.5
11
128.05
21
-77.5429
0
LINE
8
BLACK
6
CONTINUOUS
10
128.05
20
-77.5429
11
128.025
21
-77.8207
0
LINE
8
BLACK
6
CONTINUOUS
10
128.025
20
-77.8207
11
127.963
21
-78.0925
0
LINE
8
BLACK
6
CONTINUOUS
10
127.963
20
-78.0925
11
127.864
21
-78.3534
0
LINE
8
BLACK
6
CONTINUOUS
10
127.864
20
-78.3534
11
127.731
21
-78.5984
0
LINE
8
BLACK
6
CONTINUOUS
10
127.731
20
-78.5984
11
127.566
21
-78.8232
0
LINE
8
BLACK
6
CONTINUOUS
10
127.566
20
-78.8232
11
127.372
21
-79.0234
0
LINE
8
BLACK
6
CONTINUOUS
10
127.372
20
-79.0234
11
127.152
21
-79.1955
0
LINE
8
BLACK
6
CONTINUOUS
10
127.152
20
-79.1955
11
126.912
21
-79.3362
0
LINE
8
BLACK
6
CONTINUOUS
10
126.912
20
-79.3362
11
126.654
21
-79.4429
0
LINE
8
BLACK
6
CONTINUOUS
10
126.654
20
-79.4429
11
126.384
21
-79.5137
0
LINE
8
BLACK
6
CONTINUOUS
10
126.384
20
-79.5137
11
126.107
21
-79.5472
0
LINE
8
BLACK
6
CONTINUOUS
10
126.107
20
-79.5472
11
125.828
21
-79.5428
0
LINE
8
BLACK
6
CONTINUOUS
10
125.828
20
-79.5428
11
125.553
21
-79.5006
0
LINE
8
BLACK
6
CONTINUOUS
10
125.553
20
-79.5006
11
125.285
21
-79.4214
0
LINE
8
BLACK
6
CONTINUOUS
10
125.285
20
-79.4214
11
125.031
21
-79.3067
0
LINE
8
BLACK
6
CONTINUOUS
10
125.031
20
-79.3067
11
124.795
21
-79.1585
0
LINE
8
BLACK
6
CONTINUOUS
10
124.795
20
-79.1585
11
124.581
21
-78.9796
0
LINE
8
BLACK
6
CONTINUOUS
10
124.581
20
-78.9796
11
124.393
21
-78.7734
0
LINE
8
BLACK
6
CONTINUOUS
10
124.393
20
-78.7734
11
124.235
21
-78.5435
0
LINE
8
BLACK
6
CONTINUOUS
10
124.235
20
-78.5435
11
124.11
21
-78.2944
0
LINE
8
BLACK
6
CONTINUOUS
10
124.11
20
-78.2944
11
124.02
21
-78.0306
0
LINE
8
BLACK
6
CONTINUOUS
10
124.02
20
-78.0306
11
123.966
21
-77.7569
0
LINE
8
BLACK
6
CONTINUOUS
10
123.966
20
-77.7569
11
123.95
21
-77.4785
0
LINE
8
BLACK
6
CONTINUOUS
10
123.95
20
-77.4785
11
123.953
21
-77.4386
0
LINE
8
BLACK
6
CONTINUOUS
10
123.953
20
-77.4386
11
123.972
21
-77.2005
0
LINE
8
BLACK
6
CONTINUOUS
10
123.972
20
-77.2005
11
124.031
21
-76.9281
0
LINE
8
BLACK
6
CONTINUOUS
10
124.106
20
-77.9862
11
124.194
21
-78.2481
0
LINE
8
BLACK
6
CONTINUOUS
10
124.194
20
-78.2481
11
124.317
21
-78.4952
0
LINE
8
BLACK
6
CONTINUOUS
10
124.317
20
-78.4952
11
124.474
21
-78.7223
0
LINE
8
BLACK
6
CONTINUOUS
10
124.474
20
-78.7223
11
124.662
21
-78.9251
0
LINE
8
BLACK
6
CONTINUOUS
10
124.662
20
-78.9251
11
124.876
21
-79.0995
0
LINE
8
BLACK
6
CONTINUOUS
10
124.876
20
-79.0995
11
125.112
21
-79.2419
0
LINE
8
BLACK
6
CONTINUOUS
10
125.112
20
-79.2419
11
125.367
21
-79.3496
0
LINE
8
BLACK
6
CONTINUOUS
10
125.367
20
-79.3496
11
125.634
21
-79.4204
0
LINE
8
BLACK
6
CONTINUOUS
10
125.634
20
-79.4204
11
125.908
21
-79.4528
0
LINE
8
BLACK
6
CONTINUOUS
10
125.908
20
-79.4528
11
126.184
21
-79.4463
0
LINE
8
BLACK
6
CONTINUOUS
10
126.184
20
-79.4463
11
126.456
21
-79.401
0
LINE
8
BLACK
6
CONTINUOUS
10
126.456
20
-79.401
11
126.72
21
-79.3177
0
LINE
8
BLACK
6
CONTINUOUS
10
126.72
20
-79.3177
11
126.969
21
-79.1982
0
LINE
8
BLACK
6
CONTINUOUS
10
126.969
20
-79.1982
11
127.198
21
-79.0447
0
LINE
8
BLACK
6
CONTINUOUS
10
127.198
20
-79.0447
11
127.404
21
-78.8605
0
LINE
8
BLACK
6
CONTINUOUS
10
127.404
20
-78.8605
11
127.582
21
-78.6491
0
LINE
8
BLACK
6
CONTINUOUS
10
127.582
20
-78.6491
11
127.728
21
-78.4148
0
LINE
8
BLACK
6
CONTINUOUS
10
127.728
20
-78.4148
11
127.839
21
-78.1622
0
LINE
8
BLACK
6
CONTINUOUS
10
127.839
20
-78.1622
11
127.914
21
-77.8964
0
LINE
8
BLACK
6
CONTINUOUS
10
127.914
20
-77.8964
11
127.951
21
-77.6228
0
LINE
8
BLACK
6
CONTINUOUS
10
127.951
20
-77.6228
11
127.955
21
-77.5
0
LINE
8
BLACK
6
CONTINUOUS
10
127.955
20
-77.5
11
127.935
21
-77.2245
0
LINE
8
BLACK
6
CONTINUOUS
10
127.935
20
-77.2245
11
127.877
21
-76.9546
0
LINE
8
BLACK
6
CONTINUOUS
10
127.877
20
-76.9546
11
127.782
21
-76.6955
0
LINE
8
BLACK
6
CONTINUOUS
10
127.782
20
-76.6955
11
127.651
21
-76.4525
0
LINE
8
BLACK
6
CONTINUOUS
10
127.651
20
-76.4525
11
127.487
21
-76.2303
0
LINE
8
BLACK
6
CONTINUOUS
10
127.487
20
-76.2303
11
127.293
21
-76.0335
0
LINE
8
BLACK
6
CONTINUOUS
10
127.293
20
-76.0335
11
127.073
21
-75.866
0
LINE
8
BLACK
6
CONTINUOUS
10
127.073
20
-75.866
11
126.832
21
-75.7311
0
LINE
8
BLACK
6
CONTINUOUS
10
126.832
20
-75.7311
11
126.575
21
-75.6314
0
LINE
8
BLACK
6
CONTINUOUS
10
126.575
20
-75.6314
11
126.306
21
-75.5691
0
LINE
8
BLACK
6
CONTINUOUS
10
126.306
20
-75.5691
11
126.031
21
-75.5453
0
LINE
8
BLACK
6
CONTINUOUS
10
126.031
20
-75.5453
11
125.755
21
-75.5604
0
LINE
8
BLACK
6
CONTINUOUS
10
125.755
20
-75.5604
11
125.484
21
-75.6143
0
LINE
8
BLACK
6
CONTINUOUS
10
125.484
20
-75.6143
11
125.224
21
-75.7058
0
LINE
8
BLACK
6
CONTINUOUS
10
125.224
20
-75.7058
11
124.979
21
-75.8331
0
LINE
8
BLACK
6
CONTINUOUS
10
124.979
20
-75.8331
11
124.754
21
-75.9937
0
LINE
8
BLACK
6
CONTINUOUS
10
124.754
20
-75.9937
11
124.554
21
-76.1843
0
LINE
8
BLACK
6
CONTINUOUS
10
124.554
20
-76.1843
11
124.383
21
-76.4011
0
LINE
8
BLACK
6
CONTINUOUS
10
124.383
20
-76.4011
11
124.244
21
-76.6399
0
LINE
8
BLACK
6
CONTINUOUS
10
124.244
20
-76.6399
11
124.141
21
-76.8959
0
LINE
8
BLACK
6
CONTINUOUS
10
124.141
20
-76.8959
11
124.074
21
-77.1639
0
LINE
8
BLACK
6
CONTINUOUS
10
124.074
20
-77.1639
11
124.046
21
-77.4386
0
LINE
8
BLACK
6
CONTINUOUS
10
124.046
20
-77.4386
11
124.057
21
-77.7145
0
LINE
8
BLACK
6
CONTINUOUS
10
124.057
20
-77.7145
11
124.106
21
-77.9862
0
LINE
8
BLACK
6
CONTINUOUS
10
134.975
20
-76.0486
11
135.039
21
-75.658
0
LINE
8
BLACK
6
CONTINUOUS
10
135.039
20
-75.658
11
135.14
21
-75.2754
0
LINE
8
BLACK
6
CONTINUOUS
10
135.14
20
-75.2754
11
135.278
21
-74.9045
0
LINE
8
BLACK
6
CONTINUOUS
10
135.278
20
-74.9045
11
135.451
21
-74.5489
0
LINE
8
BLACK
6
CONTINUOUS
10
135.451
20
-74.5489
11
135.658
21
-74.2119
0
LINE
8
BLACK
6
CONTINUOUS
10
135.658
20
-74.2119
11
135.898
21
-73.8967
0
LINE
8
BLACK
6
CONTINUOUS
10
135.898
20
-73.8967
11
136.166
21
-73.6064
0
LINE
8
BLACK
6
CONTINUOUS
10
136.166
20
-73.6064
11
136.462
21
-73.3437
0
LINE
8
BLACK
6
CONTINUOUS
10
136.462
20
-73.3437
11
136.782
21
-73.1111
0
LINE
8
BLACK
6
CONTINUOUS
10
136.782
20
-73.1111
11
137.124
21
-72.9109
0
LINE
8
BLACK
6
CONTINUOUS
10
137.124
20
-72.9109
11
137.483
21
-72.7449
0
LINE
8
BLACK
6
CONTINUOUS
10
137.483
20
-72.7449
11
137.857
21
-72.6148
0
LINE
8
BLACK
6
CONTINUOUS
10
137.857
20
-72.6148
11
138.241
21
-72.5217
0
LINE
8
BLACK
6
CONTINUOUS
10
138.241
20
-72.5217
11
138.633
21
-72.4667
0
LINE
8
BLACK
6
CONTINUOUS
10
138.633
20
-72.4667
11
139.028
21
-72.4501
0
LINE
8
BLACK
6
CONTINUOUS
10
139.028
20
-72.4501
11
139.423
21
-72.4722
0
LINE
8
BLACK
6
CONTINUOUS
10
139.423
20
-72.4722
11
139.814
21
-72.5327
0
LINE
8
BLACK
6
CONTINUOUS
10
139.814
20
-72.5327
11
140.198
21
-72.6311
0
LINE
8
BLACK
6
CONTINUOUS
10
140.198
20
-72.6311
11
140.569
21
-72.7665
0
LINE
8
BLACK
6
CONTINUOUS
10
140.569
20
-72.7665
11
140.926
21
-72.9374
0
LINE
8
BLACK
6
CONTINUOUS
10
140.926
20
-72.9374
11
141.265
21
-73.1424
0
LINE
8
BLACK
6
CONTINUOUS
10
141.265
20
-73.1424
11
141.582
21
-73.3794
0
LINE
8
BLACK
6
CONTINUOUS
10
141.582
20
-73.3794
11
141.874
21
-73.6462
0
LINE
8
BLACK
6
CONTINUOUS
10
141.874
20
-73.6462
11
142.139
21
-73.9403
0
LINE
8
BLACK
6
CONTINUOUS
10
142.139
20
-73.9403
11
142.373
21
-74.2588
0
LINE
8
BLACK
6
CONTINUOUS
10
142.373
20
-74.2588
11
142.576
21
-74.5986
0
LINE
8
BLACK
6
CONTINUOUS
10
142.576
20
-74.5986
11
142.744
21
-74.9567
0
LINE
8
BLACK
6
CONTINUOUS
10
142.744
20
-74.9567
11
142.877
21
-75.3294
0
LINE
8
BLACK
6
CONTINUOUS
10
142.877
20
-75.3294
11
142.973
21
-75.7134
0
LINE
8
BLACK
6
CONTINUOUS
10
142.973
20
-75.7134
11
143.031
21
-76.1048
0
LINE
8
BLACK
6
CONTINUOUS
10
143.031
20
-76.1048
11
143.05
21
-76.5
0
LINE
8
BLACK
6
CONTINUOUS
10
143.05
20
-76.5
11
143.048
21
-76.6131
0
LINE
8
BLACK
6
CONTINUOUS
10
143.048
20
-76.6131
11
143.018
21
-77.0076
0
LINE
8
BLACK
6
CONTINUOUS
10
143.018
20
-77.0076
11
142.949
21
-77.3973
0
LINE
8
BLACK
6
CONTINUOUS
10
142.949
20
-77.3973
11
142.843
21
-77.7784
0
LINE
8
BLACK
6
CONTINUOUS
10
142.843
20
-77.7784
11
142.7
21
-78.1473
0
LINE
8
BLACK
6
CONTINUOUS
10
142.7
20
-78.1473
11
142.521
21
-78.5005
0
LINE
8
BLACK
6
CONTINUOUS
10
142.521
20
-78.5005
11
142.309
21
-78.8346
0
LINE
8
BLACK
6
CONTINUOUS
10
142.309
20
-78.8346
11
142.066
21
-79.1464
0
LINE
8
BLACK
6
CONTINUOUS
10
142.066
20
-79.1464
11
141.793
21
-79.4329
0
LINE
8
BLACK
6
CONTINUOUS
10
141.793
20
-79.4329
11
141.493
21
-79.6914
0
LINE
8
BLACK
6
CONTINUOUS
10
141.493
20
-79.6914
11
141.17
21
-79.9195
0
LINE
8
BLACK
6
CONTINUOUS
10
141.17
20
-79.9195
11
140.826
21
-80.115
0
LINE
8
BLACK
6
CONTINUOUS
10
140.826
20
-80.115
11
140.465
21
-80.2759
0
LINE
8
BLACK
6
CONTINUOUS
10
140.465
20
-80.2759
11
140.089
21
-80.4008
0
LINE
8
BLACK
6
CONTINUOUS
10
140.089
20
-80.4008
11
139.703
21
-80.4885
0
LINE
8
BLACK
6
CONTINUOUS
10
139.703
20
-80.4885
11
139.311
21
-80.5381
0
LINE
8
BLACK
6
CONTINUOUS
10
139.311
20
-80.5381
11
138.915
21
-80.5491
0
LINE
8
BLACK
6
CONTINUOUS
10
138.915
20
-80.5491
11
138.52
21
-80.5215
0
LINE
8
BLACK
6
CONTINUOUS
10
138.52
20
-80.5215
11
138.13
21
-80.4555
0
LINE
8
BLACK
6
CONTINUOUS
10
138.13
20
-80.4555
11
137.748
21
-80.3518
0
LINE
8
BLACK
6
CONTINUOUS
10
137.748
20
-80.3518
11
137.379
21
-80.2113
0
LINE
8
BLACK
6
CONTINUOUS
10
137.379
20
-80.2113
11
137.024
21
-80.0353
0
LINE
8
BLACK
6
CONTINUOUS
10
137.024
20
-80.0353
11
136.689
21
-79.8257
0
LINE
8
BLACK
6
CONTINUOUS
10
136.689
20
-79.8257
11
136.375
21
-79.5842
0
LINE
8
BLACK
6
CONTINUOUS
10
136.375
20
-79.5842
11
136.087
21
-79.3134
0
LINE
8
BLACK
6
CONTINUOUS
10
136.087
20
-79.3134
11
135.826
21
-79.0156
0
LINE
8
BLACK
6
CONTINUOUS
10
135.826
20
-79.0156
11
135.596
21
-78.6939
0
LINE
8
BLACK
6
CONTINUOUS
10
135.596
20
-78.6939
11
135.398
21
-78.3512
0
LINE
8
BLACK
6
CONTINUOUS
10
135.398
20
-78.3512
11
135.234
21
-77.9909
0
LINE
8
BLACK
6
CONTINUOUS
10
135.234
20
-77.9909
11
135.107
21
-77.6163
0
LINE
8
BLACK
6
CONTINUOUS
10
135.107
20
-77.6163
11
135.017
21
-77.2311
0
LINE
8
BLACK
6
CONTINUOUS
10
135.017
20
-77.2311
11
134.964
21
-76.8389
0
LINE
8
BLACK
6
CONTINUOUS
10
134.964
20
-76.8389
11
134.952
21
-76.4862
0
LINE
8
BLACK
6
CONTINUOUS
10
134.952
20
-76.4862
11
134.95
21
-76.4435
0
LINE
8
BLACK
6
CONTINUOUS
10
134.95
20
-76.4435
11
134.975
21
-76.0486
0
LINE
8
BLACK
6
CONTINUOUS
10
135.123
20
-77.2818
11
135.222
21
-77.6695
0
LINE
8
BLACK
6
CONTINUOUS
10
135.222
20
-77.6695
11
135.359
21
-78.0454
0
LINE
8
BLACK
6
CONTINUOUS
10
135.359
20
-78.0454
11
135.534
21
-78.4054
0
LINE
8
BLACK
6
CONTINUOUS
10
135.534
20
-78.4054
11
135.744
21
-78.7459
0
LINE
8
BLACK
6
CONTINUOUS
10
135.744
20
-78.7459
11
135.988
21
-79.0634
0
LINE
8
BLACK
6
CONTINUOUS
10
135.988
20
-79.0634
11
136.263
21
-79.3546
0
LINE
8
BLACK
6
CONTINUOUS
10
136.263
20
-79.3546
11
136.565
21
-79.6166
0
LINE
8
BLACK
6
CONTINUOUS
10
136.565
20
-79.6166
11
136.892
21
-79.8468
0
LINE
8
BLACK
6
CONTINUOUS
10
136.892
20
-79.8468
11
137.241
21
-80.0426
0
LINE
8
BLACK
6
CONTINUOUS
10
137.241
20
-80.0426
11
137.608
21
-80.2022
0
LINE
8
BLACK
6
CONTINUOUS
10
137.608
20
-80.2022
11
137.99
21
-80.3239
0
LINE
8
BLACK
6
CONTINUOUS
10
137.99
20
-80.3239
11
138.381
21
-80.4064
0
LINE
8
BLACK
6
CONTINUOUS
10
138.381
20
-80.4064
11
138.779
21
-80.4489
0
LINE
8
BLACK
6
CONTINUOUS
10
138.779
20
-80.4489
11
139.179
21
-80.451
0
LINE
8
BLACK
6
CONTINUOUS
10
139.179
20
-80.451
11
139.578
21
-80.4126
0
LINE
8
BLACK
6
CONTINUOUS
10
139.578
20
-80.4126
11
139.97
21
-80.3342
0
LINE
8
BLACK
6
CONTINUOUS
10
139.97
20
-80.3342
11
140.353
21
-80.2166
0
LINE
8
BLACK
6
CONTINUOUS
10
140.353
20
-80.2166
11
140.721
21
-80.0608
0
LINE
8
BLACK
6
CONTINUOUS
10
140.721
20
-80.0608
11
141.072
21
-79.8686
0
LINE
8
BLACK
6
CONTINUOUS
10
141.072
20
-79.8686
11
141.402
21
-79.642
0
LINE
8
BLACK
6
CONTINUOUS
10
141.402
20
-79.642
11
141.707
21
-79.3831
0
LINE
8
BLACK
6
CONTINUOUS
10
141.707
20
-79.3831
11
141.985
21
-79.0948
0
LINE
8
BLACK
6
CONTINUOUS
10
141.985
20
-79.0948
11
142.232
21
-78.7798
0
LINE
8
BLACK
6
CONTINUOUS
10
142.232
20
-78.7798
11
142.446
21
-78.4416
0
LINE
8
BLACK
6
CONTINUOUS
10
142.446
20
-78.4416
11
142.624
21
-78.0834
0
LINE
8
BLACK
6
CONTINUOUS
10
142.624
20
-78.0834
11
142.766
21
-77.709
0
LINE
8
BLACK
6
CONTINUOUS
10
142.766
20
-77.709
11
142.869
21
-77.3223
0
LINE
8
BLACK
6
CONTINUOUS
10
142.869
20
-77.3223
11
142.932
21
-76.9271
0
LINE
8
BLACK
6
CONTINUOUS
10
142.932
20
-76.9271
11
142.955
21
-76.5276
0
LINE
8
BLACK
6
CONTINUOUS
10
142.955
20
-76.5276
11
142.955
21
-76.5
0
LINE
8
BLACK
6
CONTINUOUS
10
142.955
20
-76.5
11
142.935
21
-76.1003
0
LINE
8
BLACK
6
CONTINUOUS
10
142.935
20
-76.1003
11
142.874
21
-75.7047
0
LINE
8
BLACK
6
CONTINUOUS
10
142.874
20
-75.7047
11
142.774
21
-75.3173
0
LINE
8
BLACK
6
CONTINUOUS
10
142.774
20
-75.3173
11
142.635
21
-74.9419
0
LINE
8
BLACK
6
CONTINUOUS
10
142.635
20
-74.9419
11
142.459
21
-74.5825
0
LINE
8
BLACK
6
CONTINUOUS
10
142.459
20
-74.5825
11
142.248
21
-74.2428
0
LINE
8
BLACK
6
CONTINUOUS
10
142.248
20
-74.2428
11
142.003
21
-73.9261
0
LINE
8
BLACK
6
CONTINUOUS
10
142.003
20
-73.9261
11
141.727
21
-73.6358
0
LINE
8
BLACK
6
CONTINUOUS
10
141.727
20
-73.6358
11
141.424
21
-73.3749
0
LINE
8
BLACK
6
CONTINUOUS
10
141.424
20
-73.3749
11
141.096
21
-73.1459
0
LINE
8
BLACK
6
CONTINUOUS
10
141.096
20
-73.1459
11
140.746
21
-72.9513
0
LINE
8
BLACK
6
CONTINUOUS
10
140.746
20
-72.9513
11
140.379
21
-72.793
0
LINE
8
BLACK
6
CONTINUOUS
10
140.379
20
-72.793
11
139.997
21
-72.6726
0
LINE
8
BLACK
6
CONTINUOUS
10
139.997
20
-72.6726
11
139.605
21
-72.5915
0
LINE
8
BLACK
6
CONTINUOUS
10
139.605
20
-72.5915
11
139.207
21
-72.5503
0
LINE
8
BLACK
6
CONTINUOUS
10
139.207
20
-72.5503
11
138.807
21
-72.5496
0
LINE
8
BLACK
6
CONTINUOUS
10
138.807
20
-72.5496
11
138.409
21
-72.5894
0
LINE
8
BLACK
6
CONTINUOUS
10
138.409
20
-72.5894
11
138.016
21
-72.6692
0
LINE
8
BLACK
6
CONTINUOUS
10
138.016
20
-72.6692
11
137.634
21
-72.7882
0
LINE
8
BLACK
6
CONTINUOUS
10
137.634
20
-72.7882
11
137.266
21
-72.9452
0
LINE
8
BLACK
6
CONTINUOUS
10
137.266
20
-72.9452
11
136.916
21
-73.1386
0
LINE
8
BLACK
6
CONTINUOUS
10
136.916
20
-73.1386
11
136.587
21
-73.3664
0
LINE
8
BLACK
6
CONTINUOUS
10
136.587
20
-73.3664
11
136.283
21
-73.6263
0
LINE
8
BLACK
6
CONTINUOUS
10
136.283
20
-73.6263
11
136.006
21
-73.9157
0
LINE
8
BLACK
6
CONTINUOUS
10
136.006
20
-73.9157
11
135.76
21
-74.2315
0
LINE
8
BLACK
6
CONTINUOUS
10
135.76
20
-74.2315
11
135.548
21
-74.5705
0
LINE
8
BLACK
6
CONTINUOUS
10
135.548
20
-74.5705
11
135.37
21
-74.9292
0
LINE
8
BLACK
6
CONTINUOUS
10
135.37
20
-74.9292
11
135.23
21
-75.3041
0
LINE
8
BLACK
6
CONTINUOUS
10
135.23
20
-75.3041
11
135.129
21
-75.6912
0
LINE
8
BLACK
6
CONTINUOUS
10
135.129
20
-75.6912
11
135.067
21
-76.0866
0
LINE
8
BLACK
6
CONTINUOUS
10
135.067
20
-76.0866
11
135.045
21
-76.4862
0
LINE
8
BLACK
6
CONTINUOUS
10
135.045
20
-76.4862
11
135.064
21
-76.8859
0
LINE
8
BLACK
6
CONTINUOUS
10
135.064
20
-76.8859
11
135.123
21
-77.2818
0
LINE
8
BLACK
6
CONTINUOUS
10
86.9988
20
-59.8353
11
87.0776
21
-59.4301
0
LINE
8
BLACK
6
CONTINUOUS
10
87.0776
20
-59.4301
11
87.1927
21
-59.0337
0
LINE
8
BLACK
6
CONTINUOUS
10
87.1927
20
-59.0337
11
87.3434
21
-58.6493
0
LINE
8
BLACK
6
CONTINUOUS
10
87.3434
20
-58.6493
11
87.5282
21
-58.2802
0
LINE
8
BLACK
6
CONTINUOUS
10
87.5282
20
-58.2802
11
87.7457
21
-57.9294
0
LINE
8
BLACK
6
CONTINUOUS
10
87.7457
20
-57.9294
11
87.9942
21
-57.5997
0
LINE
8
BLACK
6
CONTINUOUS
10
87.9942
20
-57.5997
11
88.2715
21
-57.2939
0
LINE
8
BLACK
6
CONTINUOUS
10
88.2715
20
-57.2939
11
88.5753
21
-57.0145
0
LINE
8
BLACK
6
CONTINUOUS
10
88.5753
20
-57.0145
11
88.9033
21
-56.7638
0
LINE
8
BLACK
6
CONTINUOUS
10
88.9033
20
-56.7638
11
89.2526
21
-56.5438
0
LINE
8
BLACK
6
CONTINUOUS
10
89.2526
20
-56.5438
11
89.6204
21
-56.3564
0
LINE
8
BLACK
6
CONTINUOUS
10
89.6204
20
-56.3564
11
90.0037
21
-56.2031
0
LINE
8
BLACK
6
CONTINUOUS
10
90.0037
20
-56.2031
11
90.3993
21
-56.0852
0
LINE
8
BLACK
6
CONTINUOUS
10
90.3993
20
-56.0852
11
90.8039
21
-56.0036
0
LINE
8
BLACK
6
CONTINUOUS
10
90.8039
20
-56.0036
11
91.2143
21
-55.959
0
LINE
8
BLACK
6
CONTINUOUS
10
91.2143
20
-55.959
11
91.627
21
-55.9518
0
LINE
8
BLACK
6
CONTINUOUS
10
91.627
20
-55.9518
11
92.0387
21
-55.982
0
LINE
8
BLACK
6
CONTINUOUS
10
92.0387
20
-55.982
11
92.446
21
-56.0494
0
LINE
8
BLACK
6
CONTINUOUS
10
92.446
20
-56.0494
11
92.8455
21
-56.1535
0
LINE
8
BLACK
6
CONTINUOUS
10
92.8455
20
-56.1535
11
93.2339
21
-56.2933
0
LINE
8
BLACK
6
CONTINUOUS
10
93.2339
20
-56.2933
11
93.608
21
-56.4678
0
LINE
8
BLACK
6
CONTINUOUS
10
93.608
20
-56.4678
11
93.9648
21
-56.6754
0
LINE
8
BLACK
6
CONTINUOUS
10
93.9648
20
-56.6754
11
94.3013
21
-56.9146
0
LINE
8
BLACK
6
CONTINUOUS
10
94.3013
20
-56.9146
11
94.6147
21
-57.1832
0
LINE
8
BLACK
6
CONTINUOUS
10
94.6147
20
-57.1832
11
94.9025
21
-57.4791
0
LINE
8
BLACK
6
CONTINUOUS
10
94.9025
20
-57.4791
11
95.1623
21
-57.7999
0
LINE
8
BLACK
6
CONTINUOUS
10
95.1623
20
-57.7999
11
95.3919
21
-58.143
0
LINE
8
BLACK
6
CONTINUOUS
10
95.3919
20
-58.143
11
95.5895
21
-58.5054
0
LINE
8
BLACK
6
CONTINUOUS
10
95.5895
20
-58.5054
11
95.7535
21
-58.8843
0
LINE
8
BLACK
6
CONTINUOUS
10
95.7535
20
-58.8843
11
95.8824
21
-59.2764
0
LINE
8
BLACK
6
CONTINUOUS
10
95.8824
20
-59.2764
11
95.9753
21
-59.6786
0
LINE
8
BLACK
6
CONTINUOUS
10
95.9753
20
-59.6786
11
96.0313
21
-60.0876
0
LINE
8
BLACK
6
CONTINUOUS
10
96.0313
20
-60.0876
11
96.05
21
-60.5
0
LINE
8
BLACK
6
CONTINUOUS
10
96.05
20
-60.5
11
96.049
21
-60.5953
0
LINE
8
BLACK
6
CONTINUOUS
10
96.049
20
-60.5953
11
96.0216
21
-61.0072
0
LINE
8
BLACK
6
CONTINUOUS
10
96.0216
20
-61.0072
11
95.9571
21
-61.4149
0
LINE
8
BLACK
6
CONTINUOUS
10
95.9571
20
-61.4149
11
95.8558
21
-61.8151
0
LINE
8
BLACK
6
CONTINUOUS
10
95.8558
20
-61.8151
11
95.7187
21
-62.2045
0
LINE
8
BLACK
6
CONTINUOUS
10
95.7187
20
-62.2045
11
95.5468
21
-62.5798
0
LINE
8
BLACK
6
CONTINUOUS
10
95.5468
20
-62.5798
11
95.3417
21
-62.938
0
LINE
8
BLACK
6
CONTINUOUS
10
95.3417
20
-62.938
11
95.1049
21
-63.2762
0
LINE
8
BLACK
6
CONTINUOUS
10
95.1049
20
-63.2762
11
94.8385
21
-63.5915
0
LINE
8
BLACK
6
CONTINUOUS
10
94.8385
20
-63.5915
11
94.5445
21
-63.8813
0
LINE
8
BLACK
6
CONTINUOUS
10
94.5445
20
-63.8813
11
94.2256
21
-64.1433
0
LINE
8
BLACK
6
CONTINUOUS
10
94.2256
20
-64.1433
11
93.8841
21
-64.3754
0
LINE
8
BLACK
6
CONTINUOUS
10
93.8841
20
-64.3754
11
93.5231
21
-64.5755
0
LINE
8
BLACK
6
CONTINUOUS
10
93.5231
20
-64.5755
11
93.1454
21
-64.7421
0
LINE
8
BLACK
6
CONTINUOUS
10
93.1454
20
-64.7421
11
92.7541
21
-64.8737
0
LINE
8
BLACK
6
CONTINUOUS
10
92.7541
20
-64.8737
11
92.3526
21
-64.9694
0
LINE
8
BLACK
6
CONTINUOUS
10
92.3526
20
-64.9694
11
91.944
21
-65.0283
0
LINE
8
BLACK
6
CONTINUOUS
10
91.944
20
-65.0283
11
91.5318
21
-65.0499
0
LINE
8
BLACK
6
CONTINUOUS
10
91.5318
20
-65.0499
11
91.1193
21
-65.034
0
LINE
8
BLACK
6
CONTINUOUS
10
91.1193
20
-65.034
11
90.7099
21
-64.9809
0
LINE
8
BLACK
6
CONTINUOUS
10
90.7099
20
-64.9809
11
90.307
21
-64.8908
0
LINE
8
BLACK
6
CONTINUOUS
10
90.307
20
-64.8908
11
89.914
21
-64.7646
0
LINE
8
BLACK
6
CONTINUOUS
10
89.914
20
-64.7646
11
89.534
21
-64.6033
0
LINE
8
BLACK
6
CONTINUOUS
10
89.534
20
-64.6033
11
89.1702
21
-64.4083
0
LINE
8
BLACK
6
CONTINUOUS
10
89.1702
20
-64.4083
11
88.8256
21
-64.181
0
LINE
8
BLACK
6
CONTINUOUS
10
88.8256
20
-64.181
11
88.503
21
-63.9235
0
LINE
8
BLACK
6
CONTINUOUS
10
88.503
20
-63.9235
11
88.205
21
-63.6378
0
LINE
8
BLACK
6
CONTINUOUS
10
88.205
20
-63.6378
11
87.9342
21
-63.3262
0
LINE
8
BLACK
6
CONTINUOUS
10
87.9342
20
-63.3262
11
87.6927
21
-62.9914
0
LINE
8
BLACK
6
CONTINUOUS
10
87.6927
20
-62.9914
11
87.4826
21
-62.6361
0
LINE
8
BLACK
6
CONTINUOUS
10
87.4826
20
-62.6361
11
87.3055
21
-62.2632
0
LINE
8
BLACK
6
CONTINUOUS
10
87.3055
20
-62.2632
11
87.163
21
-61.8758
0
LINE
8
BLACK
6
CONTINUOUS
10
87.163
20
-61.8758
11
87.0561
21
-61.477
0
LINE
8
BLACK
6
CONTINUOUS
10
87.0561
20
-61.477
11
86.9859
21
-61.0703
0
LINE
8
BLACK
6
CONTINUOUS
10
86.9859
20
-61.0703
11
86.9528
21
-60.6588
0
LINE
8
BLACK
6
CONTINUOUS
10
86.9528
20
-60.6588
11
86.9559
21
-60.3601
0
LINE
8
BLACK
6
CONTINUOUS
10
86.9559
20
-60.3601
11
86.9571
21
-60.246
0
LINE
8
BLACK
6
CONTINUOUS
10
86.9571
20
-60.246
11
86.9988
21
-59.8353
0
LINE
8
BLACK
6
CONTINUOUS
10
87.0998
20
-61.1969
11
87.1849
21
-61.6079
0
LINE
8
BLACK
6
CONTINUOUS
10
87.1849
20
-61.6079
11
87.3083
21
-62.0091
0
LINE
8
BLACK
6
CONTINUOUS
10
87.3083
20
-62.0091
11
87.469
21
-62.3969
0
LINE
8
BLACK
6
CONTINUOUS
10
87.469
20
-62.3969
11
87.6654
21
-62.7678
0
LINE
8
BLACK
6
CONTINUOUS
10
87.6654
20
-62.7678
11
87.8958
21
-63.1186
0
LINE
8
BLACK
6
CONTINUOUS
10
87.8958
20
-63.1186
11
88.1582
21
-63.4462
0
LINE
8
BLACK
6
CONTINUOUS
10
88.1582
20
-63.4462
11
88.4503
21
-63.7476
0
LINE
8
BLACK
6
CONTINUOUS
10
88.4503
20
-63.7476
11
88.7695
21
-64.0202
0
LINE
8
BLACK
6
CONTINUOUS
10
88.7695
20
-64.0202
11
89.1129
21
-64.2615
0
LINE
8
BLACK
6
CONTINUOUS
10
89.1129
20
-64.2615
11
89.4775
21
-64.4695
0
LINE
8
BLACK
6
CONTINUOUS
10
89.4775
20
-64.4695
11
89.86
21
-64.6422
0
LINE
8
BLACK
6
CONTINUOUS
10
89.86
20
-64.6422
11
90.2571
21
-64.7782
0
LINE
8
BLACK
6
CONTINUOUS
10
90.2571
20
-64.7782
11
90.6652
21
-64.8761
0
LINE
8
BLACK
6
CONTINUOUS
10
90.6652
20
-64.8761
11
91.0807
21
-64.9353
0
LINE
8
BLACK
6
CONTINUOUS
10
91.0807
20
-64.9353
11
91.5
21
-64.955
0
LINE
8
BLACK
6
CONTINUOUS
10
91.5
20
-64.955
11
91.9193
21
-64.9353
0
LINE
8
BLACK
6
CONTINUOUS
10
91.9193
20
-64.9353
11
92.3348
21
-64.8761
0
LINE
8
BLACK
6
CONTINUOUS
10
92.3348
20
-64.8761
11
92.7429
21
-64.7782
0
LINE
8
BLACK
6
CONTINUOUS
10
92.7429
20
-64.7782
11
93.14
21
-64.6422
0
LINE
8
BLACK
6
CONTINUOUS
10
93.14
20
-64.6422
11
93.5225
21
-64.4695
0
LINE
8
BLACK
6
CONTINUOUS
10
93.5225
20
-64.4695
11
93.8871
21
-64.2615
0
LINE
8
BLACK
6
CONTINUOUS
10
93.8871
20
-64.2615
11
94.2305
21
-64.0202
0
LINE
8
BLACK
6
CONTINUOUS
10
94.2305
20
-64.0202
11
94.5497
21
-63.7476
0
LINE
8
BLACK
6
CONTINUOUS
10
94.5497
20
-63.7476
11
94.8418
21
-63.4462
0
LINE
8
BLACK
6
CONTINUOUS
10
94.8418
20
-63.4462
11
95.1042
21
-63.1186
0
LINE
8
BLACK
6
CONTINUOUS
10
95.1042
20
-63.1186
11
95.3346
21
-62.7678
0
LINE
8
BLACK
6
CONTINUOUS
10
95.3346
20
-62.7678
11
95.531
21
-62.3969
0
LINE
8
BLACK
6
CONTINUOUS
10
95.531
20
-62.3969
11
95.6917
21
-62.0091
0
LINE
8
BLACK
6
CONTINUOUS
10
95.6917
20
-62.0091
11
95.8151
21
-61.6079
0
LINE
8
BLACK
6
CONTINUOUS
10
95.8151
20
-61.6079
11
95.9002
21
-61.1969
0
LINE
8
BLACK
6
CONTINUOUS
10
95.9002
20
-61.1969
11
95.9463
21
-60.7797
0
LINE
8
BLACK
6
CONTINUOUS
10
95.9463
20
-60.7797
11
95.955
21
-60.5
0
LINE
8
BLACK
6
CONTINUOUS
10
95.955
20
-60.5
11
95.9353
21
-60.0807
0
LINE
8
BLACK
6
CONTINUOUS
10
95.9353
20
-60.0807
11
95.8761
21
-59.6652
0
LINE
8
BLACK
6
CONTINUOUS
10
95.8761
20
-59.6652
11
95.7782
21
-59.2571
0
LINE
8
BLACK
6
CONTINUOUS
10
95.7782
20
-59.2571
11
95.6422
21
-58.86
0
LINE
8
BLACK
6
CONTINUOUS
10
95.6422
20
-58.86
11
95.4695
21
-58.4775
0
LINE
8
BLACK
6
CONTINUOUS
10
95.4695
20
-58.4775
11
95.2615
21
-58.1129
0
LINE
8
BLACK
6
CONTINUOUS
10
95.2615
20
-58.1129
11
95.0202
21
-57.7695
0
LINE
8
BLACK
6
CONTINUOUS
10
95.0202
20
-57.7695
11
94.7476
21
-57.4503
0
LINE
8
BLACK
6
CONTINUOUS
10
94.7476
20
-57.4503
11
94.4462
21
-57.1582
0
LINE
8
BLACK
6
CONTINUOUS
10
94.4462
20
-57.1582
11
94.1186
21
-56.8958
0
LINE
8
BLACK
6
CONTINUOUS
10
94.1186
20
-56.8958
11
93.7678
21
-56.6654
0
LINE
8
BLACK
6
CONTINUOUS
10
93.7678
20
-56.6654
11
93.3969
21
-56.469
0
LINE
8
BLACK
6
CONTINUOUS
10
93.3969
20
-56.469
11
93.0091
21
-56.3083
0
LINE
8
BLACK
6
CONTINUOUS
10
93.0091
20
-56.3083
11
92.6079
21
-56.1849
0
LINE
8
BLACK
6
CONTINUOUS
10
92.6079
20
-56.1849
11
92.1969
21
-56.0998
0
LINE
8
BLACK
6
CONTINUOUS
10
92.1969
20
-56.0998
11
91.7797
21
-56.0537
0
LINE
8
BLACK
6
CONTINUOUS
10
91.7797
20
-56.0537
11
91.3601
21
-56.0472
0
LINE
8
BLACK
6
CONTINUOUS
10
91.3601
20
-56.0472
11
90.9416
21
-56.0801
0
LINE
8
BLACK
6
CONTINUOUS
10
90.9416
20
-56.0801
11
90.5282
21
-56.1522
0
LINE
8
BLACK
6
CONTINUOUS
10
90.5282
20
-56.1522
11
90.1233
21
-56.263
0
LINE
8
BLACK
6
CONTINUOUS
10
90.1233
20
-56.263
11
89.7307
21
-56.4114
0
LINE
8
BLACK
6
CONTINUOUS
10
89.7307
20
-56.4114
11
89.3538
21
-56.596
0
LINE
8
BLACK
6
CONTINUOUS
10
89.3538
20
-56.596
11
88.9959
21
-56.8153
0
LINE
8
BLACK
6
CONTINUOUS
10
88.9959
20
-56.8153
11
88.6602
21
-57.0673
0
LINE
8
BLACK
6
CONTINUOUS
10
88.6602
20
-57.0673
11
88.3498
21
-57.3498
0
LINE
8
BLACK
6
CONTINUOUS
10
88.3498
20
-57.3498
11
88.0673
21
-57.6602
0
LINE
8
BLACK
6
CONTINUOUS
10
88.0673
20
-57.6602
11
87.8153
21
-57.9959
0
LINE
8
BLACK
6
CONTINUOUS
10
87.8153
20
-57.9959
11
87.596
21
-58.3538
0
LINE
8
BLACK
6
CONTINUOUS
10
87.596
20
-58.3538
11
87.4114
21
-58.7307
0
LINE
8
BLACK
6
CONTINUOUS
10
87.4114
20
-58.7307
11
87.263
21
-59.1233
0
LINE
8
BLACK
6
CONTINUOUS
10
87.263
20
-59.1233
11
87.1522
21
-59.5282
0
LINE
8
BLACK
6
CONTINUOUS
10
87.1522
20
-59.5282
11
87.0801
21
-59.9416
0
LINE
8
BLACK
6
CONTINUOUS
10
87.0801
20
-59.9416
11
87.0472
21
-60.3601
0
LINE
8
BLACK
6
CONTINUOUS
10
87.0472
20
-60.3601
11
87.0537
21
-60.7797
0
LINE
8
BLACK
6
CONTINUOUS
10
87.0537
20
-60.7797
11
87.0998
21
-61.1969
0
LINE
8
BLACK
6
CONTINUOUS
10
148.499
20
-53.3353
11
148.578
21
-52.9301
0
LINE
8
BLACK
6
CONTINUOUS
10
148.578
20
-52.9301
11
148.693
21
-52.5337
0
LINE
8
BLACK
6
CONTINUOUS
10
148.693
20
-52.5337
11
148.843
21
-52.1493
0
LINE
8
BLACK
6
CONTINUOUS
10
148.843
20
-52.1493
11
149.028
21
-51.7802
0
LINE
8
BLACK
6
CONTINUOUS
10
149.028
20
-51.7802
11
149.246
21
-51.4294
0
LINE
8
BLACK
6
CONTINUOUS
10
149.246
20
-51.4294
11
149.494
21
-51.0997
0
LINE
8
BLACK
6
CONTINUOUS
10
149.494
20
-51.0997
11
149.771
21
-50.7939
0
LINE
8
BLACK
6
CONTINUOUS
10
149.771
20
-50.7939
11
150.075
21
-50.5145
0
LINE
8
BLACK
6
CONTINUOUS
10
150.075
20
-50.5145
11
150.403
21
-50.2638
0
LINE
8
BLACK
6
CONTINUOUS
10
150.403
20
-50.2638
11
150.753
21
-50.0438
0
LINE
8
BLACK
6
CONTINUOUS
10
150.753
20
-50.0438
11
151.12
21
-49.8564
0
LINE
8
BLACK
6
CONTINUOUS
10
151.12
20
-49.8564
11
151.504
21
-49.7031
0
LINE
8
BLACK
6
CONTINUOUS
10
151.504
20
-49.7031
11
151.899
21
-49.5852
0
LINE
8
BLACK
6
CONTINUOUS
10
151.899
20
-49.5852
11
152.304
21
-49.5036
0
LINE
8
BLACK
6
CONTINUOUS
10
152.304
20
-49.5036
11
152.714
21
-49.459
0
LINE
8
BLACK
6
CONTINUOUS
10
152.714
20
-49.459
11
153.127
21
-49.4518
0
LINE
8
BLACK
6
CONTINUOUS
10
153.127
20
-49.4518
11
153.539
21
-49.482
0
LINE
8
BLACK
6
CONTINUOUS
10
153.539
20
-49.482
11
153.946
21
-49.5494
0
LINE
8
BLACK
6
CONTINUOUS
10
153.946
20
-49.5494
11
154.345
21
-49.6535
0
LINE
8
BLACK
6
CONTINUOUS
10
154.345
20
-49.6535
11
154.734
21
-49.7933
0
LINE
8
BLACK
6
CONTINUOUS
10
154.734
20
-49.7933
11
155.108
21
-49.9678
0
LINE
8
BLACK
6
CONTINUOUS
10
155.108
20
-49.9678
11
155.465
21
-50.1754
0
LINE
8
BLACK
6
CONTINUOUS
10
155.465
20
-50.1754
11
155.801
21
-50.4146
0
LINE
8
BLACK
6
CONTINUOUS
10
155.801
20
-50.4146
11
156.115
21
-50.6832
0
LINE
8
BLACK
6
CONTINUOUS
10
156.115
20
-50.6832
11
156.402
21
-50.9791
0
LINE
8
BLACK
6
CONTINUOUS
10
156.402
20
-50.9791
11
156.662
21
-51.2999
0
LINE
8
BLACK
6
CONTINUOUS
10
156.662
20
-51.2999
11
156.892
21
-51.643
0
LINE
8
BLACK
6
CONTINUOUS
10
156.892
20
-51.643
11
157.09
21
-52.0054
0
LINE
8
BLACK
6
CONTINUOUS
10
157.09
20
-52.0054
11
157.253
21
-52.3843
0
LINE
8
BLACK
6
CONTINUOUS
10
157.253
20
-52.3843
11
157.382
21
-52.7764
0
LINE
8
BLACK
6
CONTINUOUS
10
157.382
20
-52.7764
11
157.475
21
-53.1786
0
LINE
8
BLACK
6
CONTINUOUS
10
157.475
20
-53.1786
11
157.531
21
-53.5876
0
LINE
8
BLACK
6
CONTINUOUS
10
157.531
20
-53.5876
11
157.55
21
-54
0
LINE
8
BLACK
6
CONTINUOUS
10
157.55
20
-54
11
157.549
21
-54.0953
0
LINE
8
BLACK
6
CONTINUOUS
10
157.549
20
-54.0953
11
157.522
21
-54.5072
0
LINE
8
BLACK
6
CONTINUOUS
10
157.522
20
-54.5072
11
157.457
21
-54.9149
0
LINE
8
BLACK
6
CONTINUOUS
10
157.457
20
-54.9149
11
157.356
21
-55.3151
0
LINE
8
BLACK
6
CONTINUOUS
10
157.356
20
-55.3151
11
157.219
21
-55.7045
0
LINE
8
BLACK
6
CONTINUOUS
10
157.219
20
-55.7045
11
157.047
21
-56.0798
0
LINE
8
BLACK
6
CONTINUOUS
10
157.047
20
-56.0798
11
156.842
21
-56.438
0
LINE
8
BLACK
6
CONTINUOUS
10
156.842
20
-56.438
11
156.605
21
-56.7762
0
LINE
8
BLACK
6
CONTINUOUS
10
156.605
20
-56.7762
11
156.338
21
-57.0915
0
LINE
8
BLACK
6
CONTINUOUS
10
156.338
20
-57.0915
11
156.045
21
-57.3813
0
LINE
8
BLACK
6
CONTINUOUS
10
156.045
20
-57.3813
11
155.726
21
-57.6433
0
LINE
8
BLACK
6
CONTINUOUS
10
155.726
20
-57.6433
11
155.384
21
-57.8754
0
LINE
8
BLACK
6
CONTINUOUS
10
155.384
20
-57.8754
11
155.023
21
-58.0755
0
LINE
8
BLACK
6
CONTINUOUS
10
155.023
20
-58.0755
11
154.645
21
-58.2421
0
LINE
8
BLACK
6
CONTINUOUS
10
154.645
20
-58.2421
11
154.254
21
-58.3737
0
LINE
8
BLACK
6
CONTINUOUS
10
154.254
20
-58.3737
11
153.853
21
-58.4694
0
LINE
8
BLACK
6
CONTINUOUS
10
153.853
20
-58.4694
11
153.444
21
-58.5283
0
LINE
8
BLACK
6
CONTINUOUS
10
153.444
20
-58.5283
11
153.032
21
-58.5499
0
LINE
8
BLACK
6
CONTINUOUS
10
153.032
20
-58.5499
11
152.619
21
-58.534
0
LINE
8
BLACK
6
CONTINUOUS
10
152.619
20
-58.534
11
152.21
21
-58.4809
0
LINE
8
BLACK
6
CONTINUOUS
10
152.21
20
-58.4809
11
151.807
21
-58.3908
0
LINE
8
BLACK
6
CONTINUOUS
10
151.807
20
-58.3908
11
151.414
21
-58.2646
0
LINE
8
BLACK
6
CONTINUOUS
10
151.414
20
-58.2646
11
151.034
21
-58.1033
0
LINE
8
BLACK
6
CONTINUOUS
10
151.034
20
-58.1033
11
150.67
21
-57.9083
0
LINE
8
BLACK
6
CONTINUOUS
10
150.67
20
-57.9083
11
150.326
21
-57.681
0
LINE
8
BLACK
6
CONTINUOUS
10
150.326
20
-57.681
11
150.003
21
-57.4235
0
LINE
8
BLACK
6
CONTINUOUS
10
150.003
20
-57.4235
11
149.705
21
-57.1378
0
LINE
8
BLACK
6
CONTINUOUS
10
149.705
20
-57.1378
11
149.434
21
-56.8262
0
LINE
8
BLACK
6
CONTINUOUS
10
149.434
20
-56.8262
11
149.193
21
-56.4914
0
LINE
8
BLACK
6
CONTINUOUS
10
149.193
20
-56.4914
11
148.983
21
-56.1361
0
LINE
8
BLACK
6
CONTINUOUS
10
148.983
20
-56.1361
11
148.806
21
-55.7632
0
LINE
8
BLACK
6
CONTINUOUS
10
148.806
20
-55.7632
11
148.663
21
-55.3758
0
LINE
8
BLACK
6
CONTINUOUS
10
148.663
20
-55.3758
11
148.556
21
-54.977
0
LINE
8
BLACK
6
CONTINUOUS
10
148.556
20
-54.977
11
148.486
21
-54.5703
0
LINE
8
BLACK
6
CONTINUOUS
10
148.486
20
-54.5703
11
148.453
21
-54.1588
0
LINE
8
BLACK
6
CONTINUOUS
10
148.453
20
-54.1588
11
148.456
21
-53.8601
0
LINE
8
BLACK
6
CONTINUOUS
10
148.456
20
-53.8601
11
148.457
21
-53.746
0
LINE
8
BLACK
6
CONTINUOUS
10
148.457
20
-53.746
11
148.499
21
-53.3353
0
LINE
8
BLACK
6
CONTINUOUS
10
148.6
20
-54.6969
11
148.685
21
-55.1079
0
LINE
8
BLACK
6
CONTINUOUS
10
148.685
20
-55.1079
11
148.808
21
-55.5091
0
LINE
8
BLACK
6
CONTINUOUS
10
148.808
20
-55.5091
11
148.969
21
-55.8969
0
LINE
8
BLACK
6
CONTINUOUS
10
148.969
20
-55.8969
11
149.165
21
-56.2678
0
LINE
8
BLACK
6
CONTINUOUS
10
149.165
20
-56.2678
11
149.396
21
-56.6186
0
LINE
8
BLACK
6
CONTINUOUS
10
149.396
20
-56.6186
11
149.658
21
-56.9462
0
LINE
8
BLACK
6
CONTINUOUS
10
149.658
20
-56.9462
11
149.95
21
-57.2476
0
LINE
8
BLACK
6
CONTINUOUS
10
149.95
20
-57.2476
11
150.269
21
-57.5202
0
LINE
8
BLACK
6
CONTINUOUS
10
150.269
20
-57.5202
11
150.613
21
-57.7615
0
LINE
8
BLACK
6
CONTINUOUS
10
150.613
20
-57.7615
11
150.977
21
-57.9695
0
LINE
8
BLACK
6
CONTINUOUS
10
150.977
20
-57.9695
11
151.36
21
-58.1422
0
LINE
8
BLACK
6
CONTINUOUS
10
151.36
20
-58.1422
11
151.757
21
-58.2782
0
LINE
8
BLACK
6
CONTINUOUS
10
151.757
20
-58.2782
11
152.165
21
-58.3761
0
LINE
8
BLACK
6
CONTINUOUS
10
152.165
20
-58.3761
11
152.581
21
-58.4353
0
LINE
8
BLACK
6
CONTINUOUS
10
152.581
20
-58.4353
11
153
21
-58.455
0
LINE
8
BLACK
6
CONTINUOUS
10
153
20
-58.455
11
153.419
21
-58.4353
0
LINE
8
BLACK
6
CONTINUOUS
10
153.419
20
-58.4353
11
153.835
21
-58.3761
0
LINE
8
BLACK
6
CONTINUOUS
10
153.835
20
-58.3761
11
154.243
21
-58.2782
0
LINE
8
BLACK
6
CONTINUOUS
10
154.243
20
-58.2782
11
154.64
21
-58.1422
0
LINE
8
BLACK
6
CONTINUOUS
10
154.64
20
-58.1422
11
155.023
21
-57.9695
0
LINE
8
BLACK
6
CONTINUOUS
10
155.023
20
-57.9695
11
155.387
21
-57.7615
0
LINE
8
BLACK
6
CONTINUOUS
10
155.387
20
-57.7615
11
155.731
21
-57.5202
0
LINE
8
BLACK
6
CONTINUOUS
10
155.731
20
-57.5202
11
156.05
21
-57.2476
0
LINE
8
BLACK
6
CONTINUOUS
10
156.05
20
-57.2476
11
156.342
21
-56.9462
0
LINE
8
BLACK
6
CONTINUOUS
10
156.342
20
-56.9462
11
156.604
21
-56.6186
0
LINE
8
BLACK
6
CONTINUOUS
10
156.604
20
-56.6186
11
156.835
21
-56.2678
0
LINE
8
BLACK
6
CONTINUOUS
10
156.835
20
-56.2678
11
157.031
21
-55.8969
0
LINE
8
BLACK
6
CONTINUOUS
10
157.031
20
-55.8969
11
157.192
21
-55.5091
0
LINE
8
BLACK
6
CONTINUOUS
10
157.192
20
-55.5091
11
157.315
21
-55.1079
0
LINE
8
BLACK
6
CONTINUOUS
10
157.315
20
-55.1079
11
157.4
21
-54.6969
0
LINE
8
BLACK
6
CONTINUOUS
10
157.4
20
-54.6969
11
157.446
21
-54.2797
0
LINE
8
BLACK
6
CONTINUOUS
10
157.446
20
-54.2797
11
157.455
21
-54
0
LINE
8
BLACK
6
CONTINUOUS
10
157.455
20
-54
11
157.435
21
-53.5807
0
LINE
8
BLACK
6
CONTINUOUS
10
157.435
20
-53.5807
11
157.376
21
-53.1652
0
LINE
8
BLACK
6
CONTINUOUS
10
157.376
20
-53.1652
11
157.278
21
-52.7571
0
LINE
8
BLACK
6
CONTINUOUS
10
157.278
20
-52.7571
11
157.142
21
-52.36
0
LINE
8
BLACK
6
CONTINUOUS
10
157.142
20
-52.36
11
156.969
21
-51.9775
0
LINE
8
BLACK
6
CONTINUOUS
10
156.969
20
-51.9775
11
156.762
21
-51.6129
0
LINE
8
BLACK
6
CONTINUOUS
10
156.762
20
-51.6129
11
156.52
21
-51.2695
0
LINE
8
BLACK
6
CONTINUOUS
10
156.52
20
-51.2695
11
156.248
21
-50.9503
0
LINE
8
BLACK
6
CONTINUOUS
10
156.248
20
-50.9503
11
155.946
21
-50.6582
0
LINE
8
BLACK
6
CONTINUOUS
10
155.946
20
-50.6582
11
155.619
21
-50.3958
0
LINE
8
BLACK
6
CONTINUOUS
10
155.619
20
-50.3958
11
155.268
21
-50.1654
0
LINE
8
BLACK
6
CONTINUOUS
10
155.268
20
-50.1654
11
154.897
21
-49.969
0
LINE
8
BLACK
6
CONTINUOUS
10
154.897
20
-49.969
11
154.509
21
-49.8083
0
LINE
8
BLACK
6
CONTINUOUS
10
154.509
20
-49.8083
11
154.108
21
-49.6849
0
LINE
8
BLACK
6
CONTINUOUS
10
154.108
20
-49.6849
11
153.697
21
-49.5998
0
LINE
8
BLACK
6
CONTINUOUS
10
153.697
20
-49.5998
11
153.28
21
-49.5537
0
LINE
8
BLACK
6
CONTINUOUS
10
153.28
20
-49.5537
11
152.86
21
-49.5472
0
LINE
8
BLACK
6
CONTINUOUS
10
152.86
20
-49.5472
11
152.442
21
-49.5801
0
LINE
8
BLACK
6
CONTINUOUS
10
152.442
20
-49.5801
11
152.028
21
-49.6522
0
LINE
8
BLACK
6
CONTINUOUS
10
152.028
20
-49.6522
11
151.623
21
-49.763
0
LINE
8
BLACK
6
CONTINUOUS
10
151.623
20
-49.763
11
151.231
21
-49.9114
0
LINE
8
BLACK
6
CONTINUOUS
10
151.231
20
-49.9114
11
150.854
21
-50.096
0
LINE
8
BLACK
6
CONTINUOUS
10
150.854
20
-50.096
11
150.496
21
-50.3153
0
LINE
8
BLACK
6
CONTINUOUS
10
150.496
20
-50.3153
11
150.16
21
-50.5673
0
LINE
8
BLACK
6
CONTINUOUS
10
150.16
20
-50.5673
11
149.85
21
-50.8498
0
LINE
8
BLACK
6
CONTINUOUS
10
149.85
20
-50.8498
11
149.567
21
-51.1602
0
LINE
8
BLACK
6
CONTINUOUS
10
149.567
20
-51.1602
11
149.315
21
-51.4959
0
LINE
8
BLACK
6
CONTINUOUS
10
149.315
20
-51.4959
11
149.096
21
-51.8538
0
LINE
8
BLACK
6
CONTINUOUS
10
149.096
20
-51.8538
11
148.911
21
-52.2307
0
LINE
8
BLACK
6
CONTINUOUS
10
148.911
20
-52.2307
11
148.763
21
-52.6233
0
LINE
8
BLACK
6
CONTINUOUS
10
148.763
20
-52.6233
11
148.652
21
-53.0282
0
LINE
8
BLACK
6
CONTINUOUS
10
148.652
20
-53.0282
11
148.58
21
-53.4416
0
LINE
8
BLACK
6
CONTINUOUS
10
148.58
20
-53.4416
11
148.547
21
-53.8601
0
LINE
8
BLACK
6
CONTINUOUS
10
148.547
20
-53.8601
11
148.554
21
-54.2797
0
LINE
8
BLACK
6
CONTINUOUS
10
148.554
20
-54.2797
11
148.6
21
-54.6969
0
LINE
8
BLACK
6
CONTINUOUS
10
20.9248
20
-21.5377
11
20.9861
21
-21.3166
0
LINE
8
BLACK
6
CONTINUOUS
10
20.9861
20
-21.3166
11
21.0827
21
-21.1085
0
LINE
8
BLACK
6
CONTINUOUS
10
21.0827
20
-21.1085
11
21.212
21
-20.919
0
LINE
8
BLACK
6
CONTINUOUS
10
21.212
20
-20.919
11
21.3705
21
-20.7531
0
LINE
8
BLACK
6
CONTINUOUS
10
21.3705
20
-20.7531
11
21.554
21
-20.6153
0
LINE
8
BLACK
6
CONTINUOUS
10
21.554
20
-20.6153
11
21.7575
21
-20.5094
0
LINE
8
BLACK
6
CONTINUOUS
10
21.7575
20
-20.5094
11
21.9756
21
-20.4381
0
LINE
8
BLACK
6
CONTINUOUS
10
21.9756
20
-20.4381
11
22.2023
21
-20.4034
0
LINE
8
BLACK
6
CONTINUOUS
10
22.2023
20
-20.4034
11
22.4318
21
-20.4062
0
LINE
8
BLACK
6
CONTINUOUS
10
22.4318
20
-20.4062
11
22.6576
21
-20.4464
0
LINE
8
BLACK
6
CONTINUOUS
10
22.6576
20
-20.4464
11
22.8739
21
-20.523
0
LINE
8
BLACK
6
CONTINUOUS
10
22.8739
20
-20.523
11
23.0747
21
-20.6339
0
LINE
8
BLACK
6
CONTINUOUS
10
23.0747
20
-20.6339
11
23.2548
21
-20.7761
0
LINE
8
BLACK
6
CONTINUOUS
10
23.2548
20
-20.7761
11
23.4092
21
-20.9458
0
LINE
8
BLACK
6
CONTINUOUS
10
23.4092
20
-20.9458
11
23.5338
21
-21.1384
0
LINE
8
BLACK
6
CONTINUOUS
10
23.5338
20
-21.1384
11
23.6253
21
-21.3488
0
LINE
8
BLACK
6
CONTINUOUS
10
23.6253
20
-21.3488
11
23.6812
21
-21.5713
0
LINE
8
BLACK
6
CONTINUOUS
10
23.6812
20
-21.5713
11
23.7
21
-21.8
0
LINE
8
BLACK
6
CONTINUOUS
10
23.7
20
-21.8
11
23.6983
21
-21.8684
0
LINE
8
BLACK
6
CONTINUOUS
10
23.6983
20
-21.8684
11
23.6684
21
-22.0959
0
LINE
8
BLACK
6
CONTINUOUS
10
23.6684
20
-22.0959
11
23.6017
21
-22.3154
0
LINE
8
BLACK
6
CONTINUOUS
10
23.6017
20
-22.3154
11
23.5
21
-22.5211
0
LINE
8
BLACK
6
CONTINUOUS
10
23.5
20
-22.5211
11
23.3662
21
-22.7074
0
LINE
8
BLACK
6
CONTINUOUS
10
23.3662
20
-22.7074
11
23.2036
21
-22.8693
0
LINE
8
BLACK
6
CONTINUOUS
10
23.2036
20
-22.8693
11
23.0169
21
-23.0025
0
LINE
8
BLACK
6
CONTINUOUS
10
23.0169
20
-23.0025
11
22.8108
21
-23.1035
0
LINE
8
BLACK
6
CONTINUOUS
10
22.8108
20
-23.1035
11
22.5911
21
-23.1694
0
LINE
8
BLACK
6
CONTINUOUS
10
22.5911
20
-23.1694
11
22.3635
21
-23.1986
0
LINE
8
BLACK
6
CONTINUOUS
10
22.3635
20
-23.1986
11
22.1342
21
-23.1902
0
LINE
8
BLACK
6
CONTINUOUS
10
22.1342
20
-23.1902
11
21.9094
21
-23.1444
0
LINE
8
BLACK
6
CONTINUOUS
10
21.9094
20
-23.1444
11
21.6951
21
-23.0626
0
LINE
8
BLACK
6
CONTINUOUS
10
21.6951
20
-23.0626
11
21.497
21
-22.9468
0
LINE
8
BLACK
6
CONTINUOUS
10
21.497
20
-22.9468
11
21.3205
21
-22.8003
0
LINE
8
BLACK
6
CONTINUOUS
10
21.3205
20
-22.8003
11
21.1703
21
-22.6268
0
LINE
8
BLACK
6
CONTINUOUS
10
21.1703
20
-22.6268
11
21.0504
21
-22.4312
0
LINE
8
BLACK
6
CONTINUOUS
10
21.0504
20
-22.4312
11
20.9641
21
-22.2187
0
LINE
8
BLACK
6
CONTINUOUS
10
20.9641
20
-22.2187
11
20.9136
21
-21.9948
0
LINE
8
BLACK
6
CONTINUOUS
10
20.9136
20
-21.9948
11
20.9024
21
-21.8
0
LINE
8
BLACK
6
CONTINUOUS
10
20.9024
20
-21.8
11
20.9004
21
-21.7658
0
LINE
8
BLACK
6
CONTINUOUS
10
20.9004
20
-21.7658
11
20.9248
21
-21.5377
0
LINE
8
BLACK
6
CONTINUOUS
10
21.0737
20
-22.2463
11
21.1699
21
-22.4525
0
LINE
8
BLACK
6
CONTINUOUS
10
21.1699
20
-22.4525
11
21.3003
21
-22.6388
0
LINE
8
BLACK
6
CONTINUOUS
10
21.3003
20
-22.6388
11
21.4612
21
-22.7997
0
LINE
8
BLACK
6
CONTINUOUS
10
21.4612
20
-22.7997
11
21.6475
21
-22.9301
0
LINE
8
BLACK
6
CONTINUOUS
10
21.6475
20
-22.9301
11
21.8537
21
-23.0263
0
LINE
8
BLACK
6
CONTINUOUS
10
21.8537
20
-23.0263
11
22.0734
21
-23.0851
0
LINE
8
BLACK
6
CONTINUOUS
10
22.0734
20
-23.0851
11
22.3
21
-23.105
0
LINE
8
BLACK
6
CONTINUOUS
10
22.3
20
-23.105
11
22.5266
21
-23.0851
0
LINE
8
BLACK
6
CONTINUOUS
10
22.5266
20
-23.0851
11
22.7463
21
-23.0263
0
LINE
8
BLACK
6
CONTINUOUS
10
22.7463
20
-23.0263
11
22.9525
21
-22.9301
0
LINE
8
BLACK
6
CONTINUOUS
10
22.9525
20
-22.9301
11
23.1388
21
-22.7997
0
LINE
8
BLACK
6
CONTINUOUS
10
23.1388
20
-22.7997
11
23.2997
21
-22.6388
0
LINE
8
BLACK
6
CONTINUOUS
10
23.2997
20
-22.6388
11
23.4301
21
-22.4525
0
LINE
8
BLACK
6
CONTINUOUS
10
23.4301
20
-22.4525
11
23.5263
21
-22.2463
0
LINE
8
BLACK
6
CONTINUOUS
10
23.5263
20
-22.2463
11
23.5851
21
-22.0266
0
LINE
8
BLACK
6
CONTINUOUS
10
23.5851
20
-22.0266
11
23.605
21
-21.8
0
LINE
8
BLACK
6
CONTINUOUS
10
23.605
20
-21.8
11
23.5851
21
-21.5734
0
LINE
8
BLACK
6
CONTINUOUS
10
23.5851
20
-21.5734
11
23.5263
21
-21.3537
0
LINE
8
BLACK
6
CONTINUOUS
10
23.5263
20
-21.3537
11
23.4301
21
-21.1475
0
LINE
8
BLACK
6
CONTINUOUS
10
23.4301
20
-21.1475
11
23.2997
21
-20.9612
0
LINE
8
BLACK
6
CONTINUOUS
10
23.2997
20
-20.9612
11
23.1388
21
-20.8003
0
LINE
8
BLACK
6
CONTINUOUS
10
23.1388
20
-20.8003
11
22.9525
21
-20.6699
0
LINE
8
BLACK
6
CONTINUOUS
10
22.9525
20
-20.6699
11
22.7463
21
-20.5737
0
LINE
8
BLACK
6
CONTINUOUS
10
22.7463
20
-20.5737
11
22.5266
21
-20.5149
0
LINE
8
BLACK
6
CONTINUOUS
10
22.5266
20
-20.5149
11
22.3
21
-20.495
0
LINE
8
BLACK
6
CONTINUOUS
10
22.3
20
-20.495
11
22.0734
21
-20.5149
0
LINE
8
BLACK
6
CONTINUOUS
10
22.0734
20
-20.5149
11
21.8537
21
-20.5737
0
LINE
8
BLACK
6
CONTINUOUS
10
21.8537
20
-20.5737
11
21.6475
21
-20.6699
0
LINE
8
BLACK
6
CONTINUOUS
10
21.6475
20
-20.6699
11
21.4612
21
-20.8003
0
LINE
8
BLACK
6
CONTINUOUS
10
21.4612
20
-20.8003
11
21.3003
21
-20.9612
0
LINE
8
BLACK
6
CONTINUOUS
10
21.3003
20
-20.9612
11
21.1699
21
-21.1475
0
LINE
8
BLACK
6
CONTINUOUS
10
21.1699
20
-21.1475
11
21.0737
21
-21.3537
0
LINE
8
BLACK
6
CONTINUOUS
10
21.0737
20
-21.3537
11
21.0149
21
-21.5734
0
LINE
8
BLACK
6
CONTINUOUS
10
21.0149
20
-21.5734
11
20.995
21
-21.8
0
LINE
8
BLACK
6
CONTINUOUS
10
20.995
20
-21.8
11
21.0149
21
-22.0266
0
LINE
8
BLACK
6
CONTINUOUS
10
21.0149
20
-22.0266
11
21.0737
21
-22.2463
0
LINE
8
BLACK
6
CONTINUOUS
10
202.325
20
-21.5377
11
202.386
21
-21.3166
0
LINE
8
BLACK
6
CONTINUOUS
10
202.386
20
-21.3166
11
202.483
21
-21.1085
0
LINE
8
BLACK
6
CONTINUOUS
10
202.483
20
-21.1085
11
202.612
21
-20.919
0
LINE
8
BLACK
6
CONTINUOUS
10
202.612
20
-20.919
11
202.771
21
-20.7531
0
LINE
8
BLACK
6
CONTINUOUS
10
202.771
20
-20.7531
11
202.954
21
-20.6153
0
LINE
8
BLACK
6
CONTINUOUS
10
202.954
20
-20.6153
11
203.157
21
-20.5094
0
LINE
8
BLACK
6
CONTINUOUS
10
203.157
20
-20.5094
11
203.376
21
-20.4381
0
LINE
8
BLACK
6
CONTINUOUS
10
203.376
20
-20.4381
11
203.602
21
-20.4034
0
LINE
8
BLACK
6
CONTINUOUS
10
203.602
20
-20.4034
11
203.832
21
-20.4062
0
LINE
8
BLACK
6
CONTINUOUS
10
203.832
20
-20.4062
11
204.058
21
-20.4464
0
LINE
8
BLACK
6
CONTINUOUS
10
204.058
20
-20.4464
11
204.274
21
-20.523
0
LINE
8
BLACK
6
CONTINUOUS
10
204.274
20
-20.523
11
204.475
21
-20.6339
0
LINE
8
BLACK
6
CONTINUOUS
10
204.475
20
-20.6339
11
204.655
21
-20.7761
0
LINE
8
BLACK
6
CONTINUOUS
10
204.655
20
-20.7761
11
204.809
21
-20.9458
0
LINE
8
BLACK
6
CONTINUOUS
10
204.809
20
-20.9458
11
204.934
21
-21.1384
0
LINE
8
BLACK
6
CONTINUOUS
10
204.934
20
-21.1384
11
205.025
21
-21.3488
0
LINE
8
BLACK
6
CONTINUOUS
10
205.025
20
-21.3488
11
205.081
21
-21.5713
0
LINE
8
BLACK
6
CONTINUOUS
10
205.081
20
-21.5713
11
205.1
21
-21.8
0
LINE
8
BLACK
6
CONTINUOUS
10
205.1
20
-21.8
11
205.098
21
-21.8684
0
LINE
8
BLACK
6
CONTINUOUS
10
205.098
20
-21.8684
11
205.068
21
-22.0959
0
LINE
8
BLACK
6
CONTINUOUS
10
205.068
20
-22.0959
11
205.002
21
-22.3154
0
LINE
8
BLACK
6
CONTINUOUS
10
205.002
20
-22.3154
11
204.9
21
-22.5211
0
LINE
8
BLACK
6
CONTINUOUS
10
204.9
20
-22.5211
11
204.766
21
-22.7074
0
LINE
8
BLACK
6
CONTINUOUS
10
204.766
20
-22.7074
11
204.604
21
-22.8693
0
LINE
8
BLACK
6
CONTINUOUS
10
204.604
20
-22.8693
11
204.417
21
-23.0025
0
LINE
8
BLACK
6
CONTINUOUS
10
204.417
20
-23.0025
11
204.211
21
-23.1035
0
LINE
8
BLACK
6
CONTINUOUS
10
204.211
20
-23.1035
11
203.991
21
-23.1694
0
LINE
8
BLACK
6
CONTINUOUS
10
203.991
20
-23.1694
11
203.764
21
-23.1986
0
LINE
8
BLACK
6
CONTINUOUS
10
203.764
20
-23.1986
11
203.534
21
-23.1902
0
LINE
8
BLACK
6
CONTINUOUS
10
203.534
20
-23.1902
11
203.309
21
-23.1444
0
LINE
8
BLACK
6
CONTINUOUS
10
203.309
20
-23.1444
11
203.095
21
-23.0626
0
LINE
8
BLACK
6
CONTINUOUS
10
203.095
20
-23.0626
11
202.897
21
-22.9468
0
LINE
8
BLACK
6
CONTINUOUS
10
202.897
20
-22.9468
11
202.72
21
-22.8003
0
LINE
8
BLACK
6
CONTINUOUS
10
202.72
20
-22.8003
11
202.57
21
-22.6268
0
LINE
8
BLACK
6
CONTINUOUS
10
202.57
20
-22.6268
11
202.45
21
-22.4312
0
LINE
8
BLACK
6
CONTINUOUS
10
202.45
20
-22.4312
11
202.364
21
-22.2187
0
LINE
8
BLACK
6
CONTINUOUS
10
202.364
20
-22.2187
11
202.314
21
-21.9948
0
LINE
8
BLACK
6
CONTINUOUS
10
202.314
20
-21.9948
11
202.302
21
-21.8
0
LINE
8
BLACK
6
CONTINUOUS
10
202.302
20
-21.8
11
202.3
21
-21.7658
0
LINE
8
BLACK
6
CONTINUOUS
10
202.3
20
-21.7658
11
202.325
21
-21.5377
0
LINE
8
BLACK
6
CONTINUOUS
10
202.474
20
-22.2463
11
202.57
21
-22.4525
0
LINE
8
BLACK
6
CONTINUOUS
10
202.57
20
-22.4525
11
202.7
21
-22.6388
0
LINE
8
BLACK
6
CONTINUOUS
10
202.7
20
-22.6388
11
202.861
21
-22.7997
0
LINE
8
BLACK
6
CONTINUOUS
10
202.861
20
-22.7997
11
203.048
21
-22.9301
0
LINE
8
BLACK
6
CONTINUOUS
10
203.048
20
-22.9301
11
203.254
21
-23.0263
0
LINE
8
BLACK
6
CONTINUOUS
10
203.254
20
-23.0263
11
203.473
21
-23.0851
0
LINE
8
BLACK
6
CONTINUOUS
10
203.473
20
-23.0851
11
203.7
21
-23.105
0
LINE
8
BLACK
6
CONTINUOUS
10
203.7
20
-23.105
11
203.927
21
-23.0851
0
LINE
8
BLACK
6
CONTINUOUS
10
203.927
20
-23.0851
11
204.146
21
-23.0263
0
LINE
8
BLACK
6
CONTINUOUS
10
204.146
20
-23.0263
11
204.352
21
-22.9301
0
LINE
8
BLACK
6
CONTINUOUS
10
204.352
20
-22.9301
11
204.539
21
-22.7997
0
LINE
8
BLACK
6
CONTINUOUS
10
204.539
20
-22.7997
11
204.7
21
-22.6388
0
LINE
8
BLACK
6
CONTINUOUS
10
204.7
20
-22.6388
11
204.83
21
-22.4525
0
LINE
8
BLACK
6
CONTINUOUS
10
204.83
20
-22.4525
11
204.926
21
-22.2463
0
LINE
8
BLACK
6
CONTINUOUS
10
204.926
20
-22.2463
11
204.985
21
-22.0266
0
LINE
8
BLACK
6
CONTINUOUS
10
204.985
20
-22.0266
11
205.005
21
-21.8
0
LINE
8
BLACK
6
CONTINUOUS
10
205.005
20
-21.8
11
204.985
21
-21.5734
0
LINE
8
BLACK
6
CONTINUOUS
10
204.985
20
-21.5734
11
204.926
21
-21.3537
0
LINE
8
BLACK
6
CONTINUOUS
10
204.926
20
-21.3537
11
204.83
21
-21.1475
0
LINE
8
BLACK
6
CONTINUOUS
10
204.83
20
-21.1475
11
204.7
21
-20.9612
0
LINE
8
BLACK
6
CONTINUOUS
10
204.7
20
-20.9612
11
204.539
21
-20.8003
0
LINE
8
BLACK
6
CONTINUOUS
10
204.539
20
-20.8003
11
204.352
21
-20.6699
0
LINE
8
BLACK
6
CONTINUOUS
10
204.352
20
-20.6699
11
204.146
21
-20.5737
0
LINE
8
BLACK
6
CONTINUOUS
10
204.146
20
-20.5737
11
203.927
21
-20.5149
0
LINE
8
BLACK
6
CONTINUOUS
10
203.927
20
-20.5149
11
203.7
21
-20.495
0
LINE
8
BLACK
6
CONTINUOUS
10
203.7
20
-20.495
11
203.473
21
-20.5149
0
LINE
8
BLACK
6
CONTINUOUS
10
203.473
20
-20.5149
11
203.254
21
-20.5737
0
LINE
8
BLACK
6
CONTINUOUS
10
203.254
20
-20.5737
11
203.048
21
-20.6699
0
LINE
8
BLACK
6
CONTINUOUS
10
203.048
20
-20.6699
11
202.861
21
-20.8003
0
LINE
8
BLACK
6
CONTINUOUS
10
202.861
20
-20.8003
11
202.7
21
-20.9612
0
LINE
8
BLACK
6
CONTINUOUS
10
202.7
20
-20.9612
11
202.57
21
-21.1475
0
LINE
8
BLACK
6
CONTINUOUS
10
202.57
20
-21.1475
11
202.474
21
-21.3537
0
LINE
8
BLACK
6
CONTINUOUS
10
202.474
20
-21.3537
11
202.415
21
-21.5734
0
LINE
8
BLACK
6
CONTINUOUS
10
202.415
20
-21.5734
11
202.395
21
-21.8
0
LINE
8
BLACK
6
CONTINUOUS
10
202.395
20
-21.8
11
202.415
21
-22.0266
0
LINE
8
BLACK
6
CONTINUOUS
10
202.415
20
-22.0266
11
202.474
21
-22.2463
  0
ENDSEC
  0
EOF
